{
.appVersion = "3251";
.formatVersion = 3;
axes = (
{
name = Weight;
tag = wght;
}
);
classes = (
{
automatic = 1;

glyphs = (
{
glyphname = A;
kernLeft = A;
kernRight = A;
layers = (
{
anchors = (
{
name = bottom;
pos = (714,0);
},
{
name = ogonek;
pos = (1342,0);
},
{
name = top;
pos = (714,1446);
}
);
background = {
shapes = (
{
closed = 1;
nodes = (
(86,0,l),
(295,0,l),
(394,282,l),
(1039,282,l),
(1137,0,l),
(1342,0,l),
(802,1446,l),
(625,1446,l)
);
},
{
closed = 1;
nodes = (
(442,425,l),
(719,1216,l),
(993,425,l)
);
}
);
};
layerId = "F85E8FEC-B3CD-4A54-BF30-AB1986ECE904";
shapes = (
{
closed = 1;
nodes = (
(295,0,l),
(734,1258,l),
(704,1259,l),
(1137,0,l),
(1342,0,l),
(802,1446,l),
(625,1446,l),
(86,0,l)
);
},
{
closed = 1;
nodes = (
(1123,282,l),
(1077,430,l),
(354,430,l),
(306,282,l)
);
}
);
width = 1428;
},
{
anchors = (
{
name = bottom;
pos = (756,0);
},
{
name = ogonek;
pos = (1442,0);
},
{
name = top;
pos = (756,1476);
}
);
background = {
shapes = (
{
closed = 1;
nodes = (
(70,0,l),
(380,0,l),
(466,281,l),
(1044,281,l),
(1127,0,l),
(1442,0,l),
(950,1476,l),
(556,1476,l)
);
},
{
closed = 1;
nodes = (
(525,479,l),
(760,1255,l),
(987,479,l)
);
}
);
};
layerId = "C6C96970-2BBD-4A47-8C90-C83F37B7F23D";
shapes = (
{
closed = 1;
nodes = (
(380,0,l),
(773,1298,l),
(747,1298,l),
(1127,0,l),
(1442,0,l),
(950,1476,l),
(556,1476,l),
(70,0,l)
);
},
{
closed = 1;
nodes = (
(1161,281,l),
(1104,511,l),
(410,511,l),
(351,281,l)
);
}
);
width = 1512;
}
);
unicode = 65;
},
{
glyphname = Aacute;
kernLeft = A;
kernRight = A;
layers = (
{
background = {
shapes = (
{
closed = 1;
nodes = (
(1006,1972,l),
(781,1972,l),
(661,1631,l),
(767,1631,l)
);
},
{
closed = 1;
nodes = (
(394,282,l),
(1039,282,l),
(1137,0,l),
(1342,0,l),
(802,1446,l),
(625,1446,l),
(86,0,l),
(295,0,l)
);
},
{
closed = 1;
nodes = (
(993,425,l),
(442,425,l),
(719,1216,l)
);
}
);
};
layerId = "F85E8FEC-B3CD-4A54-BF30-AB1986ECE904";
shapes = (
{
ref = A;
},
{
pos = (714,0);
ref = acutecomb.case;
}
);
width = 1428;
},
{
background = {
shapes = (
{
closed = 1;
nodes = (
(1064,2050,l),
(796,2050,l),
(682,1685,l),
(831,1685,l)
);
},
{
closed = 1;
nodes = (
(987,479,l),
(525,479,l),
(760,1255,l)
);
},
{
closed = 1;
nodes = (
(466,281,l),
(1044,281,l),
(1127,0,l),
(1442,0,l),
(950,1476,l),
(556,1476,l),
(70,0,l),
(380,0,l)
);
}
);
};
layerId = "C6C96970-2BBD-4A47-8C90-C83F37B7F23D";
shapes = (
{
ref = A;
},
{
pos = (756,0);
ref = acutecomb.case;
}
);
width = 1512;
}
);
unicode = 193;
},
{
glyphname = "Alpha-latin";
layers = (
{
background = {
shapes = (
{
ref = O;
}
);
};
guides = (
{
angle = 81.2538;
pos = (1471,95);
}
);
layerId = "F85E8FEC-B3CD-4A54-BF30-AB1986ECE904";
shapes = (
{
closed = 1;
nodes = (
(905,-22,o),
(1048,23,o),
(1213,159,c),
(1140,211,l),
(1184,76,o),
(1213,0,o),
(1404,0,cs),
(1456,0,l),
(1480,152,l),
(1356,152,o),
(1335,179,o),
(1335,331,cs),
(1335,1446,l),
(1143,1446,l),
(1143,1286,l),
(1153,1311,l),
(1096,1392,o),
(964,1473,o),
(741,1473,cs),
(377,1473,o),
(186,1285,o),
(186,995,cs),
(186,437,ls),
(186,139,o),
(363,-22,o),
(721,-22,cs)
);
},
{
closed = 1;
nodes = (
(506,141,o),
(388,231,o),
(388,419,cs),
(388,1016,ls),
(388,1192,o),
(504,1306,o),
(761,1306,cs),
(1039,1306,o),
(1133,1188,o),
(1133,1056,cs),
(1133,255,l),
(1085,211,o),
(975,141,o),
(764,141,cs)
);
}
);
width = 1546;
},
{
background = {
shapes = (
{
ref = O;
}
);
};
guides = (
{
angle = 87.0318;
pos = (1440,133);
}
);
layerId = "C6C96970-2BBD-4A47-8C90-C83F37B7F23D";
shapes = (
{
closed = 1;
nodes = (
(914,-23,o),
(1043,17,o),
(1186,156,c),
(1081,211,l),
(1110,53,o),
(1209,-2,o),
(1400,-2,cs),
(1473,-2,l),
(1485,223,l),
(1399,223,o),
(1376,251,o),
(1376,345,cs),
(1376,1476,l),
(1117,1476,l),
(1071,1313,l),
(1112,1368,l),
(1034,1452,o),
(885,1500,o),
(716,1500,cs),
(331,1500,o),
(160,1289,o),
(160,1018,cs),
(160,472,ls),
(160,176,o),
(351,-23,o),
(733,-23,cs)
);
},
{
closed = 1;
nodes = (
(595,207,o),
(458,287,o),
(458,446,cs),
(458,1016,ls),
(458,1188,o),
(590,1267,o),
(801,1267,cs),
(1000,1267,o),
(1078,1211,o),
(1078,1181,cs),
(1078,276,l),
(1024,242,o),
(924,207,o),
(767,207,cs)
);
}
);
width = 1595;
}
);
unicode = 11373;
},
{
glyphname = Astroke;
kernLeft = A;
kernRight = A;
layers = (
{
layerId = "F85E8FEC-B3CD-4A54-BF30-AB1986ECE904";
shapes = (
{
closed = 1;
nodes = (
(489,-245,l),
(1168,1588,l),
(1064,1626,l),
(386,-207,l)
);
},
{
ref = A;
}
);
width = 1428;
},
{
layerId = "C6C96970-2BBD-4A47-8C90-C83F37B7F23D";
shapes = (
{
closed = 1;
nodes = (
(538,-195,l),
(1237,1638,l),
(1133,1676,l),
(435,-157,l)
);
},
{
ref = A;
}
);
width = 1512;
}
);
unicode = 570;
},
{
glyphname = AE;
layers = (
{
anchors = (
{
name = top;
pos = (987,1446);
}
);
layerId = "F85E8FEC-B3CD-4A54-BF30-AB1986ECE904";
shapes = (
{
closed = 1;
nodes = (
(874,502,l),
(874,0,l),
(1559,0,l),
(1559,150,l),
(1065,150,l),
(1065,664,l),
(1489,664,l),
(1489,814,l),
(1065,814,l),
(1065,1296,l),
(1550,1296,l),
(1550,1446,l),
(492,1446,l),
(98,3,l),
(302,0,l),
(632,1296,l),
(874,1296,l),
(874,650,l),
(335,650,l),
(299,502,l)
);
}
);
width = 1686;
},
{
anchors = (
{
name = top;
pos = (1066,1476);
}
);
layerId = "C6C96970-2BBD-4A47-8C90-C83F37B7F23D";
shapes = (
{
closed = 1;
nodes = (
(893,414,l),
(893,0,l),
(1710,0,l),
(1710,227,l),
(1173,227,l),
(1173,645,l),
(1630,645,l),
(1630,858,l),
(1173,858,l),
(1173,1249,l),
(1700,1249,l),
(1700,1477,l),
(539,1477,l),
(83,0,l),
(393,0,l),
(757,1249,l),
(893,1249,l),
(893,644,l),
(451,644,l),
(396,414,l)
);
}
);
width = 1834;
}
);
unicode = 198;
},
{
glyphname = B;
kernRight = B;
layers = (
{
anchors = (
{
name = bottom;
pos = (710,0);
},
{
name = top;
pos = (710,1446);
}
);
layerId = "F85E8FEC-B3CD-4A54-BF30-AB1986ECE904";
shapes = (
{
closed = 1;
nodes = (
(786,0,ls),
(1138,0,o),
(1292,124,o),
(1292,411,cs),
(1292,606,o),
(1198,752,o),
(1007,779,c),
(1004,763,l),
(1166,802,o),
(1222,911,o),
(1222,1049,cs),
(1222,1301,o),
(1143,1446,o),
(742,1446,cs),
(218,1446,l),
(218,0,l)
);
},
{
closed = 1;
nodes = (
(420,696,l),
(820,696,ls),
(1041,696,o),
(1094,565,o),
(1094,433,cs),
(1094,197,o),
(995,149,o),
(771,149,cs),
(420,149,l)
);
},
{
closed = 1;
nodes = (
(420,1295,l),
(711,1295,ls),
(955,1295,o),
(1021,1256,o),
(1021,1047,cs),
(1021,917,o),
(973,833,o),
(791,833,cs),
(420,833,l)
);
}
);
width = 1420;
},
{
anchors = (
{
name = bottom;
pos = (728,0);
},
{
name = top;
pos = (728,1476);
}
);
background = {
shapes = (
{
closed = 1;
nodes = (
(190,0,l),
(830,0,ls),
(1196,0,o),
(1351,139,o),
(1344,448,cs),
(1344,641,o),
(1297,776,o),
(1092,804,c),
(1246,843,o),
(1280,938,o),
(1281,1088,cs),
(1281,1353,o),
(1171,1476,o),
(758,1476,cs),
(190,1476,l)
);
},
{
closed = 1;
nodes = (
(487,208,l),
(487,703,l),
(805,703,ls),
(1027,703,o),
(1048,602,o),
(1048,455,cs),
(1048,250,o),
(1006,208,o),
(775,208,cs)
);
},
{
closed = 1;
nodes = (
(487,882,l),
(487,1273,l),
(739,1273,ls),
(940,1273,o),
(978,1240,o),
(978,1085,cs),
(978,952,o),
(967,882,o),
(794,882,cs)
);
}
);
};
layerId = "C6C96970-2BBD-4A47-8C90-C83F37B7F23D";
shapes = (
{
closed = 1;
nodes = (
(830,0,ls),
(1196,0,o),
(1344,139,o),
(1344,448,cs),
(1344,653,o),
(1291,792,o),
(1053,808,c),
(1053,796,l),
(1240,828,o),
(1281,926,o),
(1281,1088,cs),
(1281,1353,o),
(1171,1476,o),
(758,1476,cs),
(190,1476,l),
(190,0,l)
);
},
{
closed = 1;
nodes = (
(487,703,l),
(805,703,ls),
(1027,703,o),
(1048,602,o),
(1048,455,cs),
(1048,250,o),
(1006,208,o),
(775,208,cs),
(487,208,l)
);
},
{
closed = 1;
nodes = (
(487,1273,l),
(739,1273,ls),
(940,1273,o),
(978,1240,o),
(978,1085,cs),
(978,952,o),
(967,882,o),
(794,882,cs),
(487,882,l)
);
}
);
width = 1456.23;
}
);
unicode = 66;
},
{
glyphname = "Beta-latin";
kernRight = B;
layers = (
{
layerId = "F85E8FEC-B3CD-4A54-BF30-AB1986ECE904";
shapes = (
{
closed = 1;
nodes = (
(786,0,ls),
(1138,0,o),
(1292,124,o),
(1292,411,cs),
(1292,606,o),
(1198,752,o),
(1007,779,c),
(1004,763,l),
(1166,802,o),
(1222,911,o),
(1222,1049,cs),
(1222,1301,o),
(1143,1446,o),
(742,1446,cs),
(218,1446,l),
(218,0,l)
);
},
{
closed = 1;
nodes = (
(420,696,l),
(820,696,ls),
(1041,696,o),
(1094,565,o),
(1094,433,cs),
(1094,197,o),
(995,149,o),
(771,149,cs),
(420,149,l)
);
},
{
closed = 1;
nodes = (
(420,1295,l),
(711,1295,ls),
(955,1295,o),
(1021,1256,o),
(1021,1047,cs),
(1021,917,o),
(973,833,o),
(791,833,cs),
(420,833,l)
);
},
{
closed = 1;
nodes = (
(218,-410,l),
(420,-410,l),
(420,73,l),
(218,73,l)
);
}
);
width = 1420;
},
{
layerId = "C6C96970-2BBD-4A47-8C90-C83F37B7F23D";
shapes = (
{
closed = 1;
nodes = (
(830,0,ls),
(1196,0,o),
(1344,139,o),
(1344,448,cs),
(1344,653,o),
(1291,792,o),
(1053,808,c),
(1053,796,l),
(1240,828,o),
(1281,926,o),
(1281,1088,cs),
(1281,1353,o),
(1171,1476,o),
(758,1476,cs),
(190,1476,l),
(190,0,l)
);
},
{
closed = 1;
nodes = (
(487,703,l),
(805,703,ls),
(1027,703,o),
(1048,602,o),
(1048,455,cs),
(1048,250,o),
(1006,208,o),
(775,208,cs),
(487,208,l)
);
},
{
closed = 1;
nodes = (
(487,1273,l),
(739,1273,ls),
(940,1273,o),
(978,1240,o),
(978,1085,cs),
(978,952,o),
(967,882,o),
(794,882,cs),
(487,882,l)
);
},
{
closed = 1;
nodes = (
(190,-410,l),
(487,-410,l),
(487,73,l),
(190,73,l)
);
}
);
width = 1456;
}
);
unicode = 42932;
},
{
glyphname = Bhook;
kernRight = B;
layers = (
{
layerId = "F85E8FEC-B3CD-4A54-BF30-AB1986ECE904";
shapes = (
{
closed = 1;
nodes = (
(172,1108,ls),
(172,1235,o),
(208,1295,o),
(349,1295,c),
(370,1446,l),
(102,1446,o),
(-20,1356,o),
(-20,1134,cs),
(-20,1078,l),
(172,1065,l)
);
},
{
pos = (131,0);
ref = B;
}
);
width = 1551;
},
{
layerId = "C6C96970-2BBD-4A47-8C90-C83F37B7F23D";
shapes = (
{
closed = 1;
nodes = (
(216,1108,ls),
(216,1227,o),
(260,1273,o),
(387,1273,c),
(418,1476,l),
(68,1476,o),
(-24,1375,o),
(-24,1122,cs),
(-24,1038,l),
(216,1028,l)
);
},
{
pos = (197,0);
ref = B;
}
);
width = 1653;
}
);
unicode = 385;
},
{
glyphname = Bstroke;
kernRight = B;
layers = (
{
layerId = "F85E8FEC-B3CD-4A54-BF30-AB1986ECE904";
shapes = (
{
closed = 1;
nodes = (
(30,354,l),
(701,354,l),
(701,498,l),
(30,498,l)
);
},
{
ref = B;
}
);
width = 1420;
},
{
layerId = "C6C96970-2BBD-4A47-8C90-C83F37B7F23D";
shapes = (
{
closed = 1;
nodes = (
(30,363,l),
(716,363,l),
(716,553,l),
(30,553,l)
);
},
{
ref = B;
}
);
width = 1456;
}
);
unicode = 579;
},
{
glyphname = C;
kernLeft = C;
kernRight = C;
layers = (
{
anchors = (
{
name = bottom;
pos = (765,0);
},
{
name = top;
pos = (765,1446);
}
);
background = {
shapes = (
{
closed = 1;
nodes = (
(761,-22,cs),
(1221,-22,o),
(1298,147,o),
(1300,438,cs),
(1300,442,o),
(1300,445,o),
(1300,448,c),
(1109,448,l),
(1109,440,o),
(1109,432,o),
(1109,424,cs),
(1104,165,o),
(1016,140,o),
(765,140,cs),
(509,140,o),
(384,199,o),
(384,455,cs),
(384,977,ls),
(384,1234,o),
(505,1306,o),
(759,1306,cs),
(1017,1306,o),
(1103,1269,o),
(1109,1007,cs),
(1109,998,o),
(1109,989,o),
(1109,980,c),
(1300,997,l),
(1300,1001,o),
(1300,1006,o),
(1300,1010,cs),
(1297,1308,o),
(1197,1468,o),
(759,1468,cs),
(274,1468,o),
(182,1246,o),
(182,940,cs),
(182,486,ls),
(182,185,o),
(278,-22,o)
);
}
);
};
layerId = "F85E8FEC-B3CD-4A54-BF30-AB1986ECE904";
shapes = (
{
closed = 1;
nodes = (
(1221,-22,o),
(1300,147,o),
(1300,438,cs),
(1300,448,l),
(1109,448,l),
(1109,424,ls),
(1109,165,o),
(1016,140,o),
(765,140,cs),
(509,140,o),
(384,199,o),
(384,455,cs),
(384,977,ls),
(384,1234,o),
(505,1306,o),
(759,1306,cs),
(1017,1306,o),
(1109,1269,o),
(1109,1007,cs),
(1109,980,l),
(1300,997,l),
(1300,1010,ls),
(1300,1308,o),
(1197,1468,o),
(759,1468,cs),
(274,1468,o),
(182,1246,o),
(182,940,cs),
(182,486,ls),
(182,185,o),
(278,-22,o),
(761,-22,cs)
);
}
);
width = 1456;
},
{
anchors = (
{
name = bottom;
pos = (777,0);
},
{
name = top;
pos = (780,1476);
}
);
layerId = "C6C96970-2BBD-4A47-8C90-C83F37B7F23D";
shapes = (
{
closed = 1;
nodes = (
(1292,-26,o),
(1362,190,o),
(1362,480,cs),
(1362,507,l),
(1071,507,l),
(1071,460,ls),
(1071,250,o),
(1006,207,o),
(781,207,cs),
(559,207,o),
(457,252,o),
(457,454,cs),
(457,1012,ls),
(457,1215,o),
(560,1268,o),
(780,1268,cs),
(1005,1268,o),
(1071,1213,o),
(1071,1006,cs),
(1071,931,l),
(1362,965,l),
(1362,983,ls),
(1362,1281,o),
(1284,1501,o),
(780,1501,cs),
(251,1501,o),
(160,1275,o),
(160,977,cs),
(160,484,ls),
(160,193,o),
(254,-26,o),
(780,-26,cs)
);
}
);
width = 1490;
}
);
unicode = 67;
},
{
glyphname = "Chi-latin";
layers = (
{
background = {
shapes = (
{
closed = 1;
nodes = (
(1232,-408,l),
(320,1446,l),
(106,1446,l),
(1017,-408,l)
);
},
{
closed = 1;
nodes = (
(1217,1446,l),
(1004,1446,l),
(654,694,l),
(753,484,l)
);
},
{
closed = 1;
nodes = (
(84,-408,l),
(296,-408,l),
(665,366,l),
(563,575,l)
);
}
);
};
layerId = "F85E8FEC-B3CD-4A54-BF30-AB1986ECE904";
shapes = (
{
closed = 1;
nodes = (
(1276,-408,l),
(1290,-258,l),
(1255,-258,ls),
(1183,-258,o),
(1145,-230,o),
(1100,-139,cs),
(422,1239,ls),
(340,1406,o),
(272,1446,o),
(128,1446,cs),
(63,1446,l),
(49,1296,l),
(84,1296,ls),
(156,1296,o),
(193,1268,o),
(238,1177,cs),
(915,-201,ls),
(997,-368,o),
(1067,-408,o),
(1211,-408,cs)
);
},
{
closed = 1;
nodes = (
(297,-408,l),
(664,376,l),
(565,586,l),
(84,-408,l)
);
},
{
closed = 1;
nodes = (
(1217,1446,l),
(1004,1446,l),
(654,694,l),
(753,484,l)
);
}
);
width = 1306;
},
{
layerId = "C6C96970-2BBD-4A47-8C90-C83F37B7F23D";
shapes = (
{
closed = 1;
nodes = (
(1325,-410,l),
(1335,-179,l),
(1292,-179,ls),
(1214,-179,o),
(1185,-156,o),
(1140,-66,cs),
(491,1233,ls),
(398,1419,o),
(336,1476,o),
(146,1476,cs),
(38,1476,l),
(28,1245,l),
(71,1245,ls),
(149,1245,o),
(178,1222,o),
(223,1132,cs),
(872,-167,ls),
(966,-355,o),
(1027,-410,o),
(1217,-410,cs)
);
},
{
closed = 1;
nodes = (
(356,-410,l),
(710,355,l),
(525,598,l),
(38,-410,l)
);
},
{
closed = 1;
nodes = (
(1297,1476,l),
(979,1476,l),
(610,731,l),
(795,488,l)
);
}
);
width = 1352;
}
);
unicode = 42931;
},
{
glyphname = Chook;
kernLeft = C;
kernRight = C;
layers = (
{
layerId = "F85E8FEC-B3CD-4A54-BF30-AB1986ECE904";
shapes = (
{
closed = 1;
nodes = (
(1221,-22,o),
(1300,147,o),
(1300,438,cs),
(1300,448,l),
(1109,448,l),
(1109,424,ls),
(1109,165,o),
(1016,140,o),
(765,140,cs),
(509,140,o),
(384,199,o),
(384,455,cs),
(384,977,ls),
(384,1234,o),
(505,1306,o),
(759,1306,cs),
(1017,1306,o),
(1109,1269,o),
(1109,1007,cs),
(1109,980,l),
(1300,997,l),
(1300,1353,ls),
(1300,1500,o),
(1340,1540,o),
(1460,1540,cs),
(1493,1540,l),
(1480,1692,l),
(1413,1692,ls),
(1202,1692,o),
(1123,1599,o),
(1123,1360,c),
(1143,1386,l),
(1059,1441,o),
(937,1468,o),
(759,1468,cs),
(274,1468,o),
(182,1246,o),
(182,940,cs),
(182,486,ls),
(182,185,o),
(278,-22,o),
(761,-22,cs)
);
}
);
width = 1456;
},
{
layerId = "C6C96970-2BBD-4A47-8C90-C83F37B7F23D";
shapes = (
{
closed = 1;
nodes = (
(1292,-26,o),
(1362,190,o),
(1362,480,cs),
(1362,507,l),
(1071,507,l),
(1071,460,ls),
(1071,250,o),
(1006,207,o),
(781,207,cs),
(559,207,o),
(457,252,o),
(457,454,cs),
(457,1012,ls),
(457,1215,o),
(560,1268,o),
(780,1268,cs),
(1005,1268,o),
(1071,1213,o),
(1071,1006,cs),
(1071,931,l),
(1362,965,l),
(1362,1381,ls),
(1362,1478,o),
(1399,1522,o),
(1478,1522,cs),
(1508,1522,l),
(1498,1750,l),
(1404,1750,ls),
(1188,1750,o),
(1106,1639,o),
(1106,1416,c),
(1128,1424,l),
(1045,1479,o),
(942,1501,o),
(780,1501,cs),
(251,1501,o),
(160,1275,o),
(160,977,cs),
(160,484,ls),
(160,193,o),
(254,-26,o),
(780,-26,cs)
);
}
);
width = 1490;
}
);
unicode = 391;
},
{
glyphname = Cstroke;
kernLeft = C;
kernRight = C;
layers = (
{
layerId = "F85E8FEC-B3CD-4A54-BF30-AB1986ECE904";
shapes = (
{
closed = 1;
nodes = (
(439,-195,l),
(1118,1638,l),
(1014,1676,l),
(336,-157,l)
);
},
{
ref = C;
}
);
width = 1456;
},
{
layerId = "C6C96970-2BBD-4A47-8C90-C83F37B7F23D";
shapes = (
{
closed = 1;
nodes = (
(418,-195,l),
(1117,1638,l),
(1013,1676,l),
(315,-157,l)
);
},
{
ref = C;
}
);
width = 1490;
}
);
unicode = 571;
},
{
glyphname = D;
kernRight = D;
layers = (
{
anchors = (
{
name = bottom;
pos = (761,0);
},
{
name = center;
pos = (761,723);
},
{
name = top;
pos = (761,1446);
}
);
layerId = "F85E8FEC-B3CD-4A54-BF30-AB1986ECE904";
shapes = (
{
closed = 1;
nodes = (
(794,0,ls),
(1161,0,o),
(1340,169,o),
(1340,482,cs),
(1340,959,ls),
(1340,1235,o),
(1193,1446,o),
(792,1446,cs),
(218,1446,l),
(218,0,l)
);
},
{
closed = 1;
nodes = (
(420,1295,l),
(774,1295,ls),
(980,1295,o),
(1139,1238,o),
(1139,971,cs),
(1139,462,ls),
(1139,196,o),
(982,150,o),
(774,150,cs),
(420,150,l)
);
}
);
width = 1522;
},
{
anchors = (
{
name = bottom;
pos = (767,0);
},
{
name = center;
pos = (767,738);
},
{
name = top;
pos = (767,1476);
}
);
layerId = "C6C96970-2BBD-4A47-8C90-C83F37B7F23D";
shapes = (
{
closed = 1;
nodes = (
(831,0,ls),
(1246,0,o),
(1374,213,o),
(1374,508,cs),
(1374,961,ls),
(1374,1250,o),
(1258,1476,o),
(830,1476,cs),
(190,1476,l),
(190,0,l)
);
},
{
closed = 1;
nodes = (
(487,1245,l),
(805,1245,ls),
(1011,1245,o),
(1077,1160,o),
(1077,1000,cs),
(1077,470,ls),
(1077,306,o),
(1014,231,o),
(805,231,cs),
(487,231,l)
);
}
);
width = 1534;
}
);
unicode = 68;
},
{
glyphname = Dhook;
kernRight = D;
layers = (
{
layerId = "F85E8FEC-B3CD-4A54-BF30-AB1986ECE904";
shapes = (
{
closed = 1;
nodes = (
(172,1108,ls),
(172,1235,o),
(208,1295,o),
(349,1295,c),
(370,1446,l),
(102,1446,o),
(-20,1356,o),
(-20,1134,cs),
(-20,1078,l),
(172,1065,l)
);
},
{
pos = (131,0);
ref = D;
}
);
width = 1653;
},
{
layerId = "C6C96970-2BBD-4A47-8C90-C83F37B7F23D";
shapes = (
{
closed = 1;
nodes = (
(216,1108,ls),
(216,1227,o),
(260,1273,o),
(387,1273,c),
(418,1476,l),
(68,1476,o),
(-24,1375,o),
(-24,1122,cs),
(-24,1038,l),
(216,1028,l)
);
},
{
pos = (197,0);
ref = D;
}
);
width = 1731;
}
);
unicode = 394;
},
{
glyphname = Eth;
kernRight = D;
layers = (
{
layerId = "F85E8FEC-B3CD-4A54-BF30-AB1986ECE904";
shapes = (
{
closed = 1;
nodes = (
(794,0,ls),
(1161,0,o),
(1340,169,o),
(1340,482,cs),
(1340,959,ls),
(1340,1235,o),
(1193,1446,o),
(792,1446,cs),
(218,1446,l),
(218,0,l)
);
},
{
closed = 1;
nodes = (
(420,1295,l),
(774,1295,ls),
(980,1295,o),
(1139,1238,o),
(1139,971,cs),
(1139,462,ls),
(1139,196,o),
(982,150,o),
(774,150,cs),
(420,150,l)
);
},
{
closed = 1;
nodes = (
(681,694,l),
(681,837,l),
(21,837,l),
(21,694,l)
);
}
);
width = 1522;
},
{
layerId = "C6C96970-2BBD-4A47-8C90-C83F37B7F23D";
shapes = (
{
closed = 1;
nodes = (
(831,0,ls),
(1246,0,o),
(1374,213,o),
(1374,508,cs),
(1374,961,ls),
(1374,1250,o),
(1258,1476,o),
(830,1476,cs),
(190,1476,l),
(190,0,l)
);
},
{
closed = 1;
nodes = (
(487,1245,l),
(805,1245,ls),
(1011,1245,o),
(1077,1160,o),
(1077,1000,cs),
(1077,470,ls),
(1077,306,o),
(1014,231,o),
(805,231,cs),
(487,231,l)
);
},
{
closed = 1;
nodes = (
(713,706,l),
(713,854,l),
(9,854,l),
(9,706,l)
);
}
);
width = 1534;
}
);
unicode = 208;
},
{
glyphname = E;
layers = (
{
anchors = (
{
name = bottom;
pos = (670,0);
},
{
name = ogonek;
pos = (1133,0);
},
{
name = top;
pos = (670,1446);
},
{
name = topleft;
pos = (20,1446);
}
);
layerId = "F85E8FEC-B3CD-4A54-BF30-AB1986ECE904";
shapes = (
{
closed = 1;
nodes = (
(218,0,l),
(1133,0,l),
(1133,150,l),
(419,150,l),
(419,670,l),
(1039,670,l),
(1039,820,l),
(419,820,l),
(419,1296,l),
(1121,1296,l),
(1121,1446,l),
(218,1446,l)
);
}
);
width = 1255;
},
{
anchors = (
{
name = bottom;
pos = (675,0);
},
{
name = ogonek;
pos = (1168,0);
},
{
name = top;
pos = (675,1476);
},
{
name = topleft;
pos = (20,1476);
}
);
layerId = "C6C96970-2BBD-4A47-8C90-C83F37B7F23D";
shapes = (
{
closed = 1;
nodes = (
(190,0,l),
(1168,0,l),
(1168,224,l),
(486,224,l),
(486,646,l),
(1081,646,l),
(1081,860,l),
(486,860,l),
(486,1252,l),
(1157,1252,l),
(1157,1476,l),
(190,1476,l)
);
}
);
width = 1294;
}
);
unicode = 69;
},
{
glyphname = Eopen;
layers = (
{
layerId = "F85E8FEC-B3CD-4A54-BF30-AB1986ECE904";
shapes = (
{
closed = 1;
nodes = (
(1000,-22,o),
(1131,91,o),
(1170,431,c),
(978,431,l),
(960,189,o),
(847,140,o),
(620,140,cs),
(412,140,o),
(329,230,o),
(329,399,cs),
(329,622,o),
(385,691,o),
(738,691,c),
(738,840,l),
(374,840,o),
(360,924,o),
(360,1088,cs),
(360,1224,o),
(429,1306,o),
(637,1306,cs),
(881,1306,o),
(967,1244,o),
(967,1005,c),
(1158,1025,l),
(1158,1393,o),
(931,1468,o),
(638,1468,cs),
(354,1468,o),
(158,1354,o),
(158,1091,cs),
(158,889,o),
(240,782,o),
(459,764,c),
(454,773,l),
(246,744,o),
(124,656,o),
(124,398,cs),
(124,122,o),
(310,-22,o),
(633,-22,cs)
);
}
);
width = 1250;
},
{
layerId = "C6C96970-2BBD-4A47-8C90-C83F37B7F23D";
shapes = (
{
closed = 1;
nodes = (
(1137,-27,o),
(1298,146,o),
(1298,436,c),
(1030,436,l),
(1030,251,o),
(949,198,o),
(727,198,cs),
(518,198,o),
(442,281,o),
(442,425,cs),
(442,593,o),
(508,650,o),
(766,650,c),
(766,849,l),
(478,849,o),
(450,914,o),
(450,1074,cs),
(450,1210,o),
(510,1279,o),
(733,1279,cs),
(963,1279,o),
(1025,1218,o),
(1025,1033,c),
(1292,1033,l),
(1292,1387,o),
(1086,1503,o),
(736,1503,cs),
(390,1503,o),
(173,1357,o),
(173,1088,cs),
(173,924,o),
(213,772,o),
(439,745,c),
(433,760,l),
(226,722,o),
(160,576,o),
(160,412,cs),
(160,167,o),
(313,-27,o),
(730,-27,cs)
);
}
);
width = 1480;
}
);
unicode = 400;
},
{
glyphname = Ereversed;
layers = (
{
layerId = "F85E8FEC-B3CD-4A54-BF30-AB1986ECE904";
shapes = (
{
closed = 1;
nodes = (
(134,1446,l),
(134,1296,l),
(836,1296,l),
(836,820,l),
(216,820,l),
(216,670,l),
(836,670,l),
(836,150,l),
(122,150,l),
(122,0,l),
(1037,0,l),
(1037,1446,l)
);
}
);
width = 1255;
},
{
layerId = "C6C96970-2BBD-4A47-8C90-C83F37B7F23D";
shapes = (
{
closed = 1;
nodes = (
(137,1476,l),
(137,1252,l),
(808,1252,l),
(808,860,l),
(213,860,l),
(213,646,l),
(808,646,l),
(808,224,l),
(126,224,l),
(126,0,l),
(1104,0,l),
(1104,1476,l)
);
}
);
width = 1294;
}
);
unicode = 398;
},
{
glyphname = Esh;
layers = (
{
background = {
shapes = (
{
closed = 1;
nodes = (
(122,0,l),
(1037,0,l),
(1037,150,l),
(323,150,l),
(323,670,l),
(943,670,l),
(943,820,l),
(323,820,l),
(323,1296,l),
(1025,1296,l),
(1025,1446,l),
(122,1446,l)
);
}
);
};
layerId = "F85E8FEC-B3CD-4A54-BF30-AB1986ECE904";
shapes = (
{
closed = 1;
nodes = (
(1037,0,l),
(1037,150,l),
(286,150,l),
(303,127,l),
(787,738,l),
(787,807,l),
(315,1318,l),
(282,1296,l),
(1025,1296,l),
(1025,1446,l),
(122,1446,l),
(122,1298,l),
(646,729,l),
(636,797,l),
(122,155,l),
(122,0,l)
);
}
);
width = 1159;
},
{
background = {
shapes = (
{
pos = (-67,0);
ref = E;
}
);
};
layerId = "C6C96970-2BBD-4A47-8C90-C83F37B7F23D";
shapes = (
{
closed = 1;
nodes = (
(1102,0,l),
(1102,224,l),
(434,224,l),
(450,192,l),
(906,734,l),
(906,812,l),
(467,1284,l),
(437,1252,l),
(1090,1252,l),
(1090,1476,l),
(125,1476,l),
(125,1291,l),
(646,728,l),
(636,795,l),
(125,191,l),
(125,0,l)
);
}
);
width = 1227;
}
);
unicode = 425;
},
{
glyphname = Estroke;
layers = (
{
layerId = "F85E8FEC-B3CD-4A54-BF30-AB1986ECE904";
shapes = (
{
closed = 1;
nodes = (
(218,0,l),
(1173,0,l),
(1173,150,l),
(419,150,l),
(419,670,l),
(1079,670,l),
(1079,820,l),
(419,820,l),
(419,1296,l),
(1161,1296,l),
(1161,1446,l),
(218,1446,l)
);
},
{
closed = 1;
nodes = (
(542,-217,l),
(1058,1669,l),
(951,1697,l),
(436,-188,l)
);
}
);
width = 1295;
},
{
layerId = "C6C96970-2BBD-4A47-8C90-C83F37B7F23D";
shapes = (
{
closed = 1;
nodes = (
(190,0,l),
(1208,0,l),
(1208,224,l),
(486,224,l),
(486,646,l),
(1121,646,l),
(1121,860,l),
(486,860,l),
(486,1252,l),
(1197,1252,l),
(1197,1476,l),
(190,1476,l)
);
},
{
closed = 1;
nodes = (
(561,-217,l),
(1097,1670,l),
(990,1698,l),
(455,-189,l)
);
}
);
width = 1334;
}
);
unicode = 582;
},
{
glyphname = Schwa;
layers = (
{
layerId = "F85E8FEC-B3CD-4A54-BF30-AB1986ECE904";
shapes = (
{
closed = 1;
nodes = (
(259,1468,o),
(156,1308,o),
(156,1010,cs),
(156,997,l),
(347,980,l),
(347,1007,ls),
(347,1269,o),
(439,1306,o),
(697,1306,cs),
(951,1306,o),
(1072,1234,o),
(1072,977,cs),
(1072,786,l),
(156,786,l),
(156,438,ls),
(156,147,o),
(235,-22,o),
(695,-22,cs),
(1178,-22,o),
(1274,185,o),
(1274,486,cs),
(1274,940,ls),
(1274,1246,o),
(1182,1468,o),
(697,1468,cs)
);
},
{
closed = 1;
nodes = (
(440,140,o),
(347,165,o),
(347,424,cs),
(347,638,l),
(1072,638,l),
(1072,455,ls),
(1072,199,o),
(947,140,o),
(691,140,cs)
);
}
);
width = 1456;
},
{
background = {
shapes = (
{
closed = 1;
nodes = (
(1096,-23,o),
(1331,138,o),
(1331,427,cs),
(1331,978,ls),
(1331,1391,o),
(1070,1500,o),
(723,1500,cs),
(324,1500,o),
(129,1386,o),
(129,985,c),
(461,985,l),
(461,1200,o),
(513,1252,o),
(717,1252,cs),
(888,1252,o),
(974,1220,o),
(974,1012,cs),
(974,827,l),
(128,827,l),
(128,440,ls),
(128,156,o),
(293,-23,o),
(729,-23,cs)
);
},
{
closed = 1;
nodes = (
(576,227,o),
(466,241,o),
(466,398,cs),
(466,608,l),
(974,608,l),
(974,405,ls),
(974,255,o),
(863,227,o),
(719,227,cs)
);
}
);
};
layerId = "C6C96970-2BBD-4A47-8C90-C83F37B7F23D";
shapes = (
{
closed = 1;
nodes = (
(206,1501,o),
(128,1281,o),
(128,1023,cs),
(128,985,l),
(419,971,l),
(419,1026,ls),
(419,1213,o),
(485,1268,o),
(710,1268,cs),
(930,1268,o),
(1033,1215,o),
(1033,1012,cs),
(1033,806,l),
(128,806,l),
(128,480,ls),
(128,190,o),
(198,-26,o),
(710,-26,cs),
(1236,-26,o),
(1330,193,o),
(1330,484,cs),
(1330,977,ls),
(1330,1275,o),
(1239,1501,o),
(710,1501,cs)
);
},
{
closed = 1;
nodes = (
(484,207,o),
(419,250,o),
(419,460,cs),
(419,576,l),
(1033,576,l),
(1033,454,ls),
(1033,252,o),
(931,207,o),
(709,207,cs)
);
}
);
width = 1490;
}
);
unicode = 399;
},
{
glyphname = Ezh;
layers = (
{
anchors = (
{
name = bottom;
pos = (645,0);
},
{
name = top;
pos = (665,1446);
}
);
layerId = "F85E8FEC-B3CD-4A54-BF30-AB1986ECE904";
shapes = (
{
closed = 1;
nodes = (
(960,-420,o),
(1146,-237,o),
(1146,113,cs),
(1146,484,o),
(947,676,o),
(532,676,c),
(532,516,l),
(885,516,o),
(941,398,o),
(941,115,cs),
(941,-144,o),
(858,-258,o),
(650,-258,cs),
(423,-258,o),
(310,-196,o),
(292,156,c),
(100,156,l),
(139,-276,o),
(270,-420,o),
(637,-420,cs)
);
},
{
closed = 1;
nodes = (
(1135,1258,l),
(1135,1446,l),
(172,1446,l),
(172,1296,l),
(975,1296,l),
(971,1325,l),
(532,676,l),
(651,534,l)
);
}
);
width = 1266;
},
{
anchors = (
{
name = bottom;
pos = (684,0);
},
{
name = top;
pos = (704,1476);
}
);
layerId = "C6C96970-2BBD-4A47-8C90-C83F37B7F23D";
shapes = (
{
closed = 1;
nodes = (
(1111,-429,o),
(1264,-183,o),
(1264,128,cs),
(1264,477,o),
(1084,706,o),
(558,706,c),
(558,485,l),
(916,485,o),
(982,367,o),
(982,134,cs),
(982,-89,o),
(906,-204,o),
(697,-204,cs),
(475,-204,o),
(394,-86,o),
(394,158,c),
(126,158,l),
(126,-210,o),
(287,-429,o),
(694,-429,cs)
);
},
{
closed = 1;
nodes = (
(1224,1242,l),
(1224,1476,l),
(199,1476,l),
(199,1252,l),
(942,1252,l),
(936,1268,l),
(558,706,l),
(808,600,l)
);
}
);
width = 1410;
}
);
unicode = 439;
},
{
glyphname = Ezhreversed;
layers = (
{
layerId = "F85E8FEC-B3CD-4A54-BF30-AB1986ECE904";
shapes = (
{
closed = 1;
nodes = (
(976,-420,o),
(1107,-276,o),
(1146,156,c),
(954,156,l),
(936,-196,o),
(823,-258,o),
(596,-258,cs),
(388,-258,o),
(305,-144,o),
(305,115,cs),
(305,398,o),
(361,516,o),
(714,516,c),
(714,676,l),
(299,676,o),
(100,484,o),
(100,113,cs),
(100,-237,o),
(286,-420,o),
(609,-420,cs)
);
},
{
closed = 1;
nodes = (
(714,676,l),
(275,1325,l),
(271,1296,l),
(1074,1296,l),
(1074,1446,l),
(111,1446,l),
(111,1258,l),
(595,534,l)
);
}
);
width = 1226;
},
{
layerId = "C6C96970-2BBD-4A47-8C90-C83F37B7F23D";
shapes = (
{
closed = 1;
nodes = (
(1123,-429,o),
(1284,-210,o),
(1284,158,c),
(1016,158,l),
(1016,-86,o),
(935,-204,o),
(713,-204,cs),
(504,-204,o),
(428,-89,o),
(428,134,cs),
(428,367,o),
(494,485,o),
(852,485,c),
(852,706,l),
(326,706,o),
(146,477,o),
(146,128,cs),
(146,-183,o),
(299,-429,o),
(716,-429,cs)
);
},
{
closed = 1;
nodes = (
(852,706,l),
(474,1268,l),
(468,1252,l),
(1211,1252,l),
(1211,1476,l),
(186,1476,l),
(186,1242,l),
(602,600,l)
);
}
);
width = 1410;
}
);
unicode = 440;
},
{
glyphname = F;
layers = (
{
anchors = (
{
name = bottom;
pos = (641,0);
},
{
name = top;
pos = (641,1446);
}
);
layerId = "F85E8FEC-B3CD-4A54-BF30-AB1986ECE904";
shapes = (
{
closed = 1;
nodes = (
(218,0,l),
(419,0,l),
(419,664,l),
(1003,664,l),
(1003,814,l),
(419,814,l),
(419,1296,l),
(1039,1296,l),
(1039,1446,l),
(218,1446,l)
);
}
);
width = 1159;
},
{
anchors = (
{
name = bottom;
pos = (648,0);
},
{
name = top;
pos = (648,1476);
}
);
layerId = "C6C96970-2BBD-4A47-8C90-C83F37B7F23D";
shapes = (
{
closed = 1;
nodes = (
(190,0,l),
(487,0,l),
(487,634,l),
(1042,634,l),
(1042,847,l),
(487,847,l),
(487,1249,l),
(1083,1249,l),
(1083,1476,l),
(190,1476,l)
);
}
);
width = 1173;
}
);
unicode = 70;
},
{
glyphname = Fhook;
layers = (
{
layerId = "F85E8FEC-B3CD-4A54-BF30-AB1986ECE904";
shapes = (
{
closed = 1;
nodes = (
(105,-408,ls),
(316,-408,o),
(419,-315,o),
(419,-76,cs),
(419,664,l),
(1003,664,l),
(1003,814,l),
(419,814,l),
(419,1296,l),
(1039,1296,l),
(1039,1446,l),
(218,1446,l),
(218,-69,ls),
(218,-216,o),
(178,-256,o),
(58,-256,cs),
(25,-256,l),
(38,-408,l)
);
}
);
width = 1159;
},
{
layerId = "C6C96970-2BBD-4A47-8C90-C83F37B7F23D";
shapes = (
{
closed = 1;
nodes = (
(148,-410,ls),
(364,-410,o),
(487,-299,o),
(487,-76,cs),
(487,634,l),
(1042,634,l),
(1042,847,l),
(487,847,l),
(487,1249,l),
(1083,1249,l),
(1083,1476,l),
(190,1476,l),
(190,-44,ls),
(190,-141,o),
(153,-185,o),
(74,-185,cs),
(44,-185,l),
(54,-410,l)
);
}
);
width = 1173;
}
);
unicode = 401;
},
{
glyphname = G;
kernLeft = C;
kernRight = G;
layers = (
{
anchors = (
{
name = bottom;
pos = (787,0);
},
{
name = top;
pos = (782,1446);
}
);
layerId = "F85E8FEC-B3CD-4A54-BF30-AB1986ECE904";
shapes = (
{
closed = 1;
nodes = (
(1074,-22,o),
(1201,89,o),
(1225,246,c),
(1250,0,l),
(1360,0,l),
(1360,735,l),
(815,735,l),
(815,588,l),
(1158,588,l),
(1158,455,ls),
(1158,199,o),
(1046,140,o),
(788,140,cs),
(532,140,o),
(388,199,o),
(388,455,cs),
(388,977,ls),
(388,1234,o),
(534,1306,o),
(788,1306,cs),
(1087,1306,o),
(1160,1246,o),
(1160,1022,cs),
(1160,1000,l),
(1344,1015,l),
(1344,1037,ls),
(1344,1282,o),
(1254,1468,o),
(788,1468,cs),
(303,1468,o),
(186,1246,o),
(186,940,cs),
(186,486,ls),
(186,185,o),
(305,-22,o),
(788,-22,cs)
);
}
);
width = 1556;
},
{
anchors = (
{
name = bottom;
pos = (807,0);
},
{
name = top;
pos = (817,1476);
}
);
layerId = "C6C96970-2BBD-4A47-8C90-C83F37B7F23D";
shapes = (
{
closed = 1;
nodes = (
(1132,-26,o),
(1200,123,o),
(1215,170,c),
(1262,0,l),
(1419,0,l),
(1419,757,l),
(853,757,l),
(853,562,l),
(1151,562,l),
(1151,454,ls),
(1151,252,o),
(1038,207,o),
(813,207,cs),
(591,207,o),
(458,252,o),
(458,454,cs),
(458,1012,ls),
(458,1215,o),
(593,1268,o),
(813,1268,cs),
(1035,1268,o),
(1126,1219,o),
(1126,1021,cs),
(1126,962,l),
(1418,984,l),
(1418,1007,ls),
(1418,1290,o),
(1325,1501,o),
(813,1501,cs),
(284,1501,o),
(160,1275,o),
(160,977,cs),
(160,484,ls),
(160,193,o),
(287,-26,o),
(813,-26,cs)
);
}
);
width = 1607;
}
);
unicode = 71;
},
{
glyphname = Ghook;
kernLeft = C;
kernRight = G;
layers = (
{
layerId = "F85E8FEC-B3CD-4A54-BF30-AB1986ECE904";
shapes = (
{
closed = 1;
nodes = (
(1074,-22,o),
(1201,89,o),
(1225,246,c),
(1250,0,l),
(1360,0,l),
(1360,735,l),
(815,735,l),
(815,588,l),
(1158,588,l),
(1158,455,ls),
(1158,199,o),
(1046,140,o),
(788,140,cs),
(532,140,o),
(388,199,o),
(388,455,cs),
(388,977,ls),
(388,1234,o),
(534,1306,o),
(788,1306,cs),
(1087,1306,o),
(1160,1246,o),
(1160,1022,cs),
(1160,995,l),
(1344,1010,l),
(1344,1353,ls),
(1344,1500,o),
(1384,1540,o),
(1504,1540,cs),
(1537,1540,l),
(1524,1692,l),
(1457,1692,ls),
(1246,1692,o),
(1167,1599,o),
(1167,1360,c),
(1196,1370,l),
(1112,1435,o),
(983,1468,o),
(788,1468,cs),
(303,1468,o),
(186,1246,o),
(186,940,cs),
(186,486,ls),
(186,185,o),
(305,-22,o),
(788,-22,cs)
);
}
);
width = 1556;
},
{
layerId = "C6C96970-2BBD-4A47-8C90-C83F37B7F23D";
shapes = (
{
closed = 1;
nodes = (
(1120,-26,o),
(1188,123,o),
(1203,170,c),
(1250,0,l),
(1407,0,l),
(1407,757,l),
(841,757,l),
(841,562,l),
(1139,562,l),
(1139,454,ls),
(1139,252,o),
(1026,207,o),
(807,207,cs),
(591,207,o),
(458,252,o),
(458,454,cs),
(458,1012,ls),
(458,1215,o),
(593,1268,o),
(807,1268,cs),
(1023,1268,o),
(1114,1219,o),
(1114,1021,cs),
(1114,962,l),
(1406,984,l),
(1406,1381,ls),
(1406,1478,o),
(1443,1522,o),
(1522,1522,cs),
(1552,1522,l),
(1542,1750,l),
(1448,1750,ls),
(1232,1750,o),
(1150,1639,o),
(1150,1416,c),
(1185,1427,l),
(1097,1478,o),
(974,1501,o),
(807,1501,cs),
(284,1501,o),
(160,1275,o),
(160,977,cs),
(160,484,ls),
(160,193,o),
(287,-26,o),
(807,-26,cs)
);
}
);
width = 1595;
}
);
unicode = 403;
},
{
glyphname = Glottalstop;
layers = (
{
layerId = "F85E8FEC-B3CD-4A54-BF30-AB1986ECE904";
shapes = (
{
closed = 1;
nodes = (
(718,0,l),
(718,486,l),
(688,407,l),
(895,621,ls),
(1051,782,o),
(1136,911,o),
(1136,1094,cs),
(1136,1257,o),
(1035,1468,o),
(647,1468,cs),
(286,1468,o),
(139,1354,o),
(139,1051,cs),
(139,1019,l),
(336,1019,l),
(336,1072,ls),
(336,1205,o),
(411,1306,o),
(647,1306,cs),
(866,1306,o),
(923,1202,o),
(923,1083,cs),
(923,966,o),
(895,872,o),
(800,765,cs),
(530,461,l),
(530,0,l)
);
}
);
width = 1240;
},
{
layerId = "C6C96970-2BBD-4A47-8C90-C83F37B7F23D";
shapes = (
{
closed = 1;
nodes = (
(797,0,l),
(797,494,l),
(763,419,l),
(941,577,ls),
(1112,729,o),
(1198,862,o),
(1198,1067,cs),
(1198,1299,o),
(1097,1501,o),
(649,1501,cs),
(216,1501,o),
(90,1309,o),
(90,1036,cs),
(90,962,l),
(364,962,l),
(364,1037,ls),
(364,1188,o),
(447,1279,o),
(649,1279,cs),
(855,1279,o),
(906,1176,o),
(906,1056,cs),
(906,936,o),
(871,856,o),
(770,740,cs),
(525,461,l),
(525,0,l)
);
}
);
width = 1304;
}
);
unicode = 577;
},
{
glyphname = Gstroke;
kernLeft = C;
kernRight = G;
layers = (
{
guides = (
{
angle = 90;
pos = (815,588);
}
);
layerId = "F85E8FEC-B3CD-4A54-BF30-AB1986ECE904";
shapes = (
{
closed = 1;
nodes = (
(1074,-22,o),
(1201,89,o),
(1225,246,c),
(1250,0,l),
(1360,0,l),
(1360,735,l),
(815,735,l),
(815,588,l),
(1158,588,l),
(1158,455,ls),
(1158,199,o),
(1046,140,o),
(788,140,cs),
(532,140,o),
(388,199,o),
(388,455,cs),
(388,977,ls),
(388,1234,o),
(534,1306,o),
(788,1306,cs),
(1087,1306,o),
(1160,1246,o),
(1160,1022,cs),
(1160,1000,l),
(1344,1015,l),
(1344,1037,ls),
(1344,1282,o),
(1254,1468,o),
(788,1468,cs),
(303,1468,o),
(186,1246,o),
(186,940,cs),
(186,486,ls),
(186,185,o),
(305,-22,o),
(788,-22,cs)
);
},
{
closed = 1;
nodes = (
(815,334,l),
(1491,334,l),
(1491,478,l),
(815,478,l)
);
}
);
width = 1556;
},
{
layerId = "C6C96970-2BBD-4A47-8C90-C83F37B7F23D";
shapes = (
{
closed = 1;
nodes = (
(1132,-26,o),
(1200,123,o),
(1215,170,c),
(1262,0,l),
(1419,0,l),
(1419,777,l),
(853,777,l),
(853,582,l),
(1151,582,l),
(1151,454,ls),
(1151,252,o),
(1038,207,o),
(813,207,cs),
(591,207,o),
(458,252,o),
(458,454,cs),
(458,1012,ls),
(458,1215,o),
(593,1268,o),
(813,1268,cs),
(1035,1268,o),
(1126,1219,o),
(1126,1021,cs),
(1126,962,l),
(1418,984,l),
(1418,1007,ls),
(1418,1290,o),
(1325,1501,o),
(813,1501,cs),
(284,1501,o),
(160,1275,o),
(160,977,cs),
(160,484,ls),
(160,193,o),
(287,-26,o),
(813,-26,cs)
);
},
{
closed = 1;
nodes = (
(853,303,l),
(1546,303,l),
(1546,493,l),
(853,493,l)
);
}
);
width = 1607;
}
);
unicode = 484;
},
{
glyphname = H;
layers = (
{
anchors = (
{
name = bottom;
pos = (764,0);
},
{
name = center;
pos = (764,723);
},
{
name = top;
pos = (764,1446);
},
{
name = topleft;
pos = (20,1446);
}
);
layerId = "F85E8FEC-B3CD-4A54-BF30-AB1986ECE904";
shapes = (
{
closed = 1;
nodes = (
(212,0,l),
(413,0,l),
(413,659,l),
(1115,659,l),
(1115,0,l),
(1316,0,l),
(1316,1446,l),
(1115,1446,l),
(1115,807,l),
(413,807,l),
(413,1446,l),
(212,1446,l)
);
}
);
width = 1528;
},
{
anchors = (
{
name = bottom;
pos = (812,0);
},
{
name = center;
pos = (812,738);
},
{
name = top;
pos = (812,1476);
},
{
name = topleft;
pos = (20,1476);
}
);
layerId = "C6C96970-2BBD-4A47-8C90-C83F37B7F23D";
shapes = (
{
closed = 1;
nodes = (
(190,0,l),
(488,0,l),
(488,615,l),
(1136,615,l),
(1136,0,l),
(1434,0,l),
(1434,1476,l),
(1136,1476,l),
(1136,848,l),
(488,848,l),
(488,1476,l),
(190,1476,l)
);
}
);
width = 1624;
}
);
unicode = 72;
},
{
glyphname = Hbar;
layers = (
{
background = {
shapes = (
{
closed = 1;
nodes = (
(144,1060,l),
(1392,1060,l),
(1392,1184,l),
(144,1184,l)
);
}
);
};
layerId = "F85E8FEC-B3CD-4A54-BF30-AB1986ECE904";
shapes = (
{
closed = 1;
nodes = (
(100,1060,l),
(1428,1060,l),
(1428,1204,l),
(100,1204,l)
);
},
{
ref = H;
}
);
width = 1528;
},
{
background = {
shapes = (
{
closed = 1;
nodes = (
(84,1132,l),
(1540,1132,l),
(1540,1236,l),
(84,1236,l)
);
}
);
};
layerId = "C6C96970-2BBD-4A47-8C90-C83F37B7F23D";
shapes = (
{
closed = 1;
nodes = (
(84,1089,l),
(1540,1089,l),
(1540,1273,l),
(84,1273,l)
);
},
{
ref = H;
}
);
width = 1624;
}
);
unicode = 294;
},
{
glyphname = Heng;
layers = (
{
layerId = "F85E8FEC-B3CD-4A54-BF30-AB1986ECE904";
shapes = (
{
closed = 1;
nodes = (
(1002,-408,ls),
(1213,-408,o),
(1316,-315,o),
(1316,-76,cs),
(1316,1446,l),
(1115,1446,l),
(1115,807,l),
(413,807,l),
(413,1446,l),
(212,1446,l),
(212,0,l),
(413,0,l),
(413,659,l),
(1115,659,l),
(1115,-69,ls),
(1115,-216,o),
(1075,-256,o),
(955,-256,cs),
(922,-256,l),
(935,-408,l)
);
}
);
width = 1528;
},
{
layerId = "C6C96970-2BBD-4A47-8C90-C83F37B7F23D";
shapes = (
{
closed = 1;
nodes = (
(1095,-410,ls),
(1311,-410,o),
(1434,-299,o),
(1434,-76,cs),
(1434,1476,l),
(1136,1476,l),
(1136,848,l),
(488,848,l),
(488,1476,l),
(190,1476,l),
(190,0,l),
(488,0,l),
(488,615,l),
(1136,615,l),
(1136,-44,ls),
(1136,-141,o),
(1099,-185,o),
(1020,-185,cs),
(991,-185,l),
(1001,-410,l)
);
}
);
width = 1624;
}
);
unicode = 42790;
},
{
glyphname = Hhook;
layers = (
{
layerId = "F85E8FEC-B3CD-4A54-BF30-AB1986ECE904";
shapes = (
{
closed = 1;
nodes = (
(172,1108,ls),
(172,1235,o),
(208,1295,o),
(349,1295,c),
(370,1446,l),
(102,1446,o),
(-20,1356,o),
(-20,1134,cs),
(-20,1078,l),
(172,1065,l)
);
},
{
pos = (137,0);
ref = H;
}
);
width = 1665;
},
{
layerId = "C6C96970-2BBD-4A47-8C90-C83F37B7F23D";
shapes = (
{
closed = 1;
nodes = (
(216,1108,ls),
(216,1227,o),
(260,1273,o),
(387,1273,c),
(418,1476,l),
(68,1476,o),
(-24,1375,o),
(-24,1122,cs),
(-24,1038,l),
(216,1028,l)
);
},
{
pos = (197,0);
ref = H;
}
);
width = 1821;
}
);
unicode = 42922;
},
{
glyphname = Hturned;
layers = (
{
layerId = "F85E8FEC-B3CD-4A54-BF30-AB1986ECE904";
shapes = (
{
closed = 1;
nodes = (
(212,655,l),
(1095,655,l),
(1095,0,l),
(1296,0,l),
(1296,1446,l),
(1095,1446,l),
(1095,807,l),
(413,807,l),
(413,1446,l),
(212,1446,l)
);
}
);
width = 1508;
},
{
layerId = "C6C96970-2BBD-4A47-8C90-C83F37B7F23D";
shapes = (
{
closed = 1;
nodes = (
(190,605,l),
(1116,605,l),
(1116,0,l),
(1414,0,l),
(1414,1476,l),
(1116,1476,l),
(1116,848,l),
(488,848,l),
(488,1476,l),
(190,1476,l)
);
}
);
width = 1604;
}
);
unicode = 42893;
},
{
glyphname = I;
layers = (
{
anchors = (
{
name = bottom;
pos = (566,0);
},
{
name = ogonek;
pos = (942,0);
},
{
name = top;
pos = (566,1446);
},
{
name = topleft;
pos = (20,1446);
}
);
layerId = "F85E8FEC-B3CD-4A54-BF30-AB1986ECE904";
shapes = (
{
closed = 1;
nodes = (
(190,0,l),
(942,0,l),
(942,150,l),
(667,150,l),
(667,1297,l),
(942,1297,l),
(942,1446,l),
(190,1446,l),
(190,1297,l),
(466,1297,l),
(466,150,l),
(190,150,l)
);
}
);
width = 1132;
},
{
anchors = (
{
name = bottom;
pos = (574,0);
},
{
name = ogonek;
pos = (990,0);
},
{
name = top;
pos = (574,1476);
},
{
name = topleft;
pos = (20,1476);
}
);
layerId = "C6C96970-2BBD-4A47-8C90-C83F37B7F23D";
shapes = (
{
closed = 1;
nodes = (
(158,0,l),
(990,0,l),
(990,222,l),
(723,222,l),
(723,1255,l),
(990,1255,l),
(990,1476,l),
(158,1476,l),
(158,1255,l),
(427,1255,l),
(427,222,l),
(158,222,l)
);
}
);
width = 1148;
}
);
unicode = 73;
},
{
glyphname = Iotaafrican;
layers = (
{
layerId = "F85E8FEC-B3CD-4A54-BF30-AB1986ECE904";
shapes = (
{
closed = 1;
nodes = (
(827,0,l),
(840,152,l),
(807,152,ls),
(677,152,o),
(627,212,o),
(627,359,cs),
(627,1297,l),
(902,1297,l),
(902,1446,l),
(150,1446,l),
(150,1297,l),
(426,1297,l),
(426,352,ls),
(426,113,o),
(539,0,o),
(760,0,cs)
);
}
);
width = 1062;
},
{
layerId = "C6C96970-2BBD-4A47-8C90-C83F37B7F23D";
shapes = (
{
closed = 1;
nodes = (
(889,0,l),
(899,225,l),
(829,225,ls),
(740,225,o),
(683,279,o),
(683,386,cs),
(683,1255,l),
(950,1255,l),
(950,1476,l),
(118,1476,l),
(118,1255,l),
(387,1255,l),
(387,354,ls),
(387,121,o),
(529,0,o),
(755,0,cs)
);
}
);
width = 1088;
}
);
unicode = 406;
},
{
glyphname = Istroke;
layers = (
{
layerId = "F85E8FEC-B3CD-4A54-BF30-AB1986ECE904";
shapes = (
{
closed = 1;
nodes = (
(231,675,l),
(902,675,l),
(902,819,l),
(231,819,l)
);
},
{
ref = I;
}
);
width = 1132;
},
{
layerId = "C6C96970-2BBD-4A47-8C90-C83F37B7F23D";
shapes = (
{
closed = 1;
nodes = (
(231,655,l),
(917,655,l),
(917,845,l),
(231,845,l)
);
},
{
ref = I;
}
);
width = 1148;
}
);
unicode = 407;
},
{
glyphname = J;
kernLeft = J;
layers = (
{
anchors = (
{
name = top;
pos = (608,1446);
}
);
layerId = "F85E8FEC-B3CD-4A54-BF30-AB1986ECE904";
shapes = (
{
closed = 1;
nodes = (
(167,36,o),
(354,-17,o),
(522,-17,cs),
(847,-17,o),
(988,157,o),
(988,431,cs),
(988,1446,l),
(234,1446,l),
(234,1281,l),
(787,1281,l),
(787,435,ls),
(787,248,o),
(707,148,o),
(516,148,cs),
(370,148,o),
(204,203,o),
(157,225,c),
(102,70,l)
);
}
);
width = 1206;
},
{
anchors = (
{
name = top;
pos = (629,1476);
}
);
layerId = "C6C96970-2BBD-4A47-8C90-C83F37B7F23D";
shapes = (
{
closed = 1;
nodes = (
(200,6,o),
(360,-25,o),
(504,-25,cs),
(835,-25,o),
(1036,138,o),
(1036,422,cs),
(1036,1476,l),
(231,1476,l),
(231,1250,l),
(739,1250,l),
(739,441,ls),
(739,313,o),
(671,209,o),
(485,209,cs),
(381,209,o),
(236,242,o),
(139,287,c),
(70,67,l)
);
}
);
width = 1222;
}
);
unicode = 74;
},
{
glyphname = Jcrossedtail;
layers = (
{
background = {
shapes = (
{
closed = 1;
nodes = (
(522,-17,cs),
(847,-17,o),
(988,157,o),
(988,431,cs),
(988,1446,l),
(234,1446,l),
(234,1281,l),
(787,1281,l),
(787,435,ls),
(787,248,o),
(707,148,o),
(516,148,cs),
(370,148,o),
(204,203,o),
(157,225,c),
(102,70,l),
(167,36,o),
(354,-17,o)
);
}
);
};
layerId = "F85E8FEC-B3CD-4A54-BF30-AB1986ECE904";
shapes = (
{
closed = 1;
nodes = (
(391,148,o),
(327,184,o),
(327,317,cs),
(327,449,o),
(391,495,o),
(513,495,cs),
(1153,495,l),
(1141,635,l),
(517,635,ls),
(291,635,o),
(170,521,o),
(170,313,cs),
(170,105,o),
(282,-17,o),
(555,-17,cs),
(847,-17,o),
(988,157,o),
(988,431,cs),
(988,1446,l),
(234,1446,l),
(234,1281,l),
(787,1281,l),
(787,435,ls),
(787,248,o),
(707,148,o),
(523,148,cs)
);
}
);
width = 1206;
},
{
layerId = "C6C96970-2BBD-4A47-8C90-C83F37B7F23D";
shapes = (
{
closed = 1;
nodes = (
(386,209,o),
(336,259,o),
(336,385,cs),
(336,508,o),
(396,559,o),
(517,559,cs),
(1175,559,l),
(1167,759,l),
(568,759,ls),
(260,759,o),
(108,606,o),
(108,382,cs),
(108,138,o),
(228,-25,o),
(541,-25,cs),
(835,-25,o),
(1036,138,o),
(1036,422,cs),
(1036,1476,l),
(231,1476,l),
(231,1250,l),
(739,1250,l),
(739,441,ls),
(739,313,o),
(671,209,o),
(520,209,cs)
);
}
);
width = 1222;
}
);
unicode = 42930;
},
{
glyphname = Jstroke;
kernLeft = J;
layers = (
{
layerId = "F85E8FEC-B3CD-4A54-BF30-AB1986ECE904";
shapes = (
{
closed = 1;
nodes = (
(465,838,l),
(465,694,l),
(1156,694,l),
(1156,838,l)
);
},
{
ref = J;
}
);
width = 1206;
},
{
layerId = "C6C96970-2BBD-4A47-8C90-C83F37B7F23D";
shapes = (
{
closed = 1;
nodes = (
(460,873,l),
(460,683,l),
(1176,683,l),
(1176,873,l)
);
},
{
ref = J;
}
);
width = 1222;
}
);
unicode = 584;
},
{
glyphname = K;
kernRight = K;
layers = (
{
anchors = (
{
name = bottom;
pos = (751,0);
},
{
name = top;
pos = (745,1446);
}
);
background = {
shapes = (
{
closed = 1;
nodes = (
(419,468,l),
(637,690,l),
(1127,0,l),
(1350,0,l),
(778,798,l),
(1321,1446,l),
(1103,1446,l),
(1027,1358,o),
(580,852,o),
(419,657,q),
(419,1446,l),
(218,1446,l),
(218,0,l),
(419,0,l)
);
}
);
};
layerId = "F85E8FEC-B3CD-4A54-BF30-AB1986ECE904";
shapes = (
{
closed = 1;
nodes = (
(1321,1446,l),
(1103,1446,l),
(419,657,l),
(419,1446,l),
(218,1446,l),
(218,0,l),
(419,0,l),
(419,437,l),
(648,697,l),
(675,701,l)
);
},
{
closed = 1;
nodes = (
(1127,0,l),
(1350,0,l),
(740,852,l),
(599,744,l)
);
}
);
width = 1418;
},
{
anchors = (
{
name = bottom;
pos = (765,0);
},
{
name = top;
pos = (753,1476);
}
);
background = {
anchors = (
{
name = bot;
pos = (760,0);
},
{
name = top;
pos = (734,1476);
}
);
};
layerId = "C6C96970-2BBD-4A47-8C90-C83F37B7F23D";
shapes = (
{
closed = 1;
nodes = (
(1389,1476,l),
(1061,1476,l),
(487,760,l),
(487,1476,l),
(190,1476,l),
(190,0,l),
(487,0,l),
(487,442,l),
(706,715,l),
(779,715,l)
);
},
{
closed = 1;
nodes = (
(1091,0,l),
(1426,0,l),
(825,869,l),
(616,696,l)
);
}
);
width = 1448;
}
);
unicode = 75;
},
{
glyphname = Khook;
kernRight = K;
layers = (
{
background = {
shapes = (
{
closed = 1;
nodes = (
(1321,1446,l),
(1103,1446,l),
(419,657,l),
(419,1446,l),
(218,1446,l),
(218,0,l),
(419,0,l),
(419,437,l),
(648,697,l),
(675,701,l)
);
},
{
closed = 1;
nodes = (
(1127,0,l),
(1350,0,l),
(740,852,l),
(599,744,l)
);
}
);
};
layerId = "F85E8FEC-B3CD-4A54-BF30-AB1986ECE904";
shapes = (
{
closed = 1;
nodes = (
(419,0,l),
(419,437,l),
(648,697,l),
(675,701,l),
(1060,1145,ls),
(1162,1263,o),
(1212,1292,o),
(1315,1292,cs),
(1375,1292,l),
(1360,1446,l),
(1296,1446,ls),
(1137,1446,o),
(1059,1396,o),
(931,1248,cs),
(419,657,l),
(419,1446,l),
(218,1446,l),
(218,0,l)
);
},
{
closed = 1;
nodes = (
(1350,0,l),
(740,852,l),
(599,744,l),
(1127,0,l)
);
}
);
width = 1418;
},
{
background = {
shapes = (
{
closed = 1;
nodes = (
(1389,1476,l),
(1061,1476,l),
(487,760,l),
(487,1476,l),
(190,1476,l),
(190,0,l),
(487,0,l),
(487,422,l),
(722,715,l),
(779,715,l)
);
},
{
closed = 1;
nodes = (
(1091,0,l),
(1426,0,l),
(825,869,l),
(616,696,l)
);
}
);
};
guides = (
{
angle = 95.1669;
pos = (1406,1476);
}
);
layerId = "C6C96970-2BBD-4A47-8C90-C83F37B7F23D";
shapes = (
{
closed = 1;
nodes = (
(487,0,l),
(487,422,l),
(722,715,l),
(779,715,l),
(1071,1080,ls),
(1183,1219,o),
(1232,1248,o),
(1340,1248,cs),
(1427,1248,l),
(1406,1476,l),
(1309,1476,ls),
(1118,1476,o),
(1016,1418,o),
(863,1227,cs),
(487,760,l),
(487,1476,l),
(190,1476,l),
(190,0,l)
);
},
{
closed = 1;
nodes = (
(1426,0,l),
(825,869,l),
(616,696,l),
(1091,0,l)
);
}
);
width = 1448;
}
);
unicode = 408;
},
{
glyphname = Kstroke;
kernRight = K;
layers = (
{
layerId = "F85E8FEC-B3CD-4A54-BF30-AB1986ECE904";
shapes = (
{
closed = 1;
nodes = (
(30,1094,l),
(621,1094,l),
(621,1238,l),
(30,1238,l)
);
},
{
ref = K;
}
);
width = 1418;
},
{
layerId = "C6C96970-2BBD-4A47-8C90-C83F37B7F23D";
shapes = (
{
closed = 1;
nodes = (
(30,1123,l),
(656,1123,l),
(656,1313,l),
(30,1313,l)
);
},
{
ref = K;
}
);
width = 1448;
}
);
unicode = 42816;
},
{
glyphname = L;
kernRight = L;
layers = (
{
anchors = (
{
name = bottom;
pos = (658,0);
},
{
name = center;
pos = (573,723);
},
{
name = top;
pos = (319,1446);
},
{
name = topright;
pos = (725,1001);
}
);
layerId = "F85E8FEC-B3CD-4A54-BF30-AB1986ECE904";
shapes = (
{
closed = 1;
nodes = (
(218,0,l),
(1068,0,l),
(1068,155,l),
(419,155,l),
(419,1446,l),
(218,1446,l)
);
}
);
width = 1145;
},
{
anchors = (
{
name = bottom;
pos = (672,0);
},
{
name = center;
pos = (586,738);
},
{
name = top;
pos = (339,1476);
},
{
name = topright;
pos = (781,1035);
}
);
layerId = "C6C96970-2BBD-4A47-8C90-C83F37B7F23D";
shapes = (
{
closed = 1;
nodes = (
(190,0,l),
(1104,0,l),
(1104,232,l),
(487,232,l),
(487,1476,l),
(190,1476,l)
);
}
);
width = 1172;
}
);
unicode = 76;
},
{
glyphname = Lbar;
kernRight = L;
layers = (
{
layerId = "F85E8FEC-B3CD-4A54-BF30-AB1986ECE904";
shapes = (
{
closed = 1;
nodes = (
(30,714,l),
(701,714,l),
(701,858,l),
(30,858,l)
);
},
{
ref = L;
}
);
width = 1145;
},
{
layerId = "C6C96970-2BBD-4A47-8C90-C83F37B7F23D";
shapes = (
{
closed = 1;
nodes = (
(30,710,l),
(716,710,l),
(716,900,l),
(30,900,l)
);
},
{
ref = L;
}
);
width = 1172;
}
);
unicode = 573;
},
{
glyphname = Lbelt;
kernRight = L;
layers = (
{
layerId = "F85E8FEC-B3CD-4A54-BF30-AB1986ECE904";
shapes = (
{
closed = 1;
nodes = (
(410,1021,o),
(325,1117,o),
(173,1117,cs),
(18,1117,o),
(-70,1028,o),
(-70,889,cs),
(-70,750,o),
(6,644,o),
(198,644,cs),
(808,644,l),
(795,788,l),
(194,788,ls),
(111,788,o),
(89,820,o),
(89,880,cs),
(89,942,o),
(121,970,o),
(186,970,cs),
(260,970,o),
(292,926,o),
(292,847,c),
(410,847,l)
);
},
{
pos = (74,0);
ref = L;
}
);
width = 1219;
},
{
layerId = "C6C96970-2BBD-4A47-8C90-C83F37B7F23D";
shapes = (
{
closed = 1;
nodes = (
(410,1031,o),
(325,1127,o),
(173,1127,cs),
(18,1127,o),
(-70,1046,o),
(-70,893,cs),
(-70,728,o),
(26,628,o),
(228,628,cs),
(878,628,l),
(871,817,l),
(204,817,ls),
(141,817,o),
(109,845,o),
(109,905,cs),
(109,964,o),
(141,990,o),
(196,990,cs),
(260,990,o),
(292,946,o),
(292,857,c),
(410,857,l)
);
},
{
pos = (102,0);
ref = L;
}
);
width = 1274;
}
);
unicode = 42925;
},
{
glyphname = Ldoublebar;
kernRight = L;
layers = (
{
layerId = "F85E8FEC-B3CD-4A54-BF30-AB1986ECE904";
shapes = (
{
closed = 1;
nodes = (
(30,864,l),
(701,864,l),
(701,1008,l),
(30,1008,l)
);
},
{
closed = 1;
nodes = (
(30,564,l),
(701,564,l),
(701,708,l),
(30,708,l)
);
},
{
ref = L;
}
);
width = 1145;
},
{
layerId = "C6C96970-2BBD-4A47-8C90-C83F37B7F23D";
shapes = (
{
closed = 1;
nodes = (
(30,865,l),
(716,865,l),
(716,1055,l),
(30,1055,l)
);
},
{
closed = 1;
nodes = (
(30,550,l),
(716,550,l),
(716,740,l),
(30,740,l)
);
},
{
ref = L;
}
);
width = 1172;
}
);
unicode = 11360;
},
{
glyphname = Lmiddletilde;
kernRight = L;
layers = (
{
layerId = "F85E8FEC-B3CD-4A54-BF30-AB1986ECE904";
shapes = (
{
closed = 1;
nodes = (
(591,680,o),
(657,744,o),
(657,909,c),
(560,909,l),
(560,847,o),
(531,816,o),
(470,816,cs),
(379,816,o),
(347,923,o),
(190,923,cs),
(50,923,o),
(-16,859,o),
(-16,694,c),
(81,694,l),
(81,756,o),
(110,787,o),
(171,787,cs),
(262,787,o),
(294,680,o),
(451,680,cs)
);
},
{
ref = L;
}
);
width = 1145;
},
{
layerId = "C6C96970-2BBD-4A47-8C90-C83F37B7F23D";
shapes = (
{
closed = 1;
nodes = (
(648,623,o),
(739,696,o),
(739,883,c),
(605,883,l),
(605,820,o),
(573,797,o),
(513,797,cs),
(416,797,o),
(395,899,o),
(200,899,cs),
(44,899,o),
(-47,826,o),
(-47,639,c),
(87,639,l),
(87,700,o),
(113,726,o),
(171,726,cs),
(271,726,o),
(298,623,o),
(492,623,cs)
);
},
{
ref = L;
}
);
width = 1172;
}
);
unicode = 11362;
},
{
glyphname = Lslash;
kernRight = L;
layers = (
{
background = {
shapes = (
{
closed = 1;
nodes = (
(52,616,l),
(826,1002,l),
(826,1126,l),
(52,740,l)
);
}
);
};
layerId = "F85E8FEC-B3CD-4A54-BF30-AB1986ECE904";
shapes = (
{
closed = 1;
nodes = (
(52,556,l),
(723,890,l),
(723,1045,l),
(52,711,l)
);
},
{
ref = L;
}
);
width = 1145;
},
{
background = {
shapes = (
{
closed = 1;
nodes = (
(24,560,l),
(793,871,l),
(793,1094,l),
(24,783,l)
);
}
);
};
layerId = "C6C96970-2BBD-4A47-8C90-C83F37B7F23D";
shapes = (
{
closed = 1;
nodes = (
(24,560,l),
(750,854,l),
(750,1064,l),
(24,770,l)
);
},
{
ref = L;
}
);
width = 1172;
}
);
unicode = 321;
},
{
glyphname = M;
layers = (
{
anchors = (
{
name = bottom;
pos = (889,0);
},
{
name = top;
pos = (889,1446);
}
);
layerId = "F85E8FEC-B3CD-4A54-BF30-AB1986ECE904";
shapes = (
{
closed = 1;
nodes = (
(410,0,l),
(410,1162,l),
(388,1155,l),
(816,458,l),
(965,458,l),
(1393,1159,l),
(1370,1166,l),
(1370,0,l),
(1560,0,l),
(1560,1446,l),
(1382,1446,l),
(867,600,l),
(923,600,l),
(403,1446,l),
(218,1446,l),
(218,0,l)
);
}
);
width = 1778;
},
{
anchors = (
{
name = bottom;
pos = (937,0);
},
{
name = top;
pos = (937,1476);
}
);
background = {
shapes = (
{
closed = 1;
nodes = (
(190,0,l),
(468,0,l),
(468,1087,l),
(838,429,l),
(1037,429,l),
(1406,1091,l),
(1406,0,l),
(1684,0,l),
(1684,1476,l),
(1351,1476,l),
(937,761,l),
(517,1476,l),
(190,1476,l)
);
}
);
};
layerId = "C6C96970-2BBD-4A47-8C90-C83F37B7F23D";
shapes = (
{
closed = 1;
nodes = (
(468,0,l),
(468,1132,l),
(433,1126,l),
(838,429,l),
(1037,429,l),
(1428,1130,l),
(1406,1136,l),
(1406,0,l),
(1684,0,l),
(1684,1476,l),
(1351,1476,l),
(914,722,l),
(955,722,l),
(517,1476,l),
(190,1476,l),
(190,0,l)
);
}
);
width = 1874;
}
);
unicode = 77;
},
{
glyphname = Mturned;
layers = (
{
layerId = "F85E8FEC-B3CD-4A54-BF30-AB1986ECE904";
shapes = (
{
closed = 1;
nodes = (
(720,-20,o),
(821,29,o),
(913,119,c),
(963,36,o),
(1060,-20,o),
(1224,-20,cs),
(1392,-20,o),
(1481,40,o),
(1544,123,c),
(1528,148,l),
(1528,0,l),
(1716,0,l),
(1716,1446,l),
(1514,1446,l),
(1514,323,ls),
(1514,221,o),
(1456,142,o),
(1272,142,cs),
(1141,142,o),
(1065,192,o),
(1065,297,cs),
(1065,1446,l),
(863,1446,l),
(863,323,ls),
(863,221,o),
(798,142,o),
(614,142,cs),
(483,142,o),
(419,192,o),
(419,297,cs),
(419,1446,l),
(218,1446,l),
(218,290,ls),
(218,122,o),
(305,-20,o),
(566,-20,cs)
);
}
);
width = 1934;
},
{
layerId = "C6C96970-2BBD-4A47-8C90-C83F37B7F23D";
shapes = (
{
closed = 1;
nodes = (
(701,-23,o),
(810,32,o),
(888,110,c),
(943,18,o),
(1045,-23,o),
(1183,-23,cs),
(1377,-23,o),
(1487,69,o),
(1531,124,c),
(1500,141,l),
(1500,0,l),
(1772,0,l),
(1772,1476,l),
(1476,1476,l),
(1476,368,ls),
(1476,263,o),
(1373,210,o),
(1275,210,cs),
(1190,210,o),
(1127,232,o),
(1127,345,cs),
(1127,1476,l),
(831,1476,l),
(831,357,l),
(823,261,o),
(712,210,o),
(635,210,cs),
(551,210,o),
(486,232,o),
(486,345,cs),
(486,1476,l),
(190,1476,l),
(190,280,ls),
(190,99,o),
(325,-23,o),
(531,-23,cs)
);
}
);
width = 1962;
}
);
unicode = 412;
},
{
glyphname = N;
layers = (
{
anchors = (
{
name = bottom;
pos = (797,0);
},
{
name = top;
pos = (797,1446);
}
);
layerId = "F85E8FEC-B3CD-4A54-BF30-AB1986ECE904";
shapes = (
{
closed = 1;
nodes = (
(218,0,l),
(395,0,l),
(395,1149,l),
(369,1140,l),
(1197,0,l),
(1376,0,l),
(1376,1446,l),
(1199,1446,l),
(1199,245,l),
(1225,253,l),
(371,1446,l),
(218,1446,l)
);
}
);
width = 1594;
},
{
anchors = (
{
name = bottom;
pos = (817,0);
},
{
name = top;
pos = (817,1476);
}
);
layerId = "C6C96970-2BBD-4A47-8C90-C83F37B7F23D";
shapes = (
{
closed = 1;
nodes = (
(190,0,l),
(457,0,l),
(457,1041,l),
(430,1032,l),
(1221,0,l),
(1444,0,l),
(1444,1476,l),
(1180,1476,l),
(1180,419,l),
(1207,428,l),
(413,1476,l),
(190,1476,l)
);
}
);
width = 1634;
}
);
unicode = 78;
},
{
glyphname = Nhookleft;
layers = (
{
layerId = "F85E8FEC-B3CD-4A54-BF30-AB1986ECE904";
shapes = (
{
closed = 1;
nodes = (
(177,-373,o),
(395,-259,o),
(395,122,cs),
(395,1149,l),
(369,1140,l),
(1197,0,l),
(1376,0,l),
(1376,1446,l),
(1199,1446,l),
(1199,245,l),
(1225,253,l),
(371,1446,l),
(218,1446,l),
(218,115,ls),
(218,-132,o),
(112,-232,o),
(-111,-232,c),
(-83,-373,l)
);
}
);
width = 1594;
},
{
layerId = "C6C96970-2BBD-4A47-8C90-C83F37B7F23D";
shapes = (
{
closed = 1;
nodes = (
(287,-382,o),
(457,-278,o),
(457,162,cs),
(457,1041,l),
(430,1032,l),
(1221,0,l),
(1444,0,l),
(1444,1476,l),
(1180,1476,l),
(1180,419,l),
(1207,428,l),
(413,1476,l),
(190,1476,l),
(190,117,ls),
(190,-120,o),
(141,-169,o),
(-74,-192,c),
(-46,-382,l)
);
}
);
width = 1634;
}
);
unicode = 413;
},
{
glyphname = Nlongrightleg;
layers = (
{
layerId = "F85E8FEC-B3CD-4A54-BF30-AB1986ECE904";
shapes = (
{
closed = 1;
nodes = (
(212,0,l),
(413,0,l),
(413,1093,ls),
(413,1205,o),
(535,1304,o),
(772,1304,cs),
(944,1304,o),
(1077,1224,o),
(1077,1079,cs),
(1077,-408,l),
(1278,-408,l),
(1278,1086,ls),
(1278,1294,o),
(1158,1466,o),
(829,1466,cs),
(615,1466,o),
(488,1407,o),
(387,1306,c),
(408,1298,l),
(408,1446,l),
(212,1446,l)
);
}
);
width = 1490;
},
{
background = {
shapes = (
{
closed = 1;
nodes = (
(190,0,l),
(530,0,l),
(530,1014,ls),
(530,1159,o),
(669,1233,o),
(792,1233,cs),
(899,1233,o),
(1029,1198,o),
(1029,1041,cs),
(1029,0,l),
(1369,0,l),
(1369,1062,ls),
(1369,1311,o),
(1238,1515,o),
(955,1515,cs),
(681,1515,o),
(572,1397,o),
(530,1351,c),
(530,1481,l),
(190,1481,l)
);
}
);
};
layerId = "C6C96970-2BBD-4A47-8C90-C83F37B7F23D";
shapes = (
{
closed = 1;
nodes = (
(190,0,l),
(488,0,l),
(488,1031,ls),
(488,1175,o),
(611,1268,o),
(802,1268,cs),
(977,1268,o),
(1071,1212,o),
(1071,1079,cs),
(1071,-410,l),
(1369,-410,l),
(1369,1092,ls),
(1369,1313,o),
(1240,1500,o),
(923,1500,cs),
(644,1500,o),
(512,1409,o),
(453,1323,c),
(485,1336,l),
(485,1476,l),
(190,1476,l)
);
}
);
width = 1559;
}
);
unicode = 544;
},
{
glyphname = Eng;
layers = (
{
layerId = "F85E8FEC-B3CD-4A54-BF30-AB1986ECE904";
shapes = (
{
closed = 1;
nodes = (
(821,-373,l),
(1152,-373,o),
(1370,-259,o),
(1370,122,cs),
(1370,1446,l),
(1193,1446,l),
(1193,470,l),
(365,1446,l),
(212,1446,l),
(212,0,l),
(389,0,l),
(389,1104,l),
(1182,190,l),
(1182,115,ls),
(1182,-197,o),
(1037,-210,o),
(793,-232,c)
);
}
);
width = 1582;
},
{
layerId = "C6C96970-2BBD-4A47-8C90-C83F37B7F23D";
shapes = (
{
closed = 1;
nodes = (
(901,-382,l),
(1343,-382,o),
(1450,-219,o),
(1450,162,cs),
(1450,1477,l),
(1183,1477,l),
(1183,560,l),
(415,1477,l),
(190,1477,l),
(190,0,l),
(458,0,l),
(458,996,l),
(1177,153,l),
(1177,117,ls),
(1177,-159,o),
(1106,-171,o),
(873,-192,c)
);
}
);
width = 1640;
}
);
unicode = 330;
},
{
glyphname = O;
kernLeft = C;
kernRight = D;
layers = (
{
anchors = (
{
name = bottom;
pos = (773,0);
},
{
name = center;
pos = (773,723);
},
{
name = ogonek;
pos = (1043,10);
},
{
name = top;
pos = (773,1446);
},
{
name = topleft;
pos = (20,1446);
},
{
name = topright;
pos = (1001,1446);
}
);
layerId = "F85E8FEC-B3CD-4A54-BF30-AB1986ECE904";
shapes = (
{
closed = 1;
nodes = (
(1247,-22,o),
(1360,203,o),
(1360,500,cs),
(1360,928,ls),
(1360,1234,o),
(1249,1468,o),
(782,1468,cs),
(297,1468,o),
(186,1247,o),
(186,941,cs),
(186,486,ls),
(186,185,o),
(299,-22,o),
(782,-22,cs)
);
},
{
closed = 1;
nodes = (
(526,140,o),
(388,199,o),
(388,455,cs),
(388,978,ls),
(388,1235,o),
(528,1306,o),
(782,1306,cs),
(1038,1306,o),
(1159,1235,o),
(1159,978,cs),
(1159,455,ls),
(1159,199,o),
(1040,140,o),
(782,140,cs)
);
}
);
width = 1546;
},
{
anchors = (
{
name = bottom;
pos = (803,0);
},
{
name = center;
pos = (803,738);
},
{
name = ogonek;
pos = (1101,10);
},
{
name = top;
pos = (803,1476);
},
{
name = topleft;
pos = (20,1476);
},
{
name = topright;
pos = (1059,1476);
}
);
layerId = "C6C96970-2BBD-4A47-8C90-C83F37B7F23D";
shapes = (
{
closed = 1;
nodes = (
(1322,-26,o),
(1446,227,o),
(1446,517,cs),
(1446,948,ls),
(1446,1247,o),
(1324,1501,o),
(814,1501,cs),
(281,1501,o),
(160,1262,o),
(160,963,cs),
(160,501,ls),
(160,209,o),
(283,-26,o),
(814,-26,cs)
);
},
{
closed = 1;
nodes = (
(592,207,o),
(458,265,o),
(458,468,cs),
(458,1003,ls),
(458,1205,o),
(594,1268,o),
(814,1268,cs),
(1036,1268,o),
(1148,1201,o),
(1148,1003,cs),
(1148,468,ls),
(1148,266,o),
(1038,207,o),
(814,207,cs)
);
}
);
width = 1606;
}
);
unicode = 79;
},
{
glyphname = OU;
layers = (
{
layerId = "F85E8FEC-B3CD-4A54-BF30-AB1986ECE904";
shapes = (
{
closed = 1;
nodes = (
(1247,-22,o),
(1360,203,o),
(1360,460,cs),
(1360,478,ls),
(1360,744,o),
(1249,978,o),
(782,978,cs),
(297,978,o),
(186,757,o),
(186,491,cs),
(186,446,ls),
(186,185,o),
(299,-22,o),
(782,-22,cs)
);
},
{
closed = 1;
nodes = (
(526,140,o),
(388,199,o),
(388,415,cs),
(388,528,ls),
(388,745,o),
(528,816,o),
(782,816,cs),
(1038,816,o),
(1159,745,o),
(1159,528,cs),
(1159,415,ls),
(1159,199,o),
(1040,140,o),
(782,140,cs)
);
},
{
closed = 1;
nodes = (
(1159,1037,o),
(1040,978,o),
(782,978,cs),
(526,978,o),
(388,1037,o),
(388,1253,cs),
(388,1505,l),
(187,1505,l),
(187,1284,ls),
(187,1023,o),
(299,816,o),
(782,816,cs),
(1247,816,o),
(1359,1041,o),
(1359,1284,cs),
(1359,1505,l),
(1159,1505,l),
(1159,1253,ls)
);
}
);
width = 1546;
},
{
layerId = "C6C96970-2BBD-4A47-8C90-C83F37B7F23D";
shapes = (
{
closed = 1;
nodes = (
(1322,-26,o),
(1446,231,o),
(1446,491,cs),
(1446,512,ls),
(1446,781,o),
(1324,1031,o),
(814,1031,cs),
(281,1031,o),
(160,796,o),
(160,527,cs),
(160,475,ls),
(160,213,o),
(283,-26,o),
(814,-26,cs)
);
},
{
closed = 1;
nodes = (
(592,207,o),
(458,269,o),
(458,442,cs),
(458,567,ls),
(458,739,o),
(594,798,o),
(814,798,cs),
(1036,798,o),
(1148,735,o),
(1148,567,cs),
(1148,442,ls),
(1148,270,o),
(1038,207,o),
(814,207,cs)
);
},
{
closed = 1;
nodes = (
(1148,1090,o),
(1038,1031,o),
(814,1031,cs),
(592,1031,o),
(458,1089,o),
(458,1272,cs),
(458,1476,l),
(161,1476,l),
(161,1305,ls),
(161,1033,o),
(283,798,o),
(814,798,cs),
(1322,798,o),
(1445,1051,o),
(1445,1305,cs),
(1445,1476,l),
(1148,1476,l),
(1148,1272,ls)
);
}
);
width = 1606;
}
);
unicode = 546;
},
{
glyphname = Ocenteredtilde;
kernLeft = C;
kernRight = D;
layers = (
{
layerId = "F85E8FEC-B3CD-4A54-BF30-AB1986ECE904";
shapes = (
{
closed = 1;
nodes = (
(290,661,l),
(1250,661,l),
(1250,805,l),
(290,805,l)
);
},
{
ref = O;
}
);
width = 1546;
},
{
layerId = "C6C96970-2BBD-4A47-8C90-C83F37B7F23D";
shapes = (
{
closed = 1;
nodes = (
(330,653,l),
(1276,653,l),
(1276,843,l),
(330,843,l)
);
},
{
ref = O;
}
);
width = 1606;
}
);
unicode = 415;
},
{
glyphname = Ohorn;
kernLeft = C;
kernRight = D;
layers = (
{
layerId = "F85E8FEC-B3CD-4A54-BF30-AB1986ECE904";
shapes = (
{
closed = 1;
nodes = (
(1247,-22,o),
(1360,203,o),
(1360,500,cs),
(1360,928,ls),
(1360,1234,o),
(1249,1468,o),
(782,1468,cs),
(297,1468,o),
(186,1247,o),
(186,941,cs),
(186,486,ls),
(186,185,o),
(299,-22,o),
(782,-22,cs)
);
},
{
closed = 1;
nodes = (
(526,140,o),
(388,199,o),
(388,455,cs),
(388,978,ls),
(388,1235,o),
(528,1306,o),
(782,1306,cs),
(1038,1306,o),
(1159,1235,o),
(1159,978,cs),
(1159,455,ls),
(1159,199,o),
(1040,140,o),
(782,140,cs)
);
},
{
closed = 1;
nodes = (
(951,1302,l),
(1081,1302,ls),
(1271,1302,o),
(1385,1407,o),
(1385,1591,cs),
(1385,1715,l),
(1197,1715,l),
(1197,1574,ls),
(1197,1493,o),
(1147,1446,o),
(1081,1446,cs),
(951,1446,l)
);
}
);
width = 1546;
},
{
layerId = "C6C96970-2BBD-4A47-8C90-C83F37B7F23D";
shapes = (
{
closed = 1;
nodes = (
(1322,-26,o),
(1446,227,o),
(1446,517,cs),
(1446,948,ls),
(1446,1247,o),
(1324,1501,o),
(814,1501,cs),
(281,1501,o),
(160,1262,o),
(160,963,cs),
(160,501,ls),
(160,209,o),
(283,-26,o),
(814,-26,cs)
);
},
{
closed = 1;
nodes = (
(592,207,o),
(458,265,o),
(458,468,cs),
(458,1003,ls),
(458,1205,o),
(594,1268,o),
(814,1268,cs),
(1036,1268,o),
(1148,1201,o),
(1148,1003,cs),
(1148,468,ls),
(1148,266,o),
(1038,207,o),
(814,207,cs)
);
},
{
closed = 1;
nodes = (
(1019,1282,l),
(1149,1282,ls),
(1339,1282,o),
(1493,1387,o),
(1493,1621,cs),
(1493,1745,l),
(1270,1745,l),
(1270,1604,ls),
(1270,1523,o),
(1215,1476,o),
(1149,1476,cs),
(1019,1476,l)
);
}
);
width = 1606;
}
);
unicode = 416;
},
{
glyphname = "Omega-latin";
layers = (
{
background = {
shapes = (
{
pos = (8,0);
ref = M;
}
);
};
layerId = "F85E8FEC-B3CD-4A54-BF30-AB1986ECE904";
shapes = (
{
closed = 1;
nodes = (
(764,-22,o),
(860,22,o),
(915,124,c),
(878,124,l),
(933,22,o),
(1030,-22,o),
(1218,-22,cs),
(1532,-22,o),
(1608,109,o),
(1608,315,cs),
(1608,1118,ls),
(1608,1314,o),
(1507,1456,o),
(1220,1456,c),
(1220,1291,l),
(1348,1291,o),
(1406,1244,o),
(1406,1113,cs),
(1406,297,ls),
(1406,196,o),
(1348,140,o),
(1199,140,cs),
(1055,140,o),
(997,196,o),
(997,307,cs),
(997,808,l),
(795,808,l),
(795,307,ls),
(795,196,o),
(739,140,o),
(595,140,cs),
(444,140,o),
(388,196,o),
(388,297,cs),
(388,1113,ls),
(388,1244,o),
(444,1291,o),
(574,1291,c),
(574,1456,l),
(286,1456,o),
(186,1314,o),
(186,1118,cs),
(186,315,ls),
(186,109,o),
(261,-22,o),
(575,-22,cs)
);
}
);
width = 1794;
},
{
background = {
shapes = (
{
pos = (10,0);
ref = M;
}
);
};
layerId = "C6C96970-2BBD-4A47-8C90-C83F37B7F23D";
shapes = (
{
closed = 1;
nodes = (
(819,-22,o),
(912,22,o),
(965,144,c),
(929,144,l),
(982,22,o),
(1075,-22,o),
(1306,-22,cs),
(1650,-22,o),
(1734,109,o),
(1734,295,cs),
(1734,1128,ls),
(1734,1324,o),
(1601,1486,o),
(1235,1486,c),
(1235,1260,l),
(1372,1260,o),
(1436,1213,o),
(1436,1102,cs),
(1436,328,ls),
(1436,257,o),
(1398,211,o),
(1266,211,cs),
(1137,211,o),
(1096,257,o),
(1096,338,cs),
(1096,857,l),
(798,857,l),
(798,338,ls),
(798,257,o),
(757,211,o),
(633,211,cs),
(506,211,o),
(458,257,o),
(458,328,cs),
(458,1102,ls),
(458,1213,o),
(523,1260,o),
(659,1260,c),
(659,1486,l),
(293,1486,o),
(160,1324,o),
(160,1128,cs),
(160,295,ls),
(160,109,o),
(245,-22,o),
(589,-22,cs)
);
}
);
width = 1894;
}
);
unicode = 42934;
},
{
glyphname = Oopen;
layers = (
{
layerId = "F85E8FEC-B3CD-4A54-BF30-AB1986ECE904";
shapes = (
{
closed = 1;
nodes = (
(1178,-22,o),
(1274,185,o),
(1274,486,cs),
(1274,940,ls),
(1274,1246,o),
(1182,1468,o),
(697,1468,cs),
(259,1468,o),
(156,1308,o),
(156,1010,cs),
(156,997,l),
(347,980,l),
(347,1007,ls),
(347,1269,o),
(439,1306,o),
(697,1306,cs),
(951,1306,o),
(1072,1234,o),
(1072,977,cs),
(1072,455,ls),
(1072,199,o),
(947,140,o),
(691,140,cs),
(440,140,o),
(347,165,o),
(347,424,cs),
(347,448,l),
(156,448,l),
(156,438,ls),
(156,147,o),
(235,-22,o),
(695,-22,cs)
);
}
);
width = 1456;
},
{
layerId = "C6C96970-2BBD-4A47-8C90-C83F37B7F23D";
shapes = (
{
closed = 1;
nodes = (
(1236,-26,o),
(1330,193,o),
(1330,484,cs),
(1330,977,ls),
(1330,1275,o),
(1239,1501,o),
(710,1501,cs),
(206,1501,o),
(128,1281,o),
(128,983,cs),
(128,965,l),
(419,931,l),
(419,1006,ls),
(419,1213,o),
(485,1268,o),
(710,1268,cs),
(930,1268,o),
(1033,1215,o),
(1033,1012,cs),
(1033,454,ls),
(1033,252,o),
(931,207,o),
(709,207,cs),
(484,207,o),
(419,250,o),
(419,460,cs),
(419,507,l),
(128,507,l),
(128,480,ls),
(128,190,o),
(198,-26,o),
(710,-26,cs)
);
}
);
width = 1490;
}
);
unicode = 390;
},
{
glyphname = Oslash;
kernLeft = C;
kernRight = D;
layers = (
{
anchors = (
{
name = top;
pos = (791,1446);
}
);
layerId = "F85E8FEC-B3CD-4A54-BF30-AB1986ECE904";
shapes = (
{
closed = 1;
nodes = (
(479,-195,l),
(1158,1638,l),
(1054,1676,l),
(376,-157,l)
);
},
{
ref = O;
}
);
width = 1546;
},
{
anchors = (
{
name = top;
pos = (803,1476);
}
);
background = {
shapes = (
{
closed = 1;
nodes = (
(504,-217,l),
(1227,1675,l),
(1140,1698,l),
(417,-194,l)
);
}
);
};
layerId = "C6C96970-2BBD-4A47-8C90-C83F37B7F23D";
shapes = (
{
closed = 1;
nodes = (
(528,-195,l),
(1227,1638,l),
(1123,1676,l),
(425,-157,l)
);
},
{
ref = O;
}
);
width = 1606;
}
);
unicode = 216;
},
{
glyphname = OE;
layers = (
{
anchors = (
{
name = bottom;
pos = (881,0);
},
{
name = top;
pos = (881,1446);
}
);
background = {
shapes = (
{
closed = 1;
nodes = (
(1399,150,l),
(976,150,l),
(976,664,l),
(1329,664,l),
(1329,814,l),
(976,814,l),
(976,1296,l),
(1390,1296,l),
(1390,1446,l),
(775,1446,ls),
(497,1446,o),
(357,1349,qs),
(183,1229,o),
(183,918,qs),
(183,510,ls),
(182,317,o),
(252,201,qs),
(372,0,o),
(775,0,qs),
(1399,0,l)
);
},
{
closed = 1;
nodes = (
(385,296,o),
(385,479,qs),
(385,955,ls),
(385,1139,o),
(572,1295,o),
(764,1295,qs),
(775,1295,l),
(775,150,l),
(765,150,ls),
(569,150,o)
);
}
);
};
layerId = "F85E8FEC-B3CD-4A54-BF30-AB1986ECE904";
shapes = (
{
closed = 1;
nodes = (
(183,209,o),
(292,0,o),
(775,0,cs),
(1409,0,l),
(1409,150,l),
(986,150,l),
(986,664,l),
(1339,664,l),
(1339,814,l),
(986,814,l),
(986,1296,l),
(1400,1296,l),
(1400,1446,l),
(775,1446,ls),
(290,1446,o),
(183,1224,o),
(183,918,cs),
(183,510,ls)
);
},
{
closed = 1;
nodes = (
(765,150,ls),
(516,150,o),
(385,226,o),
(385,479,cs),
(385,955,ls),
(385,1208,o),
(517,1295,o),
(764,1295,cs),
(785,1295,l),
(785,150,l)
);
}
);
width = 1567;
},
{
anchors = (
{
name = bottom;
pos = (898,0);
},
{
name = top;
pos = (898,1476);
}
);
background = {
shapes = (
{
closed = 1;
nodes = (
(430,444,qs),
(430,1022,ls),
(430,1279,o),
(713,1279,qs),
(886,1279,l),
(886,191,l),
(714,191,ls),
(430,191,o)
);
},
{
closed = 1;
nodes = (
(1507,190,l),
(1156,190,l),
(1156,665,l),
(1422,665,l),
(1422,858,l),
(1156,858,l),
(1156,1287,l),
(1505,1287,l),
(1505,1476,l),
(717,1476,ls),
(459,1476,o),
(325,1377,qs),
(160,1255,o),
(160,958,qs),
(160,506,ls),
(160,318,o),
(226,201,qs),
(340,0,o),
(717,0,qs),
(1507,0,l)
);
}
);
};
layerId = "C6C96970-2BBD-4A47-8C90-C83F37B7F23D";
shapes = (
{
closed = 1;
nodes = (
(160,211,o),
(266,0,o),
(717,0,cs),
(1608,0,l),
(1608,224,l),
(1180,224,l),
(1180,645,l),
(1523,645,l),
(1523,858,l),
(1180,858,l),
(1180,1252,l),
(1606,1252,l),
(1606,1476,l),
(717,1476,ls),
(264,1476,o),
(160,1247,o),
(160,958,cs),
(160,506,ls)
);
},
{
closed = 1;
nodes = (
(742,225,ls),
(522,225,o),
(458,336,o),
(458,478,cs),
(458,987,ls),
(458,1130,o),
(523,1244,o),
(741,1244,cs),
(886,1244,l),
(886,225,l)
);
}
);
width = 1734;
}
);
unicode = 338;
},
{
glyphname = P;
kernRight = P;
layers = (
{
anchors = (
{
name = top;
pos = (686,1446);
}
);
layerId = "F85E8FEC-B3CD-4A54-BF30-AB1986ECE904";
shapes = (
{
closed = 1;
nodes = (
(218,0,l),
(420,0,l),
(420,529,l),
(793,529,ls),
(1039,529,o),
(1198,645,o),
(1198,991,cs),
(1198,1320,o),
(1039,1446,o),
(796,1446,cs),
(218,1446,l)
);
},
{
closed = 1;
nodes = (
(420,682,l),
(420,1293,l),
(802,1293,ls),
(983,1293,o),
(996,1118,o),
(996,977,cs),
(996,828,o),
(972,682,o),
(797,682,cs)
);
}
);
width = 1326;
},
{
anchors = (
{
name = top;
pos = (686,1476);
}
);
layerId = "C6C96970-2BBD-4A47-8C90-C83F37B7F23D";
shapes = (
{
closed = 1;
nodes = (
(190,0,l),
(487,0,l),
(487,509,l),
(740,509,ls),
(1126,509,o),
(1250,663,o),
(1250,1005,cs),
(1250,1338,o),
(1093,1476,o),
(769,1476,cs),
(190,1476,l)
);
},
{
closed = 1;
nodes = (
(487,726,l),
(487,1265,l),
(797,1265,ls),
(937,1265,o),
(972,1145,o),
(972,990,cs),
(972,813,o),
(937,726,o),
(787,726,cs)
);
}
);
width = 1336;
}
);
unicode = 80;
},
{
glyphname = Phook;
kernRight = P;
layers = (
{
layerId = "F85E8FEC-B3CD-4A54-BF30-AB1986ECE904";
shapes = (
{
closed = 1;
nodes = (
(172,1108,ls),
(172,1235,o),
(208,1295,o),
(349,1295,c),
(370,1446,l),
(102,1446,o),
(-20,1356,o),
(-20,1134,cs),
(-20,1078,l),
(172,1065,l)
);
},
{
pos = (131,0);
ref = P;
}
);
width = 1457;
},
{
layerId = "C6C96970-2BBD-4A47-8C90-C83F37B7F23D";
shapes = (
{
closed = 1;
nodes = (
(216,1108,ls),
(216,1227,o),
(260,1273,o),
(387,1273,c),
(418,1476,l),
(68,1476,o),
(-24,1375,o),
(-24,1122,cs),
(-24,1038,l),
(216,1028,l)
);
},
{
pos = (197,0);
ref = P;
}
);
width = 1533;
}
);
metricRight = P;
unicode = 420;
},
{
glyphname = Thorn;
kernRight = P;
layers = (
{
layerId = "F85E8FEC-B3CD-4A54-BF30-AB1986ECE904";
shapes = (
{
closed = 1;
nodes = (
(212,0,l),
(414,0,l),
(414,331,l),
(787,331,ls),
(1033,331,o),
(1192,427,o),
(1192,773,cs),
(1192,1102,o),
(1031,1208,o),
(788,1208,cs),
(414,1208,l),
(414,1446,l),
(212,1446,l)
);
},
{
closed = 1;
nodes = (
(414,484,l),
(414,1055,l),
(794,1055,ls),
(975,1055,o),
(990,900,o),
(990,759,cs),
(990,610,o),
(966,484,o),
(791,484,cs)
);
}
);
width = 1320;
},
{
layerId = "C6C96970-2BBD-4A47-8C90-C83F37B7F23D";
shapes = (
{
closed = 1;
nodes = (
(216,0,l),
(513,0,l),
(513,356,l),
(778,356,ls),
(1164,356,o),
(1272,469,o),
(1272,811,cs),
(1272,1143,o),
(1133,1240,o),
(806,1240,cs),
(513,1240,l),
(513,1476,l),
(216,1476,l)
);
},
{
closed = 1;
nodes = (
(513,567,l),
(513,1033,l),
(834,1033,ls),
(974,1033,o),
(1004,951,o),
(1004,797,cs),
(1004,619,o),
(975,567,o),
(825,567,cs)
);
}
);
width = 1362;
}
);
unicode = 222;
},
{
glyphname = Pstroke;
kernRight = P;
layers = (
{
layerId = "F85E8FEC-B3CD-4A54-BF30-AB1986ECE904";
shapes = (
{
closed = 1;
nodes = (
(30,918,l),
(701,918,l),
(701,1062,l),
(30,1062,l)
);
},
{
ref = P;
}
);
width = 1326;
},
{
layerId = "C6C96970-2BBD-4A47-8C90-C83F37B7F23D";
shapes = (
{
closed = 1;
nodes = (
(30,903,l),
(726,903,l),
(726,1093,l),
(30,1093,l)
);
},
{
ref = P;
}
);
width = 1336;
}
);
unicode = 11363;
},
{
glyphname = Q;
kernLeft = C;
kernRight = D;
layers = (
{
layerId = "F85E8FEC-B3CD-4A54-BF30-AB1986ECE904";
shapes = (
{
closed = 1;
nodes = (
(1085,-308,l),
(895,-17,l),
(1266,18,o),
(1360,229,o),
(1360,500,cs),
(1360,928,ls),
(1360,1234,o),
(1249,1468,o),
(782,1468,cs),
(297,1468,o),
(186,1247,o),
(186,941,cs),
(186,486,ls),
(186,200,o),
(288,-2,o),
(714,-21,c),
(944,-384,l)
);
},
{
closed = 1;
nodes = (
(526,140,o),
(388,199,o),
(388,455,cs),
(388,978,ls),
(388,1235,o),
(528,1306,o),
(782,1306,cs),
(1038,1306,o),
(1159,1235,o),
(1159,978,cs),
(1159,455,ls),
(1159,199,o),
(1040,140,o),
(782,140,cs)
);
}
);
width = 1542;
},
{
layerId = "C6C96970-2BBD-4A47-8C90-C83F37B7F23D";
shapes = (
{
closed = 1;
nodes = (
(1207,-418,l),
(954,-19,l),
(1345,25,o),
(1446,256,o),
(1446,517,cs),
(1446,948,ls),
(1446,1247,o),
(1324,1501,o),
(814,1501,cs),
(281,1501,o),
(160,1262,o),
(160,963,cs),
(160,501,ls),
(160,234,o),
(263,14,o),
(688,-21,c),
(1010,-534,l)
);
},
{
closed = 1;
nodes = (
(592,207,o),
(458,265,o),
(458,468,cs),
(458,1003,ls),
(458,1205,o),
(594,1268,o),
(814,1268,cs),
(1036,1268,o),
(1148,1201,o),
(1148,1003,cs),
(1148,468,ls),
(1148,266,o),
(1038,207,o),
(814,207,cs)
);
}
);
width = 1606;
}
);
unicode = 81;
},
{
glyphname = Qhooktail;
layers = (
{
background = {
shapes = (
{
closed = 1;
nodes = (
(905,-22,o),
(1048,23,o),
(1213,159,c),
(1140,-197,l),
(1184,-332,o),
(1213,-408,o),
(1404,-408,cs),
(1456,-408,l),
(1480,-256,l),
(1356,-256,o),
(1335,-229,o),
(1335,-77,cs),
(1335,1446,l),
(1143,1446,l),
(1143,1286,l),
(1153,1311,l),
(1096,1392,o),
(964,1473,o),
(741,1473,cs),
(377,1473,o),
(186,1285,o),
(186,995,cs),
(186,437,ls),
(186,139,o),
(363,-22,o),
(721,-22,cs)
);
},
{
closed = 1;
nodes = (
(506,141,o),
(388,231,o),
(388,419,cs),
(388,1016,ls),
(388,1192,o),
(504,1306,o),
(761,1306,cs),
(1039,1306,o),
(1133,1188,o),
(1133,1056,cs),
(1133,255,l),
(1085,211,o),
(975,141,o),
(764,141,cs)
);
}
);
};
layerId = "F85E8FEC-B3CD-4A54-BF30-AB1986ECE904";
shapes = (
{
closed = 1;
nodes = (
(905,-22,o),
(1048,23,o),
(1213,159,c),
(1140,185,l),
(1140,-117,ls),
(1140,-311,o),
(1213,-408,o),
(1404,-408,cs),
(1456,-408,l),
(1480,-256,l),
(1356,-256,o),
(1335,-229,o),
(1335,-77,cs),
(1335,1446,l),
(1143,1446,l),
(1143,1286,l),
(1153,1311,l),
(1096,1392,o),
(964,1473,o),
(741,1473,cs),
(377,1473,o),
(186,1285,o),
(186,995,cs),
(186,437,ls),
(186,139,o),
(363,-22,o),
(721,-22,cs)
);
},
{
closed = 1;
nodes = (
(506,141,o),
(388,231,o),
(388,419,cs),
(388,1016,ls),
(388,1192,o),
(504,1306,o),
(761,1306,cs),
(1039,1306,o),
(1133,1188,o),
(1133,1056,cs),
(1133,255,l),
(1085,211,o),
(975,141,o),
(764,141,cs)
);
}
);
width = 1546;
},
{
background = {
shapes = (
{
closed = 1;
nodes = (
(914,-23,o),
(1043,17,o),
(1186,156,c),
(1081,-197,l),
(1110,-355,o),
(1209,-410,o),
(1400,-410,cs),
(1473,-410,l),
(1485,-185,l),
(1399,-185,o),
(1376,-157,o),
(1376,-63,cs),
(1376,1476,l),
(1117,1476,l),
(1071,1313,l),
(1112,1368,l),
(1034,1452,o),
(885,1500,o),
(716,1500,cs),
(331,1500,o),
(160,1289,o),
(160,1018,cs),
(160,472,ls),
(160,176,o),
(351,-23,o),
(733,-23,cs)
);
},
{
closed = 1;
nodes = (
(595,207,o),
(458,287,o),
(458,446,cs),
(458,1016,ls),
(458,1188,o),
(590,1267,o),
(801,1267,cs),
(1000,1267,o),
(1078,1211,o),
(1078,1181,cs),
(1078,276,l),
(1024,242,o),
(924,207,o),
(767,207,cs)
);
}
);
};
layerId = "C6C96970-2BBD-4A47-8C90-C83F37B7F23D";
shapes = (
{
closed = 1;
nodes = (
(914,-23,o),
(1043,17,o),
(1186,156,c),
(1081,175,l),
(1081,-147,ls),
(1081,-325,o),
(1181,-410,o),
(1400,-410,cs),
(1473,-410,l),
(1485,-185,l),
(1399,-185,o),
(1376,-157,o),
(1376,-63,cs),
(1376,1476,l),
(1117,1476,l),
(1071,1313,l),
(1112,1368,l),
(1034,1452,o),
(885,1500,o),
(716,1500,cs),
(331,1500,o),
(160,1289,o),
(160,1018,cs),
(160,472,ls),
(160,176,o),
(351,-23,o),
(733,-23,cs)
);
},
{
closed = 1;
nodes = (
(595,207,o),
(458,287,o),
(458,446,cs),
(458,1016,ls),
(458,1188,o),
(590,1267,o),
(801,1267,cs),
(1000,1267,o),
(1078,1211,o),
(1078,1181,cs),
(1078,276,l),
(1024,242,o),
(924,207,o),
(767,207,cs)
);
}
);
width = 1595;
}
);
unicode = 586;
},
{
glyphname = R;
kernRight = R;
layers = (
{
anchors = (
{
name = bottom;
pos = (732,0);
},
{
name = top;
pos = (703,1446);
}
);
layerId = "F85E8FEC-B3CD-4A54-BF30-AB1986ECE904";
shapes = (
{
closed = 1;
nodes = (
(420,0,l),
(420,600,l),
(876,600,l),
(1163,0,l),
(1370,0,l),
(1063,636,l),
(1184,687,o),
(1267,784,o),
(1267,1018,cs),
(1267,1341,o),
(1106,1446,o),
(863,1446,cs),
(218,1446,l),
(218,0,l)
);
},
{
closed = 1;
nodes = (
(420,1293,l),
(869,1293,ls),
(1050,1293,o),
(1065,1139,o),
(1065,1000,cs),
(1065,861,o),
(1021,752,o),
(846,752,cs),
(420,752,l)
);
}
);
width = 1464;
},
{
anchors = (
{
name = bottom;
pos = (742,0);
},
{
name = top;
pos = (724,1476);
}
);
layerId = "C6C96970-2BBD-4A47-8C90-C83F37B7F23D";
shapes = (
{
closed = 1;
nodes = (
(487,0,l),
(487,583,l),
(821,583,l),
(1080,0,l),
(1388,0,l),
(1103,626,l),
(1283,699,o),
(1320,853,o),
(1320,1035,cs),
(1320,1301,o),
(1219,1476,o),
(827,1476,cs),
(190,1476,l),
(190,0,l)
);
},
{
closed = 1;
nodes = (
(487,1265,l),
(864,1265,ls),
(1011,1265,o),
(1036,1142,o),
(1036,1022,cs),
(1036,896,o),
(1004,795,o),
(852,795,cs),
(487,795,l)
);
}
);
width = 1484;
}
);
unicode = 82;
},
{
glyphname = Rstroke;
kernRight = R;
layers = (
{
layerId = "F85E8FEC-B3CD-4A54-BF30-AB1986ECE904";
shapes = (
{
closed = 1;
nodes = (
(30,603,l),
(701,603,l),
(701,747,l),
(30,747,l)
);
},
{
ref = R;
}
);
width = 1464;
},
{
layerId = "C6C96970-2BBD-4A47-8C90-C83F37B7F23D";
shapes = (
{
closed = 1;
nodes = (
(30,593,l),
(726,593,l),
(726,783,l),
(30,783,l)
);
},
{
ref = R;
}
);
width = 1484;
}
);
unicode = 588;
},
{
glyphname = Rtail;
kernRight = R;
layers = (
{
layerId = "F85E8FEC-B3CD-4A54-BF30-AB1986ECE904";
shapes = (
{
closed = 1;
nodes = (
(599,-408,l),
(612,-256,l),
(579,-256,ls),
(459,-256,o),
(420,-216,o),
(420,-69,cs),
(420,600,l),
(876,600,l),
(1163,0,l),
(1370,0,l),
(1063,636,l),
(1184,687,o),
(1267,784,o),
(1267,1018,cs),
(1267,1341,o),
(1106,1446,o),
(863,1446,cs),
(218,1446,l),
(218,-76,ls),
(218,-315,o),
(321,-408,o),
(532,-408,cs)
);
},
{
closed = 1;
nodes = (
(420,1293,l),
(869,1293,ls),
(1050,1293,o),
(1065,1139,o),
(1065,1000,cs),
(1065,861,o),
(1021,752,o),
(846,752,cs),
(420,752,l)
);
}
);
width = 1464;
},
{
layerId = "C6C96970-2BBD-4A47-8C90-C83F37B7F23D";
shapes = (
{
closed = 1;
nodes = (
(623,-410,l),
(633,-185,l),
(603,-185,ls),
(524,-185,o),
(487,-141,o),
(487,-44,cs),
(487,583,l),
(821,583,l),
(1080,0,l),
(1388,0,l),
(1103,626,l),
(1283,699,o),
(1320,853,o),
(1320,1035,cs),
(1320,1301,o),
(1219,1476,o),
(827,1476,cs),
(190,1476,l),
(190,-76,ls),
(190,-299,o),
(313,-410,o),
(529,-410,cs)
);
},
{
closed = 1;
nodes = (
(487,1265,l),
(864,1265,ls),
(1011,1265,o),
(1036,1142,o),
(1036,1022,cs),
(1036,896,o),
(1004,795,o),
(852,795,cs),
(487,795,l)
);
}
);
width = 1484;
}
);
unicode = 11364;
},
{
glyphname = S;
kernLeft = S;
layers = (
{
anchors = (
{
name = bottom;
pos = (667,0);
},
{
name = top;
pos = (683,1446);
}
);
background = {
shapes = (
{
closed = 1;
nodes = (
(691,-22,cs),
(1027.25,-22,o),
(1164.39,138.537,o),
(1164.39,405.635,cs),
(1164.39,625.081,o),
(1075.51,717.532,o),
(879,784,cs),
(515,907,ls),
(370.846,955.387,o),
(360.367,1017.73,o),
(368,1137,cs),
(376,1260,o),
(492,1306,o),
(691,1306,cs),
(879,1306,o),
(1005,1257,o),
(1092,1210,c),
(1141,1367,l),
(1048,1425,o),
(903,1468,o),
(656,1468,cs),
(378.94,1468,o),
(171.458,1366.33,o),
(171.458,1089.32,cs),
(171.458,891.506,o),
(253.401,801.896,o),
(453,736,cs),
(802,620,l),
(948.604,572.904,o),
(978.077,518.308,o),
(978.077,437.363,cs),
(978.077,228.745,o),
(922.263,140,o),
(687,140,cs),
(510,140,o),
(325,202,o),
(215,267,c),
(144,113,l),
(296,25,o),
(476,-22,o)
);
}
);
};
layerId = "F85E8FEC-B3CD-4A54-BF30-AB1986ECE904";
shapes = (
{
closed = 1;
nodes = (
(1027,-22,o),
(1164,139,o),
(1164,406,cs),
(1164,625,o),
(1076,717,o),
(879,784,cs),
(515,907,ls),
(392,949,o),
(366,1000,o),
(366,1088,cs),
(366,1269,o),
(482,1306,o),
(691,1306,cs),
(879,1306,o),
(1005,1257,o),
(1092,1210,c),
(1141,1367,l),
(1048,1425,o),
(903,1468,o),
(656,1468,cs),
(379,1468,o),
(171,1366,o),
(171,1089,cs),
(171,892,o),
(253,802,o),
(453,736,cs),
(802,620,ls),
(949,571,o),
(978,518,o),
(978,437,cs),
(978,229,o),
(922,140,o),
(687,140,cs),
(510,140,o),
(325,202,o),
(215,267,c),
(144,113,l),
(296,25,o),
(476,-22,o),
(691,-22,cs)
);
}
);
width = 1304;
},
{
anchors = (
{
name = bottom;
pos = (644,0);
},
{
name = top;
pos = (670,1476);
}
);
layerId = "C6C96970-2BBD-4A47-8C90-C83F37B7F23D";
shapes = (
{
closed = 1;
nodes = (
(1025,-26,o),
(1169,172,o),
(1169,422,cs),
(1169,654,o),
(1069,777,o),
(870,837,cs),
(619,912,ls),
(470,957,o),
(428,1003,o),
(428,1104,cs),
(428,1231,o),
(524,1268,o),
(675,1268,cs),
(819,1268,o),
(949,1229,o),
(1059,1177,c),
(1143,1386,l),
(1007,1465,o),
(844,1501,o),
(649,1501,cs),
(358,1501,o),
(136,1369,o),
(136,1094,cs),
(136,905,o),
(201,752,o),
(442,681,cs),
(694,607,ls),
(871,555,o),
(898,493,o),
(898,412,cs),
(898,291,o),
(862,207,o),
(681,207,cs),
(498,207,o),
(335,265,o),
(222,325,c),
(120,108,l),
(268,25,o),
(487,-26,o),
(688,-26,cs)
);
}
);
width = 1281;
}
);
unicode = 83;
},
{
glyphname = Germandbls;
layers = (
{
layerId = "F85E8FEC-B3CD-4A54-BF30-AB1986ECE904";
shapes = (
{
closed = 1;
nodes = (
(413,0,l),
(413,1021,ls),
(413,1202,o),
(504,1281,o),
(711,1281,cs),
(1125,1281,l),
(1092,1322,l),
(766,800,l),
(766,696,l),
(879,696,ls),
(1070,696,o),
(1158,608,o),
(1158,417,cs),
(1158,231,o),
(1077,165,o),
(849,165,cs),
(632,165,l),
(632,0,l),
(852,0,ls),
(1194,0,o),
(1356,131,o),
(1356,408,cs),
(1356,673,o),
(1208,822,o),
(933,836,c),
(938,738,l),
(1288,1295,l),
(1288,1446,l),
(732,1446,ls),
(367,1446,o),
(212,1318,o),
(212,1017,cs),
(212,0,l)
);
}
);
width = 1484;
},
{
background = {
shapes = (
{
closed = 1;
nodes = (
(190,0,l),
(488,0,l),
(488,615,l),
(1136,615,l),
(1136,0,l),
(1434,0,l),
(1434,1476,l),
(1136,1476,l),
(1136,848,l),
(488,848,l),
(488,1476,l),
(190,1476,l)
);
}
);
};
layerId = "C6C96970-2BBD-4A47-8C90-C83F37B7F23D";
shapes = (
{
closed = 1;
nodes = (
(488,0,l),
(488,1022,ls),
(488,1197,o),
(561,1260,o),
(762,1260,cs),
(1083,1260,l),
(1062,1298,l),
(762,827,l),
(762,622,l),
(874,622,ls),
(1093,622,o),
(1147,582,o),
(1147,419,cs),
(1147,256,o),
(1093,216,o),
(874,216,cs),
(641,216,l),
(641,0,l),
(929,0,ls),
(1278,0,o),
(1443,133,o),
(1443,415,cs),
(1443,667,o),
(1311,798,o),
(1032,823,c),
(1047,781,l),
(1374,1297,l),
(1374,1476,l),
(743,1476,ls),
(350,1476,o),
(190,1349,o),
(190,1038,cs),
(190,0,l)
);
}
);
width = 1555;
}
);
unicode = 7838;
},
{
glyphname = Sobliquestroke;
kernLeft = S;
layers = (
{
layerId = "F85E8FEC-B3CD-4A54-BF30-AB1986ECE904";
shapes = (
{
closed = 1;
nodes = (
(190,444,l),
(1141,884,l),
(1141,1038,l),
(190,598,l)
);
},
{
ref = S;
}
);
width = 1304;
},
{
layerId = "C6C96970-2BBD-4A47-8C90-C83F37B7F23D";
shapes = (
{
closed = 1;
nodes = (
(160,404,l),
(1169,894,l),
(1169,1093,l),
(160,603,l)
);
},
{
ref = S;
}
);
width = 1281;
}
);
unicode = 42920;
},
{
glyphname = T;
kernLeft = T;
kernRight = T;
layers = (
{
anchors = (
{
name = bottom;
pos = (602,0);
},
{
name = mid;
pos = (603,753);
},
{
name = top;
pos = (614,1446);
}
);
layerId = "F85E8FEC-B3CD-4A54-BF30-AB1986ECE904";
shapes = (
{
closed = 1;
nodes = (
(702,0,l),
(702,1281,l),
(1120,1281,l),
(1120,1446,l),
(84,1446,l),
(84,1281,l),
(501,1281,l),
(501,0,l)
);
}
);
width = 1204;
},
{
anchors = (
{
name = bottom;
pos = (595,0);
},
{
name = mid;
pos = (603,762);
},
{
name = top;
pos = (601,1476);
}
);
layerId = "C6C96970-2BBD-4A47-8C90-C83F37B7F23D";
shapes = (
{
closed = 1;
nodes = (
(745,0,l),
(745,1250,l),
(1156,1250,l),
(1156,1476,l),
(38,1476,l),
(38,1250,l),
(449,1250,l),
(449,0,l)
);
}
);
width = 1194;
}
);
unicode = 84;
},
{
glyphname = Tbar;
kernLeft = T;
kernRight = T;
layers = (
{
layerId = "F85E8FEC-B3CD-4A54-BF30-AB1986ECE904";
shapes = (
{
closed = 1;
nodes = (
(249,648,l),
(945,648,l),
(945,792,l),
(249,792,l)
);
},
{
ref = T;
}
);
width = 1204;
},
{
layerId = "C6C96970-2BBD-4A47-8C90-C83F37B7F23D";
shapes = (
{
closed = 1;
nodes = (
(249,621,l),
(945,621,l),
(945,811,l),
(249,811,l)
);
},
{
ref = T;
}
);
width = 1194;
}
);
unicode = 358;
},
{
glyphname = Tdiagonalstroke;
layers = (
{
layerId = "F85E8FEC-B3CD-4A54-BF30-AB1986ECE904";
shapes = (
{
closed = 1;
nodes = (
(399,-245,l),
(1078,1588,l),
(974,1626,l),
(296,-207,l)
);
},
{
ref = T;
}
);
width = 1204;
},
{
layerId = "C6C96970-2BBD-4A47-8C90-C83F37B7F23D";
shapes = (
{
closed = 1;
nodes = (
(418,-195,l),
(1117,1638,l),
(1013,1676,l),
(315,-157,l)
);
},
{
ref = T;
}
);
width = 1194;
}
);
unicode = 574;
},
{
glyphname = Thook;
kernLeft = T;
kernRight = T;
layers = (
{
layerId = "F85E8FEC-B3CD-4A54-BF30-AB1986ECE904";
shapes = (
{
closed = 1;
nodes = (
(774,0,l),
(774,1281,l),
(1192,1281,l),
(1192,1446,l),
(410,1446,ls),
(142,1446,o),
(20,1356,o),
(20,1134,cs),
(20,1078,l),
(212,1065,l),
(212,1108,ls),
(212,1235,o),
(248,1281,o),
(389,1281,cs),
(573,1281,l),
(573,0,l)
);
}
);
width = 1276;
},
{
layerId = "C6C96970-2BBD-4A47-8C90-C83F37B7F23D";
shapes = (
{
closed = 1;
nodes = (
(865,0,l),
(865,1250,l),
(1276,1250,l),
(1276,1476,l),
(458,1476,ls),
(108,1476,o),
(16,1375,o),
(16,1122,cs),
(16,1038,l),
(256,1028,l),
(256,1108,ls),
(256,1204,o),
(300,1250,o),
(427,1250,cs),
(569,1250,l),
(569,0,l)
);
}
);
width = 1314;
}
);
unicode = 428;
},
{
glyphname = Tretroflexhook;
kernLeft = T;
kernRight = T;
layers = (
{
layerId = "F85E8FEC-B3CD-4A54-BF30-AB1986ECE904";
shapes = (
{
closed = 1;
nodes = (
(882,-408,l),
(895,-256,l),
(862,-256,ls),
(742,-256,o),
(702,-216,o),
(702,-69,cs),
(702,1281,l),
(1120,1281,l),
(1120,1446,l),
(84,1446,l),
(84,1281,l),
(501,1281,l),
(501,-76,ls),
(501,-315,o),
(604,-408,o),
(815,-408,cs)
);
}
);
width = 1204;
},
{
layerId = "C6C96970-2BBD-4A47-8C90-C83F37B7F23D";
shapes = (
{
closed = 1;
nodes = (
(882,-410,l),
(892,-185,l),
(862,-185,ls),
(783,-185,o),
(746,-141,o),
(746,-44,cs),
(745,1250,l),
(1156,1250,l),
(1156,1476,l),
(38,1476,l),
(38,1250,l),
(449,1250,l),
(449,-76,ls),
(449,-299,o),
(572,-410,o),
(788,-410,cs)
);
}
);
width = 1194;
}
);
unicode = 430;
},
{
glyphname = U;
kernLeft = U;
layers = (
{
anchors = (
{
name = bottom;
pos = (769,0);
},
{
name = ogonek;
pos = (1033,10);
},
{
name = top;
pos = (769,1446);
},
{
name = topright;
pos = (1518,1446);
}
);
layerId = "F85E8FEC-B3CD-4A54-BF30-AB1986ECE904";
shapes = (
{
closed = 1;
nodes = (
(1232,-22,o),
(1338,205,o),
(1338,473,cs),
(1338,1446,l),
(1136,1446,l),
(1136,452,ls),
(1136,186,o),
(982,140,o),
(779,140,cs),
(578,140,o),
(402,186,o),
(402,452,cs),
(402,1446,l),
(200,1446,l),
(200,473,ls),
(200,202,o),
(306,-22,o),
(779,-22,cs)
);
}
);
width = 1538;
},
{
anchors = (
{
name = bottom;
pos = (787,0);
},
{
name = ogonek;
pos = (1088,10);
},
{
name = top;
pos = (787,1476);
},
{
name = topright;
pos = (1554,1476);
}
);
layerId = "C6C96970-2BBD-4A47-8C90-C83F37B7F23D";
shapes = (
{
closed = 1;
nodes = (
(1294,-26,o),
(1398,199,o),
(1398,480,cs),
(1398,1477,l),
(1101,1477,l),
(1101,455,ls),
(1101,263,o),
(1004,207,o),
(796,207,cs),
(591,207,o),
(473,260,o),
(473,455,cs),
(473,1477,l),
(176,1477,l),
(176,468,ls),
(176,186,o),
(291,-26,o),
(796,-26,cs)
);
}
);
width = 1574;
}
);
unicode = 85;
},
{
glyphname = Ubar;
kernLeft = U;
layers = (
{
layerId = "F85E8FEC-B3CD-4A54-BF30-AB1986ECE904";
shapes = (
{
closed = 1;
nodes = (
(85,769,l),
(1453,769,l),
(1453,913,l),
(85,913,l)
);
},
{
ref = U;
}
);
width = 1538;
},
{
layerId = "C6C96970-2BBD-4A47-8C90-C83F37B7F23D";
shapes = (
{
closed = 1;
nodes = (
(59,780,l),
(1515,780,l),
(1515,964,l),
(59,964,l)
);
},
{
ref = U;
}
);
width = 1574;
}
);
unicode = 580;
},
{
glyphname = Uhorn;
kernLeft = U;
layers = (
{
anchors = (
{
name = bottom;
pos = (776,0);
},
{
name = top;
pos = (776,1446);
}
);
layerId = "F85E8FEC-B3CD-4A54-BF30-AB1986ECE904";
shapes = (
{
closed = 1;
nodes = (
(1232,-22,o),
(1338,205,o),
(1338,473,cs),
(1338,1446,l),
(1136,1446,l),
(1136,452,ls),
(1136,186,o),
(982,140,o),
(779,140,cs),
(578,140,o),
(402,186,o),
(402,452,cs),
(402,1446,l),
(200,1446,l),
(200,473,ls),
(200,202,o),
(306,-22,o),
(779,-22,cs)
);
},
{
closed = 1;
nodes = (
(1268,1302,l),
(1298,1302,ls),
(1488,1302,o),
(1602,1407,o),
(1602,1591,cs),
(1602,1715,l),
(1414,1715,l),
(1414,1574,ls),
(1414,1493,o),
(1364,1446,o),
(1298,1446,cs),
(1268,1446,l)
);
}
);
width = 1552;
},
{
anchors = (
{
name = bottom;
pos = (819,0);
},
{
name = top;
pos = (819,1476);
}
);
layerId = "C6C96970-2BBD-4A47-8C90-C83F37B7F23D";
shapes = (
{
closed = 1;
nodes = (
(1294,-26,o),
(1398,199,o),
(1398,480,cs),
(1398,1477,l),
(1101,1477,l),
(1101,455,ls),
(1101,263,o),
(1004,207,o),
(796,207,cs),
(591,207,o),
(473,260,o),
(473,455,cs),
(473,1477,l),
(176,1477,l),
(176,468,ls),
(176,186,o),
(291,-26,o),
(796,-26,cs)
);
},
{
closed = 1;
nodes = (
(1314,1282,l),
(1344,1282,ls),
(1534,1282,o),
(1688,1387,o),
(1688,1621,cs),
(1688,1745,l),
(1465,1745,l),
(1465,1604,ls),
(1465,1523,o),
(1410,1476,o),
(1344,1476,cs),
(1314,1476,l)
);
}
);
width = 1638;
}
);
unicode = 431;
},
{
glyphname = Upsilonafrican;
layers = (
{
background = {
shapes = (
{
ref = O;
}
);
};
layerId = "F85E8FEC-B3CD-4A54-BF30-AB1986ECE904";
shapes = (
{
closed = 1;
nodes = (
(1179,-22,o),
(1360,159,o),
(1360,641,cs),
(1360,990,o),
(1184,1248,o),
(994,1330,c),
(994,1281,l),
(1352,1281,l),
(1352,1446,l),
(881,1446,l),
(881,1275,l),
(1026,1160,o),
(1157,972,o),
(1157,643,cs),
(1157,281,o),
(1071,140,o),
(773,140,cs),
(475,140,o),
(389,281,o),
(389,643,cs),
(389,972,o),
(519,1160,o),
(664,1275,c),
(664,1446,l),
(193,1446,l),
(193,1281,l),
(540,1281,l),
(540,1330,l),
(353,1244,o),
(186,990,o),
(186,641,cs),
(186,159,o),
(367,-22,o),
(773,-22,cs)
);
}
);
width = 1546;
},
{
background = {
shapes = (
{
ref = O;
}
);
};
layerId = "C6C96970-2BBD-4A47-8C90-C83F37B7F23D";
shapes = (
{
closed = 1;
nodes = (
(1258,-22,o),
(1446,153,o),
(1446,665,cs),
(1446,1000,o),
(1290,1201,o),
(1090,1300,c),
(1090,1250,l),
(1437,1250,l),
(1437,1476,l),
(922,1476,l),
(922,1271,l),
(1081,1154,o),
(1148,982,o),
(1148,667,cs),
(1148,318,o),
(1039,207,o),
(803,207,cs),
(567,207,o),
(458,318,o),
(458,667,cs),
(458,982,o),
(524,1154,o),
(683,1271,c),
(683,1476,l),
(168,1476,l),
(168,1250,l),
(516,1250,l),
(516,1300,l),
(315,1201,o),
(160,1000,o),
(160,665,cs),
(160,153,o),
(348,-22,o),
(803,-22,cs)
);
}
);
width = 1606;
}
);
unicode = 433;
},
{
glyphname = V;
kernLeft = V;
kernRight = V;
layers = (
{
anchors = (
{
name = bottom;
pos = (693,0);
},
{
name = top;
pos = (693,1446);
}
);
guides = (
{
angle = 19.6388;
pos = (219,1343);
showMeasurement = 1;
}
);
layerId = "F85E8FEC-B3CD-4A54-BF30-AB1986ECE904";
shapes = (
{
closed = 1;
nodes = (
(602,0,l),
(779,0,l),
(1300,1446,l),
(1091,1446,l),
(692,294,l),
(293,1446,l),
(86,1446,l)
);
}
);
width = 1386;
},
{
anchors = (
{
name = bottom;
pos = (742,0);
},
{
name = top;
pos = (742,1476);
}
);
layerId = "C6C96970-2BBD-4A47-8C90-C83F37B7F23D";
shapes = (
{
closed = 1;
nodes = (
(564,0,l),
(924,0,l),
(1444,1476,l),
(1126,1476,l),
(748,283,l),
(358,1476,l),
(40,1476,l)
);
}
);
width = 1484;
}
);
unicode = 86;
},
{
glyphname = Gammaafrican;
layers = (
{
background = {
shapes = (
{
ref = V;
}
);
};
layerId = "F85E8FEC-B3CD-4A54-BF30-AB1986ECE904";
shapes = (
{
closed = 1;
nodes = (
(952,-420,o),
(1068,-295,o),
(1068,-79,cs),
(1068,75,o),
(1013,192,o),
(845,493,cs),
(313,1446,l),
(86,1446,l),
(708,361,ls),
(836,137,o),
(854,54,o),
(854,-74,cs),
(854,-192,o),
(803,-253,o),
(694,-253,cs),
(585,-253,o),
(533,-192,o),
(533,-74,cs),
(533,54,o),
(551,136,o),
(680,361,cs),
(1301,1446,l),
(1077,1446,l),
(544,493,ls),
(378,196,o),
(319,75,o),
(319,-79,cs),
(319,-295,o),
(436,-420,o),
(694,-420,cs)
);
}
);
width = 1386;
},
{
background = {
shapes = (
{
closed = 0;
nodes = (
(860,690,l),
(354,1476,l),
(40,1476,l),
(593,602,ls)
);
},
{
closed = 0;
nodes = (
(482,300,l),
(390,141,o),
(336,8,o),
(336,-118,cs),
(336,-307,o),
(477,-420,o),
(730,-420,cs),
(1003,-420,o),
(1125,-307,o),
(1125,-118,cs),
(1125,8,o),
(1071,143,o),
(980,300,cs)
);
},
{
closed = 0;
nodes = (
(736,212,l),
(823,68,o),
(844,-18,o),
(844,-98,cs),
(844,-178,o),
(812,-220,o),
(730,-220,cs),
(650,-220,o),
(617,-178,o),
(617,-98,cs),
(617,-18,o),
(638,69,o),
(724,212,cs)
);
},
{
closed = 0;
nodes = (
(891,602,l),
(1444,1476,l),
(1130,1476,l),
(624,690,l)
);
}
);
};
layerId = "C6C96970-2BBD-4A47-8C90-C83F37B7F23D";
shapes = (
{
closed = 1;
nodes = (
(1045,-420,o),
(1146,-257,o),
(1146,-58,cs),
(1146,98,o),
(1101,229,o),
(931,508,cs),
(342,1476,l),
(28,1476,l),
(700,374,ls),
(842,141,o),
(860,62,o),
(860,-68,cs),
(860,-138,o),
(822,-190,o),
(742,-190,cs),
(662,-190,o),
(624,-138,o),
(624,-68,cs),
(624,62,o),
(642,141,o),
(784,374,cs),
(1456,1476,l),
(1142,1476,l),
(553,508,ls),
(383,229,o),
(338,98,o),
(338,-58,cs),
(338,-257,o),
(439,-420,o),
(742,-420,cs)
);
}
);
width = 1484;
}
);
unicode = 404;
},
{
glyphname = Vhook;
layers = (
{
layerId = "F85E8FEC-B3CD-4A54-BF30-AB1986ECE904";
shapes = (
{
closed = 1;
nodes = (
(1108,-23,o),
(1310,205,o),
(1310,552,cs),
(1310,1049,ls),
(1310,1283,o),
(1215,1456,o),
(902,1456,c),
(902,1291,l),
(1036,1291,o),
(1108,1227,o),
(1108,1061,cs),
(1108,537,ls),
(1108,291,o),
(983,140,o),
(728,140,cs),
(483,140,o),
(402,251,o),
(402,417,cs),
(402,1446,l),
(200,1446,l),
(200,413,ls),
(200,150,o),
(315,-23,o),
(728,-23,cs)
);
}
);
width = 1510;
},
{
layerId = "C6C96970-2BBD-4A47-8C90-C83F37B7F23D";
shapes = (
{
closed = 1;
nodes = (
(1160,-23,o),
(1379,199,o),
(1379,574,cs),
(1379,1009,ls),
(1379,1309,o),
(1199,1486,o),
(860,1486,c),
(860,1260,l),
(1005,1260,o),
(1083,1195,o),
(1083,1026,cs),
(1083,558,ls),
(1083,318,o),
(937,207,o),
(748,207,cs),
(562,207,o),
(475,267,o),
(475,405,cs),
(475,1476,l),
(176,1476,l),
(176,422,ls),
(176,153,o),
(301,-23,o),
(748,-23,cs)
);
}
);
width = 1555;
}
);
unicode = 434;
},
{
glyphname = Vturned;
layers = (
{
layerId = "F85E8FEC-B3CD-4A54-BF30-AB1986ECE904";
shapes = (
{
closed = 1;
nodes = (
(784,1446,l),
(607,1446,l),
(86,0,l),
(295,0,l),
(694,1152,l),
(1093,0,l),
(1300,0,l)
);
}
);
width = 1386;
},
{
layerId = "C6C96970-2BBD-4A47-8C90-C83F37B7F23D";
shapes = (
{
closed = 1;
nodes = (
(920,1476,l),
(560,1476,l),
(40,0,l),
(358,0,l),
(736,1193,l),
(1126,0,l),
(1444,0,l)
);
}
);
width = 1484;
}
);
unicode = 581;
},
{
glyphname = W;
kernLeft = W;
kernRight = W;
layers = (
{
anchors = (
{
name = bottom;
pos = (1024,0);
},
{
name = top;
pos = (1024,1446);
}
);
layerId = "F85E8FEC-B3CD-4A54-BF30-AB1986ECE904";
shapes = (
{
closed = 1;
nodes = (
(522,0,l),
(674,0,l),
(1037,1232,l),
(1390,0,l),
(1542,0,l),
(1936,1446,l),
(1753,1446,l),
(1462,346,l),
(1133,1446,l),
(918,1446,l),
(603,346,l),
(296,1446,l),
(112,1446,l)
);
}
);
width = 2048;
},
{
anchors = (
{
name = bottom;
pos = (977,0);
},
{
name = top;
pos = (977,1476);
}
);
layerId = "C6C96970-2BBD-4A47-8C90-C83F37B7F23D";
shapes = (
{
closed = 1;
nodes = (
(423,0,l),
(689,0,l),
(973,1053,l),
(1283,0,l),
(1532,0,l),
(1914,1476,l),
(1629,1476,l),
(1389,466,l),
(1093,1476,l),
(842,1476,l),
(583,455,l),
(328,1476,l),
(40,1476,l)
);
}
);
width = 1954;
}
);
unicode = 87;
},
{
glyphname = Whook;
kernLeft = W;
kernRight = W;
layers = (
{
background = {
shapes = (
{
closed = 1;
nodes = (
(674,0,l),
(1037,1232,l),
(1390,0,l),
(1542,0,l),
(1864,1180,ls),
(1888,1266,o),
(1919,1294,o),
(2007,1294,cs),
(2063,1294,l),
(2049,1446,l),
(1969,1446,ls),
(1810,1446,o),
(1735,1376,o),
(1686,1190,cs),
(1462,346,l),
(1133,1446,l),
(918,1446,l),
(603,346,l),
(296,1446,l),
(112,1446,l),
(522,0,l)
);
}
);
};
layerId = "F85E8FEC-B3CD-4A54-BF30-AB1986ECE904";
shapes = (
{
closed = 1;
nodes = (
(674,0,l),
(1037,1232,l),
(1390,0,l),
(1542,0,l),
(1867,1190,ls),
(1890,1276,o),
(1922,1304,o),
(2010,1304,cs),
(2066,1304,l),
(2052,1456,l),
(1972,1456,ls),
(1813,1456,o),
(1738,1386,o),
(1689,1200,cs),
(1462,346,l),
(1133,1446,l),
(918,1446,l),
(603,346,l),
(296,1446,l),
(112,1446,l),
(522,0,l)
);
}
);
width = 2048;
},
{
background = {
shapes = (
{
closed = 1;
nodes = (
(689,0,l),
(973,1053,l),
(1283,0,l),
(1532,0,l),
(1816,1110,ls),
(1843,1217,o),
(1885,1251,o),
(1970,1251,cs),
(2014,1251,l),
(2006,1476,l),
(1898,1476,ls),
(1687,1476,o),
(1610,1393,o),
(1544,1116,cs),
(1389,466,l),
(1093,1476,l),
(842,1476,l),
(583,455,l),
(328,1476,l),
(40,1476,l),
(423,0,l)
);
}
);
};
layerId = "C6C96970-2BBD-4A47-8C90-C83F37B7F23D";
shapes = (
{
closed = 1;
nodes = (
(689,0,l),
(973,1053,l),
(1283,0,l),
(1532,0,l),
(1819,1120,ls),
(1846,1227,o),
(1888,1261,o),
(1973,1261,cs),
(2017,1261,l),
(2009,1486,l),
(1901,1486,ls),
(1690,1486,o),
(1613,1403,o),
(1547,1126,cs),
(1389,466,l),
(1093,1476,l),
(842,1476,l),
(583,455,l),
(328,1476,l),
(40,1476,l),
(423,0,l)
);
}
);
width = 1974;
}
);
unicode = 11378;
},
{
glyphname = X;
kernLeft = X;
kernRight = X;
layers = (
{
anchors = (
{
name = bottom;
pos = (668,0);
},
{
name = top;
pos = (668,1446);
}
);
background = {
shapes = (
{
closed = 1;
nodes = (
(94,0,l),
(306,0,l),
(667,568,l),
(1024,0,l),
(1242,0,l),
(773,734,l),
(1227,1446,l),
(1010,1446,l),
(669,898,l),
(319,1446,l),
(116,1446,l),
(565,731,l)
);
}
);
};
layerId = "F85E8FEC-B3CD-4A54-BF30-AB1986ECE904";
shapes = (
{
closed = 1;
nodes = (
(1022,0,l),
(1242,0,l),
(333,1446,l),
(116,1446,l)
);
},
{
closed = 1;
nodes = (
(1233,1446,l),
(1017,1446,l),
(639,836,l),
(755,696,l)
);
},
{
closed = 1;
nodes = (
(94,0,l),
(310,0,l),
(693,630,l),
(577,770,l)
);
}
);
width = 1336;
},
{
anchors = (
{
name = bottom;
pos = (676,0);
},
{
name = top;
pos = (676,1476);
}
);
background = {
shapes = (
{
closed = 1;
nodes = (
(993,0,l),
(1314,0,l),
(371,1476,l),
(50,1476,l)
);
},
{
closed = 1;
nodes = (
(1297,1476,l),
(969,1476,l),
(661,983,l),
(821,736,l)
);
},
{
closed = 1;
nodes = (
(38,0,l),
(348,0,l),
(678,514,l),
(522,762,l)
);
}
);
};
layerId = "C6C96970-2BBD-4A47-8C90-C83F37B7F23D";
shapes = (
{
closed = 1;
nodes = (
(993,0,l),
(1314,0,l),
(371,1476,l),
(50,1476,l)
);
},
{
closed = 1;
nodes = (
(1297,1476,l),
(979,1476,l),
(669,978,l),
(816,736,l)
);
},
{
closed = 1;
nodes = (
(30,0,l),
(348,0,l),
(670,551,l),
(523,793,l)
);
}
);
width = 1352;
}
);
unicode = 88;
},
{
glyphname = Y;
kernLeft = Y;
kernRight = Y;
layers = (
{
anchors = (
{
name = bottom;
pos = (659,0);
},
{
name = top;
pos = (659,1446);
},
{
name = topleft;
pos = (20,1446);
}
);
layerId = "F85E8FEC-B3CD-4A54-BF30-AB1986ECE904";
shapes = (
{
closed = 1;
nodes = (
(560,0,l),
(761,0,l),
(761,568,l),
(1270,1446,l),
(1063,1446,l),
(639,705,l),
(683,705,l),
(261,1446,l),
(48,1446,l),
(560,568,l)
);
}
);
width = 1318;
},
{
anchors = (
{
name = bottom;
pos = (652,0);
},
{
name = top;
pos = (652,1476);
},
{
name = topleft;
pos = (20,1476);
}
);
layerId = "C6C96970-2BBD-4A47-8C90-C83F37B7F23D";
shapes = (
{
closed = 1;
nodes = (
(509,0,l),
(805,0,l),
(805,567,l),
(1304,1476,l),
(1004,1476,l),
(637,802,l),
(681,802,l),
(313,1476,l),
(0,1476,l),
(509,567,l)
);
}
);
width = 1304;
}
);
unicode = 89;
},
{
glyphname = Yhook;
kernLeft = Y;
kernRight = Y;
layers = (
{
anchors = (
{
name = bottom;
pos = (659,0);
},
{
name = top;
pos = (659,1446);
},
{
name = topleft;
pos = (20,1446);
}
);
layerId = "F85E8FEC-B3CD-4A54-BF30-AB1986ECE904";
shapes = (
{
closed = 1;
nodes = (
(761,0,l),
(761,568,l),
(1086,1192,ls),
(1134,1283,o),
(1169,1304,o),
(1256,1304,cs),
(1287,1304,l),
(1276,1456,l),
(1220,1456,ls),
(1083,1456,o),
(997,1407,o),
(895,1206,cs),
(641,704,l),
(683,704,l),
(261,1446,l),
(48,1446,l),
(560,568,l),
(560,0,l)
);
}
);
width = 1318;
},
{
anchors = (
{
name = bottom;
pos = (652,0);
},
{
name = top;
pos = (652,1476);
},
{
name = topleft;
pos = (20,1476);
}
);
layerId = "C6C96970-2BBD-4A47-8C90-C83F37B7F23D";
shapes = (
{
closed = 1;
nodes = (
(805,0,l),
(805,567,l),
(1085,1128,ls),
(1135,1228,o),
(1179,1261,o),
(1262,1261,cs),
(1307,1261,l),
(1287,1486,l),
(1181,1486,ls),
(1009,1486,o),
(908,1410,o),
(778,1125,cs),
(639,820,l),
(681,820,l),
(313,1476,l),
(0,1476,l),
(509,567,l),
(509,0,l)
);
}
);
width = 1327;
}
);
unicode = 435;
},
{
glyphname = Ystroke;
kernLeft = Y;
kernRight = Y;
layers = (
{
layerId = "F85E8FEC-B3CD-4A54-BF30-AB1986ECE904";
shapes = (
{
closed = 1;
nodes = (
(30,1078,l),
(1288,1078,l),
(1288,1222,l),
(30,1222,l)
);
},
{
ref = Y;
}
);
width = 1318;
},
{
layerId = "C6C96970-2BBD-4A47-8C90-C83F37B7F23D";
shapes = (
{
closed = 1;
nodes = (
(10,1113,l),
(1294,1113,l),
(1294,1303,l),
(10,1303,l)
);
},
{
ref = Y;
}
);
width = 1304;
}
);
unicode = 590;
},
{
glyphname = Z;
layers = (
{
anchors = (
{
name = bottom;
pos = (621,0);
},
{
name = center;
pos = (621,723);
},
{
name = top;
pos = (663,1446);
}
);
layerId = "F85E8FEC-B3CD-4A54-BF30-AB1986ECE904";
shapes = (
{
closed = 1;
nodes = (
(180,0,l),
(1096,0,l),
(1096,165,l),
(402,165,l),
(1083,1295,l),
(1083,1446,l),
(211,1446,l),
(211,1281,l),
(862,1281,l),
(180,150,l)
);
}
);
width = 1242;
},
{
anchors = (
{
name = bottom;
pos = (592,0);
},
{
name = center;
pos = (592,738);
},
{
name = top;
pos = (656,1476);
}
);
layerId = "C6C96970-2BBD-4A47-8C90-C83F37B7F23D";
shapes = (
{
closed = 1;
nodes = (
(126,0,l),
(1102,0,l),
(1102,210,l),
(472,210,l),
(1090,1297,l),
(1090,1476,l),
(154,1476,l),
(154,1258,l),
(746,1258,l),
(126,177,l)
);
}
);
width = 1184;
}
);
unicode = 90;
},
{
glyphname = Zstroke;
layers = (
{
layerId = "F85E8FEC-B3CD-4A54-BF30-AB1986ECE904";
shapes = (
{
closed = 1;
nodes = (
(270,671,l),
(1019,671,l),
(1019,815,l),
(270,815,l)
);
},
{
ref = Z;
}
);
width = 1242;
},
{
layerId = "C6C96970-2BBD-4A47-8C90-C83F37B7F23D";
shapes = (
{
closed = 1;
nodes = (
(200,663,l),
(1046,663,l),
(1046,853,l),
(200,853,l)
);
},
{
ref = Z;
}
);
width = 1184;
}
);
unicode = 437;
},
{
glyphname = Saltillo;
layers = (
{
layerId = "F85E8FEC-B3CD-4A54-BF30-AB1986ECE904";
shapes = (
{
closed = 1;
nodes = (
(186,1427,o),
(214,973,o),
(253,578,c),
(309,578,l),
(355,976,o),
(388,1429,o),
(388,1653,c),
(186,1653,l)
);
}
);
width = 548;
},
{
background = {
shapes = (
{
closed = 1;
nodes = (
(220,651,l),
(296,651,l),
(396,1718,l),
(137,1718,l)
);
}
);
};
layerId = "C6C96970-2BBD-4A47-8C90-C83F37B7F23D";
shapes = (
{
closed = 1;
nodes = (
(137,1676,o),
(185,1068,o),
(221,651,c),
(296,651,l),
(339,1071,o),
(396,1677,o),
(396,1718,c),
(137,1718,l)
);
}
);
width = 528;
}
);
unicode = 42891;
},
{
glyphname = Ismall;
layers = (
{
layerId = "F85E8FEC-B3CD-4A54-BF30-AB1986ECE904";
shapes = (
{
closed = 1;
nodes = (
(305,142,l),
(88,142,l),
(88,0,l),
(710,0,l),
(710,142,l),
(493,142,l),
(493,918,l),
(710,918,l),
(710,1060,l),
(88,1060,l),
(88,918,l),
(305,918,l)
);
}
);
width = 798;
},
{
layerId = "C6C96970-2BBD-4A47-8C90-C83F37B7F23D";
shapes = (
{
closed = 1;
nodes = (
(258,173,l),
(79,173,l),
(79,0,l),
(709,0,l),
(709,173,l),
(530,173,l),
(530,901,l),
(709,901,l),
(709,1074,l),
(79,1074,l),
(79,901,l),
(258,901,l)
);
}
);
width = 788;
}
);
unicode = 618;
},
{
glyphname = a;
kernLeft = a;
kernRight = a;
layers = (
{
anchors = (
{
name = bottom;
pos = (586,0);
},
{
name = ogonek;
pos = (1058,0);
},
{
name = top;
pos = (577,1060);
}
);
layerId = "F85E8FEC-B3CD-4A54-BF30-AB1986ECE904";
shapes = (
{
closed = 1;
nodes = (
(660,-22,o),
(749,78,o),
(796,150,c),
(828,50,o),
(879,-8,o),
(1020,-8,cs),
(1058,-8,l),
(1080,136,l),
(989,136,o),
(969,156,o),
(969,268,cs),
(969,720,ls),
(969,938,o),
(872,1080,o),
(592,1080,cs),
(314,1080,o),
(174,988,o),
(174,779,cs),
(174,731,l),
(355,731,l),
(355,778,ls),
(355,863,o),
(373,936,o),
(586,936,cs),
(755,936,o),
(781,867,o),
(781,781,cs),
(781,665,o),
(715,646,o),
(539,595,cs),
(201,497,o),
(132,428,o),
(132,268,cs),
(132,115,o),
(230,-22,o),
(465,-22,cs)
);
},
{
closed = 1;
nodes = (
(362,118,o),
(311,167,o),
(311,274,cs),
(311,369,o),
(385,407,o),
(549,454,cs),
(683,492,o),
(752,547,o),
(781,576,c),
(781,297,l),
(751,199,o),
(601,118,o),
(488,118,cs)
);
}
);
width = 1172;
},
{
anchors = (
{
name = bottom;
pos = (587,0);
},
{
name = ogonek;
pos = (1079,0);
},
{
name = top;
pos = (572,1074);
}
);
layerId = "C6C96970-2BBD-4A47-8C90-C83F37B7F23D";
shapes = (
{
closed = 1;
nodes = (
(580,-23,o),
(699,43,o),
(757,119,c),
(796,32,o),
(873,-8,o),
(1022,-8,cs),
(1079,-8,l),
(1090,190,l),
(1023,190,o),
(1003,210,o),
(1003,308,cs),
(1003,733,ls),
(1003,955,o),
(893,1097,o),
(572,1097,cs),
(278,1097,o),
(144,963,o),
(144,755,cs),
(144,723,l),
(399,723,l),
(399,765,ls),
(399,848,o),
(430,907,o),
(566,907,cs),
(688,907,o),
(735,863,o),
(735,777,c),
(735,702,o),
(658,666,o),
(491,613,cs),
(185,516,o),
(112,422,o),
(112,270,cs),
(112,92,o),
(239,-23,o),
(423,-23,cs)
);
},
{
closed = 1;
nodes = (
(432,158,o),
(377,198,o),
(377,285,cs),
(377,346,o),
(403,400,o),
(522,444,cs),
(612,477,o),
(699,515,o),
(735,544,c),
(735,272,l),
(685,194,o),
(580,158,o),
(514,158,cs)
);
}
);
width = 1174.37;
}
);
unicode = 97;
userData = {
com.typemytype.robofont.layerData = {
};
};
},
{
glyphname = aacute;
kernLeft = a;
kernRight = a;
layers = (
{
layerId = "F85E8FEC-B3CD-4A54-BF30-AB1986ECE904";
shapes = (
{
ref = a;
},
{
pos = (577,0);
ref = acutecomb;
}
);
width = 1172;
},
{
background = {
shapes = (
{
closed = 1;
nodes = (
(908,1646,l),
(640,1646,l),
(526,1281,l),
(675,1281,l)
);
},
{
closed = 1;
nodes = (
(445,416,o),
(687,505,o),
(735,544,q),
(735,276,l),
(700,223,o),
(578,165,o),
(523,165,qs),
(383,165,o),
(383,294,qs),
(383,341,o)
);
},
{
closed = 1;
nodes = (
(787,53,o),
(911,-8,o),
(1022,-8,qs),
(1079,-8,l),
(1090,190,l),
(1039,190,o),
(1003,236,o),
(1003,308,qs),
(1003,733,ls),
(1003,909,o),
(802,1097,o),
(358,1097,o),
(144,916,o),
(144,755,qs),
(144,723,l),
(399,723,l),
(399,765,ls),
(399,834,o),
(471,907,o),
(566,907,qs),
(735,908,o),
(735,784,qs),
(735,724,o),
(626,656,o),
(491,613,qs),
(269,543,o),
(112,391,o),
(112,139,o),
(285,-23,o),
(535,-23,o),
(710,58,o),
(757,119,q)
);
}
);
};
layerId = "C6C96970-2BBD-4A47-8C90-C83F37B7F23D";
shapes = (
{
ref = a;
},
{
pos = (572,0);
ref = acutecomb;
}
);
width = 1174;
}
);
unicode = 225;
userData = {
com.typemytype.robofont.layerData = {
};
};
},
{
glyphname = ainvertedbreve;
kernLeft = a;
kernRight = a;
layers = (
{
background = {
shapes = (
{
closed = 1;
nodes = (
(485,1295,o),
(551,1359,o),
(658,1359,o),
(727,1293,o),
(727,1243,q),
(832,1243,l),
(832,1332,o),
(707,1455,o),
(505,1455,o),
(380,1332,o),
(380,1243,q),
(485,1243,l)
);
},
{
closed = 1;
nodes = (
(596,-6,qs),
(713,26,o),
(796,150,q),
(822,69,o),
(920,-8,o),
(1020,-8,qs),
(1058,-8,l),
(1080,136,l),
(1011,136,o),
(969,185,o),
(969,268,qs),
(969,720,ls),
(969,893,o),
(793,1080,o),
(381,1080,o),
(174,934,o),
(174,779,qs),
(174,731,l),
(355,731,l),
(355,778,ls),
(355,836,o),
(375,870,qs),
(414,936,o),
(586,936,qs),
(708,936,o),
(781,850,o),
(781,760,o),
(775,719,o),
(720,647,o),
(539,597,qs),
(226,506,o),
(163,406,qs),
(132,357,o),
(132,283,qs),
(132,153,o),
(310,-22,o),
(471,-22,qs),
(540,-22,o)
);
},
{
closed = 1;
nodes = (
(781,583,o),
(781,277,l),
(767,230,o),
(674,157,o),
(558,120,o),
(415,120,o),
(314,196,o),
(314,345,o),
(423,427,o),
(708,510,o)
);
}
);
};
layerId = "F85E8FEC-B3CD-4A54-BF30-AB1986ECE904";
shapes = (
{
ref = a;
},
{
pos = (577,0);
ref = breveinvertedcomb;
}
);
width = 1172;
},
{
layerId = "C6C96970-2BBD-4A47-8C90-C83F37B7F23D";
shapes = (
{
ref = a;
},
{
pos = (572,0);
ref = breveinvertedcomb;
}
);
width = 1174;
}
);
unicode = 515;
userData = {
com.typemytype.robofont.layerData = {
};
};
},
{
glyphname = "alpha-latin";
kernLeft = c;
layers = (
{
background = {
shapes = (
{
closed = 1;
nodes = (
(693,-22,o),
(798,11,o),
(920,134,c),
(837,150,l),
(869,50,o),
(920,-8,o),
(1061,-8,cs),
(1099,-8,l),
(1121,136,l),
(1030,136,o),
(1010,156,o),
(1010,268,cs),
(1010,1060,l),
(822,1060,l),
(822,885,l),
(826,946,l),
(847,1001,o),
(680,1080,o),
(550,1080,cs),
(274,1080,o),
(148,941,o),
(148,728,cs),
(148,317,ls),
(148,97,o),
(279,-22,o),
(550,-22,cs)
);
},
{
closed = 1;
nodes = (
(441,122,o),
(336,161,o),
(336,288,cs),
(336,748,ls),
(336,878,o),
(430,936,o),
(578,936,cs),
(745,936,o),
(822,882,o),
(822,790,cs),
(822,202,l),
(792,178,o),
(719,122,o),
(579,122,cs)
);
}
);
};
layerId = "F85E8FEC-B3CD-4A54-BF30-AB1986ECE904";
shapes = (
{
closed = 1;
nodes = (
(693,-22,o),
(798,11,o),
(920,134,c),
(837,150,l),
(869,50,o),
(920,-8,o),
(1061,-8,cs),
(1099,-8,l),
(1121,136,l),
(1030,136,o),
(1010,156,o),
(1010,268,cs),
(1010,1060,l),
(822,1060,l),
(822,885,l),
(856,916,l),
(837,1010,o),
(680,1080,o),
(550,1080,cs),
(274,1080,o),
(148,941,o),
(148,728,cs),
(148,317,ls),
(148,97,o),
(279,-22,o),
(550,-22,cs)
);
},
{
closed = 1;
nodes = (
(441,122,o),
(336,161,o),
(336,288,cs),
(336,748,ls),
(336,878,o),
(430,936,o),
(578,936,cs),
(745,936,o),
(822,882,o),
(822,790,cs),
(822,202,l),
(792,178,o),
(719,122,o),
(579,122,cs)
);
}
);
width = 1213;
},
{
background = {
shapes = (
{
closed = 1;
nodes = (
(661,-23,o),
(759,6,o),
(894,108,c),
(796,119,l),
(835,32,o),
(912,-8,o),
(1061,-8,cs),
(1118,-8,l),
(1129,190,l),
(1062,190,o),
(1042,210,o),
(1042,308,cs),
(1042,1074,l),
(840,1074,l),
(804,954,l),
(836,980,l),
(775,1042,o),
(643,1097,o),
(543,1097,cs),
(257,1097,o),
(124,951,o),
(124,753,cs),
(124,324,ls),
(124,108,o),
(260,-23,o),
(551,-23,cs)
);
},
{
closed = 1;
nodes = (
(463,168,o),
(396,211,o),
(396,320,cs),
(396,759,ls),
(396,868,o),
(469,907,o),
(593,907,cs),
(669,907,o),
(734,887,o),
(770,870,c),
(770,211,l),
(728,186,o),
(658,168,o),
(583,168,cs)
);
}
);
};
layerId = "C6C96970-2BBD-4A47-8C90-C83F37B7F23D";
shapes = (
{
closed = 1;
nodes = (
(661,-23,o),
(759,6,o),
(894,108,c),
(796,119,l),
(835,32,o),
(912,-8,o),
(1061,-8,cs),
(1118,-8,l),
(1129,190,l),
(1062,190,o),
(1042,210,o),
(1042,308,cs),
(1042,1074,l),
(840,1074,l),
(804,954,l),
(836,980,l),
(775,1042,o),
(643,1097,o),
(543,1097,cs),
(257,1097,o),
(124,951,o),
(124,753,cs),
(124,324,ls),
(124,108,o),
(260,-23,o),
(551,-23,cs)
);
},
{
closed = 1;
nodes = (
(463,168,o),
(396,211,o),
(396,320,cs),
(396,759,ls),
(396,868,o),
(469,907,o),
(593,907,cs),
(678,907,o),
(770,881,o),
(770,859,cs),
(770,211,l),
(728,186,o),
(658,168,o),
(583,168,cs)
);
}
);
width = 1213;
}
);
unicode = 593;
},
{
glyphname = astroke;
kernLeft = a;
kernRight = a;
layers = (
{
layerId = "F85E8FEC-B3CD-4A54-BF30-AB1986ECE904";
shapes = (
{
closed = 1;
nodes = (
(331,-195,l),
(423,-226,l),
(723,581,l),
(621,581,l)
);
},
{
closed = 1;
nodes = (
(961,1220,l),
(871,1251,l),
(760,952,l),
(861,952,l)
);
},
{
ref = a;
}
);
width = 1172;
},
{
background = {
shapes = (
{
ref = a;
}
);
};
layerId = "C6C96970-2BBD-4A47-8C90-C83F37B7F23D";
shapes = (
{
closed = 1;
nodes = (
(339,-187,l),
(432,-214,l),
(724,600,l),
(623,600,l)
);
},
{
closed = 1;
nodes = (
(961,1260,l),
(870,1287,l),
(743,934,l),
(844,934,l)
);
},
{
ref = a;
}
);
width = 1174;
}
);
unicode = 11365;
},
{
glyphname = ae;
kernLeft = a;
kernRight = e;
layers = (
{
anchors = (
{
name = top;
pos = (896,1060);
}
);
background = {
shapes = (
{
closed = 1;
nodes = (
(725,644,qs),
(685,632,o),
(506,604,qs),
(326,576,o),
(131,440,o),
(131,153,o),
(308,-20,o),
(469,-20,qs),
(731,-20,o),
(878,158,q),
(913,72,o),
(1054,-20,o),
(1189,-20,qs),
(1408,-20,o),
(1587,125,o),
(1603,318,q),
(1433,318,l),
(1425,187,o),
(1368,151,qs),
(1352,141,o),
(1299,121,o),
(1079,121,o),
(973,222,o),
(973,328,qs),
(973,511,l),
(1609,511,l),
(1609,758,ls),
(1609,912,o),
(1401,1080,o),
(976,1080,o),
(887,939,q),
(860,1008,o),
(699,1080,o),
(590,1080,qs),
(384,1080,o),
(172,905,o),
(172,746,qs),
(172,718,l),
(353,718,l),
(353,745,ls),
(353,806,o),
(377,856,qs),
(416,940,o),
(785,940,o),
(785,759,qs),
(785,660,o)
);
},
{
closed = 1;
nodes = (
(382,425,o),
(437,455,o),
(518,478,o),
(730,514,o),
(785,547,q),
(785,273,l),
(771,226,o),
(723,188,qs),
(626,112,o),
(504,113,qs),
(382,113,o),
(336,187,qs),
(312,226,o),
(312,309,o),
(322,350,o),
(343,391,o)
);
},
{
closed = 1;
nodes = (
(973,856,o),
(1081,938,o),
(1315,938,o),
(1437,868,o),
(1437,778,qs),
(1437,633,l),
(973,633,l),
(973,760,ls)
);
}
);
};
layerId = "F85E8FEC-B3CD-4A54-BF30-AB1986ECE904";
shapes = (
{
closed = 1;
nodes = (
(710,-20,o),
(819,80,o),
(911,200,c),
(864,201,l),
(902,70,o),
(982,-21,o),
(1189,-21,cs),
(1479,-21,o),
(1582,60,o),
(1603,318,c),
(1433,318,l),
(1420,135,o),
(1355,121,o),
(1189,121,cs),
(1042,121,o),
(973,186,o),
(973,328,cs),
(973,511,l),
(1609,511,l),
(1609,758,ls),
(1609,959,o),
(1473,1080,o),
(1197,1080,cs),
(1052,1080,o),
(949,1037,o),
(887,939,c),
(850,1035,o),
(728,1080,o),
(590,1080,cs),
(312,1080,o),
(172,961,o),
(172,746,cs),
(172,718,l),
(353,718,l),
(353,742,ls),
(353,841,o),
(376,940,o),
(589,940,cs),
(748,940,o),
(784,860,o),
(784,761,cs),
(784,655,o),
(764,646,o),
(539,610,cs),
(164,549,o),
(131,423,o),
(131,283,cs),
(131,120,o),
(244,-20,o),
(469,-20,cs)
);
},
{
closed = 1;
nodes = (
(392,113,o),
(312,165,o),
(312,284,cs),
(312,378,o),
(364,446,o),
(532,479,cs),
(741,520,o),
(785,540,o),
(785,560,c),
(785,275,l),
(755,177,o),
(618,113,o),
(502,113,cs)
);
},
{
closed = 1;
nodes = (
(973,760,ls),
(973,891,o),
(1046,938,o),
(1196,938,cs),
(1341,938,o),
(1437,906,o),
(1437,778,cs),
(1437,633,l),
(973,633,l)
);
}
);
width = 1741;
},
{
anchors = (
{
name = top;
pos = (890,1074);
}
);
layerId = "C6C96970-2BBD-4A47-8C90-C83F37B7F23D";
shapes = (
{
closed = 1;
nodes = (
(634,-23,o),
(748,38,o),
(869,150,c),
(836,154,l),
(884,37,o),
(1004,-23,o),
(1186,-23,cs),
(1476,-23,o),
(1616,41,o),
(1622,353,c),
(1370,353,l),
(1366,184,o),
(1313,166,o),
(1190,166,cs),
(1077,166,o),
(1012,203,o),
(1012,321,cs),
(1012,514,l),
(1624,514,l),
(1624,745,ls),
(1624,961,o),
(1513,1097,o),
(1187,1097,cs),
(1056,1097,o),
(950,1055,o),
(878,967,c),
(831,1056,o),
(707,1097,o),
(573,1097,cs),
(278,1097,o),
(144,953,o),
(144,745,cs),
(144,719,l),
(400,719,l),
(400,755,ls),
(400,838,o),
(430,908,o),
(567,908,cs),
(695,908,o),
(739,852,o),
(739,770,cs),
(739,631,o),
(657,640,o),
(448,586,cs),
(141,508,o),
(107,420,o),
(112,268,cs),
(117,90,o),
(236,-23,o),
(420,-23,cs)
);
},
{
closed = 1;
nodes = (
(425,157,o),
(375,206,o),
(373,290,cs),
(372,351,o),
(396,418,o),
(527,447,cs),
(626,470,o),
(714,499,o),
(739,520,c),
(739,259,l),
(689,183,o),
(581,157,o),
(515,157,cs)
);
},
{
closed = 1;
nodes = (
(1012,760,ls),
(1012,874,o),
(1084,907,o),
(1193,907,cs),
(1302,907,o),
(1371,884,o),
(1371,765,cs),
(1371,655,l),
(1012,655,l)
);
}
);
width = 1734;
}
);
unicode = 230;
},
{
glyphname = b;
kernRight = b;
layers = (
{
anchors = (
{
name = bottom;
pos = (633,0);
},
{
name = top;
pos = (664,1378);
}
);
layerId = "F85E8FEC-B3CD-4A54-BF30-AB1986ECE904";
shapes = (
{
closed = 1;
nodes = (
(902,-22,o),
(1056,139,o),
(1056,352,cs),
(1056,736,ls),
(1056,936,o),
(925,1080,o),
(664,1080,cs),
(551,1080,o),
(442,1049,o),
(374,1010,c),
(374,1505,l),
(186,1505,l),
(186,0,l),
(325,0,l),
(349,71,l),
(405,36,o),
(500,-22,o),
(626,-22,cs)
);
},
{
closed = 1;
nodes = (
(509,126,o),
(429,157,o),
(374,188,c),
(374,870,l),
(444,902,o),
(553,936,o),
(641,936,cs),
(779,936,o),
(868,877,o),
(868,750,cs),
(868,332,ls),
(868,202,o),
(746,126,o),
(598,126,cs)
);
}
);
width = 1204;
},
{
anchors = (
{
name = bottom;
pos = (642,0);
},
{
name = top;
pos = (652,1475);
}
);
layerId = "C6C96970-2BBD-4A47-8C90-C83F37B7F23D";
shapes = (
{
closed = 1;
nodes = (
(916,-23,o),
(1082,120,o),
(1082,329,cs),
(1082,753,ls),
(1082,935,o),
(973,1097,o),
(661,1097,cs),
(570,1097,o),
(497,1074,o),
(432,1040,c),
(432,1516,l),
(160,1516,l),
(160,0,l),
(347,0,l),
(374,65,l),
(443,19,o),
(538,-23,o),
(655,-23,cs)
);
},
{
closed = 1;
nodes = (
(537,168,o),
(473,185,o),
(432,216,c),
(432,857,l),
(453,869,o),
(525,907,o),
(623,907,cs),
(744,907,o),
(810,865,o),
(810,758,cs),
(810,323,ls),
(810,215,o),
(727,168,o),
(610,168,cs)
);
}
);
width = 1206;
}
);
unicode = 98;
},
{
glyphname = "beta-latin";
layers = (
{
background = {
shapes = (
{
closed = 1;
nodes = (
(190,0,l),
(378,0,l),
(378,1131,ls),
(378,1305,o),
(497,1332,o),
(643,1332,cs),
(781,1332,o),
(869,1296,o),
(869,1119,cs),
(869,989,o),
(818,912,o),
(600,912,c),
(600,770,l),
(838,770,o),
(991,743,o),
(991,485,cs),
(991,182,o),
(786,168,o),
(518,148,c),
(536,0,l),
(942,0,o),
(1166,119,o),
(1166,488,cs),
(1166,786,o),
(1019,829,o),
(902,878,c),
(1010,908,o),
(1057,979,o),
(1057,1135,cs),
(1057,1347,o),
(933,1483,o),
(652,1483,cs),
(396,1483,o),
(190,1401,o),
(190,1103,cs)
);
}
);
};
layerId = "F85E8FEC-B3CD-4A54-BF30-AB1986ECE904";
shapes = (
{
closed = 1;
nodes = (
(415,16,o),
(554,-22,o),
(686,-22,cs),
(967,-22,o),
(1146,132,o),
(1146,382,cs),
(1146,454,ls),
(1146,672,o),
(1071,796,o),
(832,851,c),
(832,815,l),
(1002,849,o),
(1057,937,o),
(1057,1110,cs),
(1057,1367,o),
(921,1483,o),
(639,1483,cs),
(344,1483,o),
(190,1353,o),
(190,1103,cs),
(190,-408,l),
(378,-408,l),
(378,1131,ls),
(378,1271,o),
(456,1332,o),
(633,1332,cs),
(805,1332,o),
(869,1275,o),
(869,1104,cs),
(869,936,o),
(794,878,o),
(600,878,c),
(600,736,l),
(896,736,o),
(971,657,o),
(971,451,cs),
(971,372,ls),
(971,208,o),
(887,126,o),
(679,126,cs),
(556,126,o),
(425,157,o),
(374,198,c),
(329,71,l)
);
}
);
width = 1261;
},
{
background = {
shapes = (
{
pos = (-40,0);
ref = germandbls;
}
);
};
layerId = "C6C96970-2BBD-4A47-8C90-C83F37B7F23D";
shapes = (
{
closed = 1;
nodes = (
(432,6,o),
(508,-22,o),
(676,-22,cs),
(955,-22,o),
(1155,132,o),
(1155,382,cs),
(1155,434,ls),
(1155,652,o),
(1031,813,o),
(770,838,c),
(770,802,l),
(931,816,o),
(1064,937,o),
(1064,1130,cs),
(1064,1386,o),
(919,1525,o),
(604,1525,cs),
(273,1525,o),
(140,1372,o),
(140,1103,cs),
(140,-408,l),
(410,-408,l),
(410,1137,ls),
(410,1278,o),
(468,1329,o),
(598,1329,cs),
(725,1329,o),
(796,1272,o),
(796,1104,cs),
(796,951,o),
(713,893,o),
(579,893,c),
(579,701,l),
(798,701,o),
(883,647,o),
(883,451,cs),
(883,372,ls),
(883,256,o),
(788,174,o),
(648,174,cs),
(510,174,o),
(462,205,o),
(405,246,c),
(355,71,l)
);
}
);
width = 1229;
}
);
unicode = 42933;
},
{
glyphname = bhook;
layers = (
{
layerId = "F85E8FEC-B3CD-4A54-BF30-AB1986ECE904";
shapes = (
{
closed = 1;
nodes = (
(902,-22,o),
(1056,139,o),
(1056,352,cs),
(1056,736,ls),
(1056,940,o),
(921,1080,o),
(650,1080,cs),
(551,1080,o),
(442,1049,o),
(374,1010,c),
(374,1166,ls),
(374,1336,o),
(431,1363,o),
(534,1363,cs),
(567,1363,l),
(554,1505,l),
(498,1505,ls),
(276,1505,o),
(186,1413,o),
(186,1145,cs),
(186,0,l),
(325,0,l),
(349,71,l),
(405,36,o),
(500,-22,o),
(626,-22,cs)
);
},
{
closed = 1;
nodes = (
(509,126,o),
(429,157,o),
(374,188,c),
(374,870,l),
(444,902,o),
(553,936,o),
(641,936,cs),
(779,936,o),
(868,877,o),
(868,750,cs),
(868,332,ls),
(868,202,o),
(746,126,o),
(598,126,cs)
);
}
);
width = 1204;
},
{
layerId = "C6C96970-2BBD-4A47-8C90-C83F37B7F23D";
shapes = (
{
closed = 1;
nodes = (
(916,-23,o),
(1082,120,o),
(1082,329,cs),
(1082,753,ls),
(1082,934,o),
(974,1097,o),
(672,1097,cs),
(582,1097,o),
(497,1074,o),
(432,1040,c),
(432,1186,ls),
(432,1283,o),
(469,1327,o),
(548,1327,cs),
(605,1327,l),
(598,1515,l),
(504,1515,ls),
(241,1515,o),
(160,1403,o),
(160,1155,cs),
(160,0,l),
(347,0,l),
(374,65,l),
(443,19,o),
(538,-23,o),
(655,-23,cs)
);
},
{
closed = 1;
nodes = (
(537,168,o),
(473,185,o),
(432,216,c),
(432,857,l),
(453,869,o),
(525,907,o),
(623,907,cs),
(744,907,o),
(810,865,o),
(810,758,cs),
(810,323,ls),
(810,215,o),
(727,168,o),
(610,168,cs)
);
}
);
width = 1206;
}
);
unicode = 595;
},
{
glyphname = bilabialclick;
layers = (
{
layerId = "F85E8FEC-B3CD-4A54-BF30-AB1986ECE904";
shapes = (
{
closed = 1;
nodes = (
(1214,-22,o),
(1327,203,o),
(1327,500,cs),
(1327,928,ls),
(1327,1234,o),
(1216,1468,o),
(772,1468,cs),
(311,1468,o),
(200,1247,o),
(200,941,cs),
(200,486,ls),
(200,185,o),
(313,-22,o),
(772,-22,cs)
);
},
{
closed = 1;
nodes = (
(526,129,o),
(388,199,o),
(388,455,cs),
(388,978,ls),
(388,1235,o),
(528,1317,o),
(772,1317,cs),
(1018,1317,o),
(1139,1235,o),
(1139,978,cs),
(1139,455,ls),
(1139,199,o),
(1020,129,o),
(772,129,cs)
);
},
{
closed = 1;
nodes = (
(866,620,l),
(866,826,l),
(661,826,l),
(661,620,l)
);
}
);
width = 1526;
},
{
layerId = "C6C96970-2BBD-4A47-8C90-C83F37B7F23D";
shapes = (
{
closed = 1;
nodes = (
(1262,-26,o),
(1386,227,o),
(1386,517,cs),
(1386,948,ls),
(1386,1247,o),
(1264,1501,o),
(780,1501,cs),
(273,1501,o),
(152,1262,o),
(152,963,cs),
(152,501,ls),
(152,209,o),
(275,-26,o),
(780,-26,cs)
);
},
{
closed = 1;
nodes = (
(558,167,o),
(424,225,o),
(424,468,cs),
(424,1003,ls),
(424,1245,o),
(560,1308,o),
(780,1308,cs),
(1002,1308,o),
(1114,1241,o),
(1114,1003,cs),
(1114,468,ls),
(1114,226,o),
(1004,167,o),
(780,167,cs)
);
},
{
closed = 1;
nodes = (
(893,615,l),
(893,860,l),
(645,860,l),
(645,615,l)
);
}
);
width = 1538;
}
);
unicode = 664;
},
{
glyphname = bstroke;
layers = (
{
layerId = "F85E8FEC-B3CD-4A54-BF30-AB1986ECE904";
shapes = (
{
closed = 1;
nodes = (
(30,1205,l),
(701,1205,l),
(701,1349,l),
(30,1349,l)
);
},
{
ref = b;
}
);
width = 1204;
},
{
layerId = "C6C96970-2BBD-4A47-8C90-C83F37B7F23D";
shapes = (
{
closed = 1;
nodes = (
(30,1209,l),
(716,1209,l),
(716,1399,l),
(30,1399,l)
);
},
{
ref = b;
}
);
width = 1206;
}
);
unicode = 384;
},
{
glyphname = c;
kernLeft = c;
layers = (
{
anchors = (
{
name = bottom;
pos = (573,0);
},
{
name = top;
pos = (573,1060);
}
);
layerId = "F85E8FEC-B3CD-4A54-BF30-AB1986ECE904";
shapes = (
{
closed = 1;
nodes = (
(867,-22,o),
(969,66,o),
(990,310,c),
(816,310,l),
(802,150,o),
(765,122,o),
(579,122,cs),
(427,122,o),
(336,176,o),
(336,328,cs),
(336,743,ls),
(336,884,o),
(417,936,o),
(579,936,cs),
(755,936,o),
(813,901,o),
(813,707,c),
(992,724,l),
(992,1009,o),
(828,1080,o),
(574,1080,cs),
(311,1080,o),
(148,948,o),
(148,748,cs),
(148,344,ls),
(148,148,o),
(263,-22,o),
(579,-22,cs)
);
}
);
width = 1106;
},
{
anchors = (
{
name = bottom;
pos = (574,0);
},
{
name = top;
pos = (574,1074);
}
);
layerId = "C6C96970-2BBD-4A47-8C90-C83F37B7F23D";
shapes = (
{
closed = 1;
nodes = (
(915,-23,o),
(1008,83,o),
(1008,380,c),
(754,380,l),
(754,197,o),
(721,168,o),
(579,168,cs),
(455,168,o),
(396,207,o),
(396,322,cs),
(396,756,ls),
(396,867,o),
(463,907,o),
(579,907,cs),
(719,907,o),
(753,874,o),
(753,679,c),
(1009,699,l),
(1009,1007,o),
(858,1097,o),
(569,1097,cs),
(288,1097,o),
(124,972,o),
(124,757,cs),
(124,327,ls),
(124,140,o),
(206,-23,o),
(573,-23,cs)
);
}
);
width = 1111;
}
);
unicode = 99;
},
{
glyphname = "chi-latin";
kernLeft = x;
kernRight = x;
layers = (
{
background = {
shapes = (
{
closed = 1;
nodes = (
(802,-408,l),
(1000,-408,l),
(268,1060,l),
(70,1060,l)
);
},
{
closed = 1;
nodes = (
(995,1060,l),
(804,1060,l),
(516,481,l),
(617,310,l)
);
},
{
closed = 1;
nodes = (
(64,-408,l),
(257,-408,l),
(541,198,l),
(440,368,l)
);
}
);
};
layerId = "F85E8FEC-B3CD-4A54-BF30-AB1986ECE904";
shapes = (
{
closed = 1;
nodes = (
(1040,-408,l),
(1053,-266,l),
(1020,-266,ls),
(952,-266,o),
(916,-240,o),
(873,-153,cs),
(366,864,ls),
(287,1023,o),
(222,1060,o),
(86,1060,cs),
(30,1060,l),
(17,918,l),
(50,918,ls),
(118,918,o),
(154,892,o),
(197,805,cs),
(704,-212,ls),
(783,-370,o),
(848,-408,o),
(984,-408,cs)
);
},
{
closed = 1;
nodes = (
(257,-408,l),
(541,198,l),
(440,368,l),
(64,-408,l)
);
},
{
closed = 1;
nodes = (
(995,1060,l),
(804,1060,l),
(516,481,l),
(617,310,l)
);
}
);
width = 1056;
},
{
layerId = "C6C96970-2BBD-4A47-8C90-C83F37B7F23D";
shapes = (
{
closed = 1;
nodes = (
(1027,-410,l),
(1037,-222,l),
(1000,-222,ls),
(931,-222,o),
(906,-201,o),
(870,-125,cs),
(408,865,ls),
(334,1024,o),
(275,1074,o),
(111,1074,cs),
(20,1074,l),
(10,886,l),
(47,886,ls),
(116,886,o),
(142,864,o),
(177,789,cs),
(639,-201,ls),
(714,-361,o),
(772,-410,o),
(936,-410,cs)
);
},
{
closed = 1;
nodes = (
(301,-410,l),
(524,115,l),
(404,374,l),
(36,-410,l)
);
},
{
closed = 1;
nodes = (
(1002,1074,l),
(739,1074,l),
(516,552,l),
(639,293,l)
);
}
);
width = 1040;
}
);
unicode = 43859;
},
{
glyphname = chook;
kernLeft = c;
layers = (
{
layerId = "F85E8FEC-B3CD-4A54-BF30-AB1986ECE904";
shapes = (
{
closed = 1;
nodes = (
(867,-22,o),
(969,66,o),
(990,310,c),
(816,310,l),
(802,150,o),
(765,122,o),
(579,122,cs),
(427,122,o),
(336,176,o),
(336,328,cs),
(336,743,ls),
(336,884,o),
(417,936,o),
(579,936,cs),
(755,936,o),
(813,901,o),
(813,707,c),
(992,724,l),
(992,1107,ls),
(992,1254,o),
(1032,1294,o),
(1152,1294,cs),
(1185,1294,l),
(1172,1436,l),
(1116,1436,ls),
(906,1436,o),
(826,1344,o),
(826,1106,cs),
(826,971,l),
(846,1000,l),
(782,1055,o),
(698,1080,o),
(574,1080,cs),
(311,1080,o),
(148,948,o),
(148,748,cs),
(148,344,ls),
(148,148,o),
(263,-22,o),
(579,-22,cs)
);
}
);
width = 1106;
},
{
layerId = "C6C96970-2BBD-4A47-8C90-C83F37B7F23D";
shapes = (
{
closed = 1;
nodes = (
(915,-23,o),
(1008,83,o),
(1008,380,c),
(754,380,l),
(754,197,o),
(721,168,o),
(579,168,cs),
(455,168,o),
(396,207,o),
(396,322,cs),
(396,756,ls),
(396,867,o),
(463,907,o),
(579,907,cs),
(719,907,o),
(753,874,o),
(753,679,c),
(1009,699,l),
(1009,1137,ls),
(1009,1234,o),
(1046,1278,o),
(1125,1278,cs),
(1152,1278,l),
(1145,1466,l),
(1081,1466,ls),
(864,1466,o),
(783,1354,o),
(783,1126,cs),
(783,999,l),
(803,1030,l),
(750,1073,o),
(672,1097,o),
(569,1097,cs),
(288,1097,o),
(124,972,o),
(124,757,cs),
(124,327,ls),
(124,140,o),
(206,-23,o),
(573,-23,cs)
);
}
);
width = 1111;
}
);
unicode = 392;
},
{
glyphname = cstroke;
kernLeft = c;
layers = (
{
layerId = "F85E8FEC-B3CD-4A54-BF30-AB1986ECE904";
shapes = (
{
closed = 1;
nodes = (
(333,-226,l),
(871,1220,l),
(781,1251,l),
(241,-195,l)
);
},
{
ref = c;
}
);
width = 1106;
},
{
layerId = "C6C96970-2BBD-4A47-8C90-C83F37B7F23D";
shapes = (
{
closed = 1;
nodes = (
(342,-214,l),
(871,1260,l),
(780,1287,l),
(249,-187,l)
);
},
{
ref = c;
}
);
width = 1111;
}
);
unicode = 572;
},
{
glyphname = d;
kernLeft = c;
layers = (
{
anchors = (
{
name = bottom;
pos = (600,0);
},
{
name = caron.alt;
pos = (826,773);
},
{
name = center;
pos = (600,530);
},
{
name = mid;
pos = (917,1275);
},
{
name = top;
pos = (564,1378);
}
);
layerId = "F85E8FEC-B3CD-4A54-BF30-AB1986ECE904";
shapes = (
{
closed = 1;
nodes = (
(148,131,o),
(263,-22,o),
(568,-22,cs),
(677,-22,o),
(793,22,o),
(855,70,c),
(886,0,l),
(1014,0,l),
(1014,1505,l),
(826,1505,l),
(826,1040,l),
(760,1064,o),
(658,1080,o),
(591,1080,cs),
(283,1080,o),
(148,948,o),
(148,735,cs),
(148,335,ls)
);
},
{
closed = 1;
nodes = (
(783,163,o),
(687,126,o),
(580,126,cs),
(442,126,o),
(336,189,o),
(336,321,cs),
(336,756,ls),
(336,886,o),
(445,936,o),
(593,936,cs),
(681,936,o),
(770,919,o),
(826,892,c),
(826,189,l)
);
}
);
width = 1200;
},
{
anchors = (
{
name = bottom;
pos = (599,0);
},
{
name = caron.alt;
pos = (933,731);
},
{
name = center;
pos = (599,537);
},
{
name = mid;
pos = (910,1313);
},
{
name = top;
pos = (593,1475);
}
);
guides = (
{
pos = (2274,1515);
}
);
layerId = "C6C96970-2BBD-4A47-8C90-C83F37B7F23D";
shapes = (
{
closed = 1;
nodes = (
(124,108,o),
(260,-23,o),
(551,-23,cs),
(661,-23,o),
(759,14,o),
(829,63,c),
(858,0,l),
(1042,0,l),
(1042,1515,l),
(770,1515,l),
(770,1059,l),
(707,1082,o),
(631,1097,o),
(570,1097,cs),
(257,1097,o),
(124,951,o),
(124,753,cs),
(124,324,ls)
);
},
{
closed = 1;
nodes = (
(728,186,o),
(658,168,o),
(583,168,cs),
(463,168,o),
(396,211,o),
(396,320,cs),
(396,759,ls),
(396,868,o),
(469,907,o),
(593,907,cs),
(669,907,o),
(734,887,o),
(770,870,c),
(770,211,l)
);
}
);
width = 1198;
}
);
unicode = 100;
},
{
glyphname = dcaron;
kernLeft = c;
layers = (
{
background = {
shapes = (
{
closed = 1;
nodes = (
(1395,993,qs),
(1515,1150,o),
(1515,1323,qs),
(1515,1506,l),
(1258,1506,l),
(1258,1273,l),
(1399,1273,l),
(1400,1227,o),
(1386,1181,qs),
(1360,1097,o),
(1262,979,q),
(1343,935,l),
(1369,959,o)
);
},
{
closed = 1;
nodes = (
(148,900,o),
(148,735,qs),
(148,335,ls),
(148,171,o),
(351,-22,o),
(568,-22,qs),
(646,-22,o),
(806,32,o),
(855,70,q),
(886,0,l),
(1014,0,l),
(1014,1506,l),
(826,1506,l),
(826,1040,l),
(719,1080,o),
(591,1080,qs),
(366,1080,o)
);
},
{
closed = 1;
nodes = (
(336,756,ls),
(336,936,o),
(605,936,qs),
(735,936,o),
(826,892,q),
(826,189,l),
(724,126,o),
(562,126,qs),
(471,126,o),
(336,226,o),
(336,321,qs)
);
}
);
};
layerId = "F85E8FEC-B3CD-4A54-BF30-AB1986ECE904";
shapes = (
{
alignment = -1;
ref = d;
},
{
pos = (1202,0);
ref = caroncomb.alt;
}
);
width = 1440;
},
{
background = {
shapes = (
{
closed = 1;
nodes = (
(1640,1160,o),
(1640,1293,qs),
(1640,1516,l),
(1318,1516,l),
(1318,1240,l),
(1483,1240,l),
(1483,1148,o),
(1388,955,o),
(1337,897,q),
(1444,851,l),
(1508,909,o)
);
},
{
closed = 1;
nodes = (
(396,759,ls),
(396,838,o),
(496,907,o),
(692,907,o),
(770,870,q),
(770,211,l),
(698,168,o),
(490,168,o),
(396,240,o),
(396,320,qs)
);
},
{
closed = 1;
nodes = (
(829,63,q),
(858,0,l),
(1042,0,l),
(1042,1516,l),
(770,1516,l),
(770,1059,l),
(666,1097,o),
(570,1097,qs),
(345,1097,o),
(124,910,o),
(124,753,qs),
(124,324,ls),
(124,158,o),
(337,-23,o),
(551,-23,qs),
(706,-23,o)
);
}
);
};
layerId = "C6C96970-2BBD-4A47-8C90-C83F37B7F23D";
shapes = (
{
alignment = -1;
ref = d;
},
{
pos = (1213,0);
ref = caroncomb.alt;
}
);
width = 1509;
}
);
unicode = 271;
},
{
glyphname = dcroat;
kernLeft = c;
layers = (
{
layerId = "F85E8FEC-B3CD-4A54-BF30-AB1986ECE904";
shapes = (
{
closed = 1;
nodes = (
(630,1213,l),
(1159,1213,l),
(1159,1360,l),
(630,1360,l)
);
},
{
ref = d;
}
);
width = 1200;
},
{
layerId = "C6C96970-2BBD-4A47-8C90-C83F37B7F23D";
shapes = (
{
closed = 1;
nodes = (
(563,1224,l),
(1187,1224,l),
(1187,1381,l),
(563,1381,l)
);
},
{
ref = d;
}
);
width = 1198;
}
);
unicode = 273;
},
{
glyphname = dhook;
kernLeft = c;
layers = (
{
layerId = "F85E8FEC-B3CD-4A54-BF30-AB1986ECE904";
shapes = (
{
closed = 1;
nodes = (
(677,-22,o),
(793,22,o),
(855,70,c),
(886,0,l),
(1014,0,l),
(1014,1166,ls),
(1014,1317,o),
(1054,1363,o),
(1154,1363,cs),
(1187,1363,l),
(1174,1505,l),
(1118,1505,ls),
(916,1505,o),
(826,1413,o),
(826,1165,cs),
(826,1040,l),
(760,1064,o),
(658,1080,o),
(591,1080,cs),
(283,1080,o),
(148,948,o),
(148,735,cs),
(148,335,ls),
(148,131,o),
(263,-22,o),
(568,-22,cs)
);
},
{
closed = 1;
nodes = (
(442,126,o),
(336,189,o),
(336,321,cs),
(336,756,ls),
(336,886,o),
(445,936,o),
(593,936,cs),
(681,936,o),
(770,919,o),
(826,892,c),
(826,189,l),
(783,163,o),
(687,126,o),
(580,126,cs)
);
}
);
width = 1200;
},
{
layerId = "C6C96970-2BBD-4A47-8C90-C83F37B7F23D";
shapes = (
{
closed = 1;
nodes = (
(661,-23,o),
(759,14,o),
(829,63,c),
(858,0,l),
(1042,0,l),
(1042,1186,ls),
(1042,1283,o),
(1069,1327,o),
(1138,1327,cs),
(1185,1327,l),
(1178,1515,l),
(1094,1515,ls),
(851,1515,o),
(770,1403,o),
(770,1185,cs),
(770,1059,l),
(707,1082,o),
(631,1097,o),
(570,1097,cs),
(257,1097,o),
(124,951,o),
(124,753,cs),
(124,324,ls),
(124,108,o),
(260,-23,o),
(551,-23,cs)
);
},
{
closed = 1;
nodes = (
(463,168,o),
(396,211,o),
(396,320,cs),
(396,759,ls),
(396,868,o),
(469,907,o),
(593,907,cs),
(669,907,o),
(734,887,o),
(770,870,c),
(770,211,l),
(728,186,o),
(658,168,o),
(583,168,cs)
);
}
);
width = 1198;
}
);
unicode = 599;
},
{
glyphname = dtail;
kernLeft = c;
layers = (
{
background = {
shapes = (
{
closed = 0;
nodes = (
(841,-250,l),
(873,-350,o),
(924,-408,o),
(1065,-408,cs),
(1103,-408,l),
(1125,-264,l),
(1034,-264,o),
(1014,-244,o),
(1014,-132,cs)
);
}
);
};
layerId = "F85E8FEC-B3CD-4A54-BF30-AB1986ECE904";
shapes = (
{
closed = 1;
nodes = (
(1103,-408,l),
(1125,-264,l),
(1034,-264,o),
(1014,-244,o),
(1014,-132,cs),
(1014,1505,l),
(826,1505,l),
(826,1040,l),
(760,1064,o),
(658,1080,o),
(591,1080,cs),
(283,1080,o),
(148,948,o),
(148,735,cs),
(148,335,ls),
(148,131,o),
(263,-22,o),
(568,-22,cs),
(688,-22,o),
(816,31,o),
(872,94,c),
(826,111,l),
(826,-180,ls),
(826,-320,o),
(909,-408,o),
(1050,-408,cs)
);
},
{
closed = 1;
nodes = (
(442,126,o),
(336,189,o),
(336,321,cs),
(336,756,ls),
(336,886,o),
(445,936,o),
(593,936,cs),
(681,936,o),
(770,919,o),
(826,892,c),
(826,189,l),
(783,163,o),
(687,126,o),
(580,126,cs)
);
}
);
width = 1200;
},
{
background = {
shapes = (
{
closed = 0;
nodes = (
(796,-283,l),
(835,-370,o),
(912,-410,o),
(1061,-410,cs),
(1118,-410,l),
(1129,-212,l),
(1062,-212,o),
(1042,-192,o),
(1042,-94,cs)
);
}
);
};
layerId = "C6C96970-2BBD-4A47-8C90-C83F37B7F23D";
shapes = (
{
closed = 1;
nodes = (
(1118,-410,l),
(1129,-212,l),
(1062,-212,o),
(1042,-192,o),
(1042,-94,cs),
(1042,1515,l),
(770,1515,l),
(770,1059,l),
(707,1082,o),
(631,1097,o),
(570,1097,cs),
(257,1097,o),
(124,951,o),
(124,753,cs),
(124,324,ls),
(124,108,o),
(260,-23,o),
(551,-23,cs),
(672,-23,o),
(779,22,o),
(849,98,c),
(770,104,l),
(770,-123,ls),
(770,-293,o),
(866,-410,o),
(1041,-410,cs)
);
},
{
closed = 1;
nodes = (
(463,168,o),
(396,211,o),
(396,320,cs),
(396,759,ls),
(396,868,o),
(469,907,o),
(593,907,cs),
(669,907,o),
(734,887,o),
(770,870,c),
(770,211,l),
(728,186,o),
(658,168,o),
(583,168,cs)
);
}
);
width = 1198;
}
);
unicode = 598;
},
{
glyphname = eth;
kernLeft = c;
layers = (
{
layerId = "F85E8FEC-B3CD-4A54-BF30-AB1986ECE904";
shapes = (
{
closed = 1;
nodes = (
(970,-20,o),
(1010,170,o),
(1010,365,cs),
(1010,736,ls),
(1010,1058,o),
(924,1312,o),
(693,1427,c),
(792,1565,l),
(697,1617,l),
(595,1466,l),
(463,1501,o),
(365,1512,o),
(239,1512,c),
(210,1384,l),
(329,1384,o),
(410,1371,o),
(506,1341,c),
(376,1152,l),
(471,1100,l),
(612,1304,l),
(734,1238,o),
(822,1112,o),
(822,911,c),
(795,934,o),
(693,975,o),
(577,975,cs),
(314,975,o),
(150,846,o),
(150,646,cs),
(150,314,ls),
(150,118,o),
(271,-20,o),
(587,-20,cs)
);
},
{
closed = 1;
nodes = (
(440,121,o),
(337,166,o),
(337,308,cs),
(337,652,ls),
(337,783,o),
(441,833,o),
(587,833,cs),
(647,833,o),
(778,813,o),
(825,783,c),
(825,642,o),
(825,500,o),
(825,359,cs),
(825,175,o),
(758,121,o),
(587,121,cs)
);
}
);
width = 1158;
},
{
background = {
shapes = (
{
closed = 1;
nodes = (
(166,342,ls),
(166,118,o),
(326,-23,o),
(677,-23,cs),
(1060,-23,o),
(1180,195,o),
(1180,460,cs),
(1180,536,ls),
(1180,1137,o),
(933,1376,o),
(684,1448,c),
(758,1598,l),
(638,1655,l),
(553,1485,l),
(438,1509,o),
(331,1507,o),
(257,1502,c),
(233,1335,l),
(302,1334,o),
(386,1333,o),
(471,1318,c),
(394,1167,l),
(513,1110,l),
(602,1284,l),
(720,1250,o),
(841,1138,o),
(864,921,c),
(837,944,o),
(687,975,o),
(621,975,cs),
(358,975,o),
(166,846,o),
(166,618,cs)
);
},
{
closed = 1;
nodes = (
(910,258,o),
(890,178,o),
(677,178,cs),
(510,178,o),
(444,221,o),
(444,333,cs),
(444,612,ls),
(444,743,o),
(531,793,o),
(677,793,cs),
(737,793,o),
(844,766,o),
(887,736,c),
(902,654,o),
(910,497,o),
(910,428,cs)
);
}
);
};
layerId = "C6C96970-2BBD-4A47-8C90-C83F37B7F23D";
shapes = (
{
closed = 1;
nodes = (
(1004,-23,o),
(1124,195,o),
(1124,460,cs),
(1124,636,ls),
(1124,1077,o),
(927,1376,o),
(678,1448,c),
(752,1598,l),
(632,1655,l),
(546,1483,l),
(432,1498,o),
(361,1502,o),
(257,1502,c),
(233,1335,l),
(302,1335,o),
(380,1333,o),
(465,1318,c),
(388,1167,l),
(507,1110,l),
(596,1284,l),
(714,1250,o),
(785,1138,o),
(808,961,c),
(776,988,o),
(701,1015,o),
(585,1015,cs),
(352,1015,o),
(166,886,o),
(166,658,cs),
(166,342,ls),
(166,118,o),
(326,-23,o),
(641,-23,cs)
);
},
{
closed = 1;
nodes = (
(504,178,o),
(438,221,o),
(438,333,cs),
(438,652,ls),
(438,783,o),
(525,833,o),
(641,833,cs),
(721,833,o),
(788,806,o),
(831,776,c),
(846,654,o),
(854,497,o),
(854,428,cs),
(854,258,o),
(834,178,o),
(641,178,cs)
);
}
);
width = 1256;
}
);
unicode = 240;
},
{
glyphname = e;
kernLeft = c;
kernRight = e;
layers = (
{
anchors = (
{
name = bottom;
pos = (589,0);
},
{
name = ogonek;
pos = (806,8);
},
{
name = top;
pos = (584,1060);
}
);
layerId = "F85E8FEC-B3CD-4A54-BF30-AB1986ECE904";
shapes = (
{
closed = 1;
nodes = (
(148,110,o),
(273,-22,o),
(589,-22,cs),
(883,-22,o),
(978,32,o),
(1004,282,c),
(838,282,l),
(822,122,o),
(766,122,o),
(589,122,cs),
(389,122,o),
(336,185,o),
(336,357,cs),
(336,506,l),
(1006,506,l),
(1006,758,ls),
(1006,959,o),
(873,1080,o),
(582,1080,cs),
(278,1080,o),
(148,943,o),
(148,743,cs),
(148,374,ls)
);
},
{
closed = 1;
nodes = (
(336,633,l),
(336,760,ls),
(336,891,o),
(432,936,o),
(582,936,cs),
(727,936,o),
(824,906,o),
(824,778,cs),
(824,633,l)
);
}
);
width = 1138;
},
{
anchors = (
{
name = bottom;
pos = (586,0);
},
{
name = ogonek;
pos = (806,8);
},
{
name = top;
pos = (592,1074);
}
);
layerId = "C6C96970-2BBD-4A47-8C90-C83F37B7F23D";
shapes = (
{
closed = 1;
nodes = (
(124,60,o),
(323,-23,o),
(586,-23,cs),
(890,-23,o),
(1038,64,o),
(1038,330,c),
(786,330,l),
(786,198,o),
(746,166,o),
(591,166,cs),
(461,166,o),
(396,183,o),
(396,310,cs),
(396,485,l),
(1039,485,l),
(1039,745,ls),
(1039,961,o),
(913,1097,o),
(582,1097,cs),
(303,1097,o),
(124,974,o),
(124,755,cs),
(124,336,ls)
);
},
{
closed = 1;
nodes = (
(396,651,l),
(396,772,ls),
(396,886,o),
(480,907,o),
(589,907,cs),
(698,907,o),
(782,896,o),
(782,777,cs),
(782,651,l)
);
}
);
width = 1149;
}
);
unicode = 101;
},
{
glyphname = eopen;
layers = (
{
background = {
shapes = (
{
pos = (-24,0);
ref = e;
}
);
};
layerId = "F85E8FEC-B3CD-4A54-BF30-AB1986ECE904";
shapes = (
{
closed = 1;
nodes = (
(840,-22,o),
(947,61,o),
(978,312,c),
(798,312,l),
(783,158,o),
(725,122,o),
(540,122,cs),
(389,122,o),
(312,189,o),
(312,318,cs),
(312,454,o),
(366,505,o),
(626,505,c),
(626,634,l),
(383,634,o),
(336,668,o),
(336,799,cs),
(336,875,o),
(393,936,o),
(543,936,cs),
(748,936,o),
(789,877,o),
(789,735,c),
(969,752,l),
(969,1025,o),
(783,1080,o),
(544,1080,cs),
(312,1080,o),
(151,996,o),
(151,801,cs),
(151,648,o),
(221,559,o),
(405,559,c),
(405,568,l),
(226,568,o),
(124,482,o),
(124,288,cs),
(124,84,o),
(276,-22,o),
(540,-22,cs)
);
}
);
width = 1092;
},
{
layerId = "C6C96970-2BBD-4A47-8C90-C83F37B7F23D";
shapes = (
{
closed = 1;
nodes = (
(905,-23,o),
(1025,100,o),
(1025,314,c),
(771,314,l),
(771,205,o),
(712,166,o),
(565,166,cs),
(424,166,o),
(380,207,o),
(380,316,cs),
(380,440,o),
(436,476,o),
(623,476,c),
(623,642,l),
(420,642,o),
(387,685,o),
(387,777,cs),
(387,855,o),
(428,907,o),
(570,907,cs),
(724,907,o),
(766,871,o),
(766,731,c),
(1020,751,l),
(1020,1003,o),
(845,1097,o),
(572,1097,cs),
(304,1097,o),
(119,990,o),
(119,791,cs),
(119,690,o),
(155,551,o),
(353,551,c),
(353,564,l),
(165,564,o),
(108,439,o),
(108,306,cs),
(108,115,o),
(238,-23,o),
(572,-23,cs)
);
}
);
width = 1127;
}
);
unicode = 603;
},
{
glyphname = esh;
layers = (
{
layerId = "F85E8FEC-B3CD-4A54-BF30-AB1986ECE904";
shapes = (
{
closed = 1;
nodes = (
(141,-408,ls),
(359,-408,o),
(467,-322,o),
(467,-124,cs),
(467,1239,ls),
(467,1315,o),
(505,1372,o),
(620,1372,cs),
(736,1372,l),
(724,1505,l),
(605,1505,ls),
(387,1505,o),
(279,1419,o),
(279,1221,cs),
(279,-142,ls),
(279,-218,o),
(241,-275,o),
(126,-275,cs),
(10,-275,l),
(22,-408,l)
);
}
);
width = 746;
},
{
layerId = "C6C96970-2BBD-4A47-8C90-C83F37B7F23D";
shapes = (
{
closed = 1;
nodes = (
(139,-410,ls),
(394,-410,o),
(501,-274,o),
(501,-19,cs),
(501,1186,ls),
(501,1258,o),
(522,1327,o),
(640,1327,cs),
(724,1327,l),
(717,1516,l),
(591,1516,ls),
(336,1516,o),
(229,1380,o),
(229,1125,cs),
(229,-80,ls),
(229,-152,o),
(208,-221,o),
(90,-221,cs),
(6,-221,l),
(13,-410,l)
);
}
);
width = 730;
}
);
unicode = 643;
},
{
glyphname = estroke;
kernLeft = c;
kernRight = e;
layers = (
{
layerId = "F85E8FEC-B3CD-4A54-BF30-AB1986ECE904";
shapes = (
{
closed = 1;
nodes = (
(332,-226,l),
(870,1220,l),
(780,1251,l),
(240,-195,l)
);
},
{
ref = e;
}
);
width = 1138;
},
{
layerId = "C6C96970-2BBD-4A47-8C90-C83F37B7F23D";
shapes = (
{
closed = 1;
nodes = (
(355,-214,l),
(884,1260,l),
(793,1287,l),
(262,-187,l)
);
},
{
ref = e;
}
);
width = 1149;
}
);
unicode = 583;
},
{
glyphname = eturned;
layers = (
{
layerId = "F85E8FEC-B3CD-4A54-BF30-AB1986ECE904";
shapes = (
{
closed = 1;
nodes = (
(860,-20,o),
(990,117,o),
(990,317,cs),
(990,686,ls),
(990,950,o),
(865,1082,o),
(549,1082,cs),
(255,1082,o),
(160,1028,o),
(134,778,c),
(300,778,l),
(316,938,o),
(372,938,o),
(549,938,cs),
(749,938,o),
(802,875,o),
(802,703,cs),
(802,554,l),
(132,554,l),
(132,302,ls),
(132,101,o),
(265,-20,o),
(556,-20,cs)
);
},
{
closed = 1;
nodes = (
(411,124,o),
(314,154,o),
(314,282,cs),
(314,427,l),
(802,427,l),
(802,300,ls),
(802,169,o),
(706,124,o),
(556,124,cs)
);
}
);
width = 1138;
},
{
layerId = "C6C96970-2BBD-4A47-8C90-C83F37B7F23D";
shapes = (
{
closed = 1;
nodes = (
(846,-23,o),
(1025,100,o),
(1025,319,cs),
(1025,738,ls),
(1025,1014,o),
(826,1097,o),
(563,1097,cs),
(259,1097,o),
(111,1010,o),
(111,744,c),
(363,744,l),
(363,876,o),
(403,908,o),
(558,908,cs),
(688,908,o),
(753,891,o),
(753,764,cs),
(753,589,l),
(110,589,l),
(110,329,ls),
(110,113,o),
(236,-23,o),
(567,-23,cs)
);
},
{
closed = 1;
nodes = (
(451,167,o),
(367,178,o),
(367,297,cs),
(367,423,l),
(753,423,l),
(753,302,ls),
(753,188,o),
(669,167,o),
(560,167,cs)
);
}
);
width = 1149;
}
);
unicode = 477;
},
{
glyphname = schwa;
layers = (
{
background = {
shapes = (
{
closed = 1;
nodes = (
(860,-20,o),
(990,117,o),
(990,317,cs),
(990,686,ls),
(990,950,o),
(865,1082,o),
(539,1082,cs),
(255,1082,o),
(134,991,o),
(134,758,c),
(300,758,l),
(300,899,o),
(343,938,o),
(539,938,cs),
(749,938,o),
(802,875,o),
(802,703,cs),
(802,599,l),
(132,599,l),
(132,302,ls),
(132,101,o),
(265,-20,o),
(556,-20,cs)
);
},
{
closed = 1;
nodes = (
(411,124,o),
(314,154,o),
(314,282,cs),
(314,472,l),
(802,472,l),
(802,300,ls),
(802,169,o),
(706,124,o),
(556,124,cs)
);
}
);
};
layerId = "F85E8FEC-B3CD-4A54-BF30-AB1986ECE904";
shapes = (
{
closed = 1;
nodes = (
(860,-20,o),
(990,117,o),
(990,317,cs),
(990,686,ls),
(990,950,o),
(865,1082,o),
(549,1082,cs),
(255,1082,o),
(160,1028,o),
(134,778,c),
(300,778,l),
(316,938,o),
(372,938,o),
(549,938,cs),
(749,938,o),
(802,875,o),
(802,703,cs),
(802,554,l),
(132,554,l),
(132,302,ls),
(132,101,o),
(265,-20,o),
(556,-20,cs)
);
},
{
closed = 1;
nodes = (
(411,124,o),
(314,154,o),
(314,282,cs),
(314,427,l),
(802,427,l),
(802,300,ls),
(802,169,o),
(706,124,o),
(556,124,cs)
);
}
);
width = 1138;
},
{
background = {
shapes = (
{
closed = 1;
nodes = (
(846,-23,o),
(1025,100,o),
(1025,319,cs),
(1025,738,ls),
(1025,1014,o),
(826,1097,o),
(563,1097,cs),
(259,1097,o),
(111,1010,o),
(111,744,c),
(363,744,l),
(363,876,o),
(403,908,o),
(558,908,cs),
(688,908,o),
(753,891,o),
(753,764,cs),
(753,623,l),
(110,623,l),
(110,329,ls),
(110,113,o),
(236,-23,o),
(567,-23,cs)
);
},
{
closed = 1;
nodes = (
(451,167,o),
(367,178,o),
(367,297,cs),
(367,457,l),
(753,457,l),
(753,302,ls),
(753,188,o),
(669,167,o),
(560,167,cs)
);
}
);
};
layerId = "C6C96970-2BBD-4A47-8C90-C83F37B7F23D";
shapes = (
{
closed = 1;
nodes = (
(846,-23,o),
(1025,100,o),
(1025,319,cs),
(1025,738,ls),
(1025,1014,o),
(826,1097,o),
(563,1097,cs),
(259,1097,o),
(111,1010,o),
(111,744,c),
(363,744,l),
(363,876,o),
(403,908,o),
(558,908,cs),
(688,908,o),
(753,891,o),
(753,764,cs),
(753,589,l),
(110,589,l),
(110,329,ls),
(110,113,o),
(236,-23,o),
(567,-23,cs)
);
},
{
closed = 1;
nodes = (
(451,167,o),
(367,178,o),
(367,297,cs),
(367,423,l),
(753,423,l),
(753,302,ls),
(753,188,o),
(669,167,o),
(560,167,cs)
);
}
);
width = 1149;
}
);
unicode = 601;
},
{
glyphname = ezh;
layers = (
{
anchors = (
{
name = bottom;
pos = (515,0);
},
{
name = top;
pos = (515,1060);
}
);
background = {
shapes = (
{
closed = 1;
nodes = (
(113,-293,o),
(223,-406,o),
(531,-406,cs),
(802,-406,o),
(958,-262,o),
(958,14,cs),
(958,258,o),
(866,350,o),
(709,384,c),
(869,411,o),
(931,517,o),
(931,707,cs),
(931,970,o),
(765,1084,o),
(527,1084,cs),
(281,1084,o),
(90,1009,o),
(90,641,c),
(273,641,l),
(273,889,o),
(357,922,o),
(528,922,cs),
(692,922,o),
(751,840,o),
(751,704,cs),
(751,540,o),
(738,456,o),
(443,456,c),
(443,307,l),
(730,307,o),
(776,238,o),
(776,15,cs),
(776,-154,o),
(707,-244,o),
(541,-244,cs),
(351,-244,o),
(279,-195,o),
(264,47,c),
(80,47,l)
);
}
);
};
layerId = "F85E8FEC-B3CD-4A54-BF30-AB1986ECE904";
shapes = (
{
closed = 1;
nodes = (
(802,-406,o),
(958,-262,o),
(958,34,cs),
(958,337,o),
(816,475,o),
(557,475,c),
(580,415,l),
(921,935,l),
(921,1060,l),
(120,1060,l),
(120,924,l),
(762,924,l),
(742,962,l),
(423,475,l),
(423,327,l),
(487,327,ls),
(708,327,o),
(776,241,o),
(776,35,cs),
(776,-154,o),
(707,-244,o),
(541,-244,cs),
(351,-244,o),
(279,-195,o),
(264,47,c),
(80,47,l),
(113,-293,o),
(223,-406,o),
(531,-406,cs)
);
}
);
width = 1090;
},
{
anchors = (
{
name = bottom;
pos = (519,0);
},
{
name = top;
pos = (519,1074);
}
);
background = {
shapes = (
{
closed = 1;
nodes = (
(61,-255,o),
(193,-428,o),
(519,-428,cs),
(854,-428,o),
(986,-234,o),
(986,25,cs),
(986,192,o),
(936,331,o),
(781,379,c),
(945,419,o),
(975,561,o),
(975,700,cs),
(975,956,o),
(787,1102,o),
(514,1102,cs),
(237,1102,o),
(61,986,o),
(59,632,c),
(291,632,l),
(290,817,o),
(344,878,o),
(517,878,cs),
(683,878,o),
(735,809,o),
(735,686,cs),
(735,541,o),
(711,476,o),
(462,476,c),
(462,277,l),
(685,277,o),
(742,220,o),
(742,38,cs),
(742,-120,o),
(676,-203,o),
(522,-203,cs),
(356,-203,o),
(288,-150,o),
(286,35,c),
(54,35,l)
);
}
);
};
layerId = "C6C96970-2BBD-4A47-8C90-C83F37B7F23D";
shapes = (
{
closed = 1;
nodes = (
(854,-428,o),
(986,-234,o),
(986,25,cs),
(986,281,o),
(866,474,o),
(587,474,c),
(614,368,l),
(950,910,l),
(950,1074,l),
(96,1074,l),
(96,888,l),
(683,888,l),
(681,927,l),
(397,476,l),
(397,277,l),
(509,277,ls),
(697,277,o),
(742,195,o),
(742,32,cs),
(742,-126,o),
(676,-203,o),
(522,-203,cs),
(356,-203,o),
(286,-150,o),
(286,35,c),
(54,35,l),
(54,-255,o),
(193,-428,o),
(519,-428,cs)
);
}
);
width = 1098;
}
);
unicode = 658;
},
{
glyphname = ezhreversed;
layers = (
{
layerId = "F85E8FEC-B3CD-4A54-BF30-AB1986ECE904";
shapes = (
{
closed = 1;
nodes = (
(867,-406,o),
(977,-293,o),
(1010,47,c),
(826,47,l),
(811,-195,o),
(739,-244,o),
(549,-244,cs),
(383,-244,o),
(314,-154,o),
(314,35,cs),
(314,241,o),
(382,327,o),
(603,327,cs),
(667,327,l),
(667,475,l),
(348,962,l),
(328,924,l),
(970,924,l),
(970,1060,l),
(169,1060,l),
(169,935,l),
(510,415,l),
(533,475,l),
(274,475,o),
(132,337,o),
(132,34,cs),
(132,-262,o),
(288,-406,o),
(559,-406,cs)
);
}
);
width = 1090;
},
{
layerId = "C6C96970-2BBD-4A47-8C90-C83F37B7F23D";
shapes = (
{
closed = 1;
nodes = (
(905,-428,o),
(1044,-255,o),
(1044,35,c),
(812,35,l),
(812,-150,o),
(742,-203,o),
(576,-203,cs),
(422,-203,o),
(356,-126,o),
(356,32,cs),
(356,195,o),
(401,277,o),
(589,277,cs),
(701,277,l),
(701,476,l),
(417,927,l),
(415,888,l),
(1002,888,l),
(1002,1074,l),
(148,1074,l),
(148,910,l),
(484,368,l),
(511,474,l),
(232,474,o),
(112,281,o),
(112,25,cs),
(112,-234,o),
(244,-428,o),
(579,-428,cs)
);
}
);
width = 1098;
}
);
unicode = 441;
},
{
glyphname = f;
layers = (
{
anchors = (
{
name = top;
pos = (546,1446);
}
);
layerId = "F85E8FEC-B3CD-4A54-BF30-AB1986ECE904";
shapes = (
{
closed = 1;
nodes = (
(287,0,l),
(475,0,l),
(475,918,l),
(732,918,l),
(732,1060,l),
(475,1060,l),
(475,1239,ls),
(475,1315,o),
(513,1372,o),
(628,1372,cs),
(744,1372,l),
(732,1505,l),
(613,1505,ls),
(395,1505,o),
(287,1419,o),
(287,1221,cs),
(287,1060,l),
(110,1060,l),
(110,918,l),
(287,918,l)
);
}
);
width = 790;
},
{
anchors = (
{
name = top;
pos = (532,1476);
}
);
layerId = "C6C96970-2BBD-4A47-8C90-C83F37B7F23D";
shapes = (
{
closed = 1;
nodes = (
(229,0,l),
(501,0,l),
(501,901,l),
(715,901,l),
(715,1074,l),
(501,1074,l),
(501,1186,ls),
(501,1258,o),
(522,1327,o),
(640,1327,cs),
(724,1327,l),
(717,1516,l),
(591,1516,ls),
(336,1516,o),
(229,1380,o),
(229,1125,cs),
(229,1074,l),
(86,1074,l),
(86,901,l),
(229,901,l)
);
}
);
width = 770;
}
);
unicode = 102;
},
{
glyphname = g;
layers = (
{
anchors = (
{
name = bottom;
pos = (591,-408);
},
{
name = top;
pos = (565,1060);
}
);
layerId = "F85E8FEC-B3CD-4A54-BF30-AB1986ECE904";
shapes = (
{
closed = 1;
nodes = (
(903,-408,o),
(1010,-223,o),
(1010,25,cs),
(1010,1060,l),
(822,1060,l),
(822,975,l),
(792,1025,o),
(658,1080,o),
(550,1080,cs),
(274,1080,o),
(148,941,o),
(148,728,cs),
(148,379,ls),
(148,159,o),
(279,40,o),
(550,40,cs),
(623,40,o),
(762,60,o),
(822,116,c),
(822,-31,ls),
(822,-188,o),
(746,-265,o),
(564,-265,cs),
(465,-265,o),
(352,-248,o),
(295,-227,c),
(253,-368,l),
(331,-397,o),
(430,-408,o),
(573,-408,cs)
);
},
{
closed = 1;
nodes = (
(441,184,o),
(336,223,o),
(336,350,cs),
(336,748,ls),
(336,878,o),
(430,936,o),
(578,936,cs),
(745,936,o),
(822,882,o),
(822,790,cs),
(822,264,l),
(792,240,o),
(719,184,o),
(579,184,cs)
);
}
);
width = 1182;
},
{
anchors = (
{
name = bottom;
pos = (606,-410);
},
{
name = top;
pos = (582,1074);
}
);
layerId = "C6C96970-2BBD-4A47-8C90-C83F37B7F23D";
shapes = (
{
closed = 1;
nodes = (
(919,-441,o),
(1059,-277,o),
(1059,-12,cs),
(1059,1075,l),
(857,1075,l),
(834,997,l),
(767,1052,o),
(651,1097,o),
(533,1097,cs),
(230,1097,o),
(124,935,o),
(124,751,cs),
(124,366,ls),
(124,155,o),
(284,32,o),
(543,32,cs),
(625,32,o),
(723,50,o),
(787,88,c),
(787,-30,ls),
(787,-178,o),
(720,-242,o),
(564,-242,cs),
(481,-242,o),
(376,-228,o),
(275,-200,c),
(219,-385,l),
(294,-421,o),
(441,-441,o),
(574,-441,cs)
);
},
{
closed = 1;
nodes = (
(475,213,o),
(396,248,o),
(396,356,cs),
(396,757,ls),
(396,865,o),
(464,907,o),
(588,907,cs),
(711,907,o),
(787,860,o),
(787,832,cs),
(787,261,l),
(750,234,o),
(680,213,o),
(588,213,cs)
);
}
);
width = 1211;
}
);
unicode = 103;
},
{
glyphname = "gamma-latin";
layers = (
{
layerId = "F85E8FEC-B3CD-4A54-BF30-AB1986ECE904";
shapes = (
{
closed = 1;
nodes = (
(741,-418,o),
(836,-307,o),
(836,-122,cs),
(836,2,o),
(773,136,o),
(686,289,cs),
(248,1060,l),
(44,1060,l),
(542,202,ls),
(623,62,o),
(648,-23,o),
(648,-122,cs),
(648,-220,o),
(616,-261,o),
(532,-261,cs),
(448,-261,o),
(416,-220,o),
(416,-122,cs),
(416,-23,o),
(441,62,o),
(522,202,cs),
(1020,1060,l),
(816,1060,l),
(378,289,ls),
(291,136,o),
(228,2,o),
(228,-122,cs),
(228,-307,o),
(323,-418,o),
(532,-418,cs)
);
}
);
width = 1064;
},
{
background = {
shapes = (
{
closed = 1;
nodes = (
(486,100,l),
(635,100,l),
(1069,1074,l),
(812,1074,l),
(478,323,l),
(645,323,l),
(305,1074,l),
(34,1074,l)
);
}
);
};
layerId = "C6C96970-2BBD-4A47-8C90-C83F37B7F23D";
shapes = (
{
closed = 1;
nodes = (
(784,-432,o),
(906,-319,o),
(906,-130,cs),
(906,-4,o),
(852,131,o),
(761,288,cs),
(305,1074,l),
(31,1074,l),
(557,200,ls),
(644,56,o),
(665,-30,o),
(665,-110,cs),
(665,-190,o),
(633,-232,o),
(551,-232,cs),
(471,-232,o),
(438,-190,o),
(438,-110,cs),
(438,-30,o),
(459,57,o),
(545,200,cs),
(1072,1074,l),
(800,1074,l),
(343,288,ls),
(251,129,o),
(197,-4,o),
(197,-130,cs),
(197,-319,o),
(318,-432,o),
(551,-432,cs)
);
}
);
width = 1103;
}
);
unicode = 611;
},
{
glyphname = gcommaaccent;
layers = (
{
layerId = "F85E8FEC-B3CD-4A54-BF30-AB1986ECE904";
shapes = (
{
ref = g;
},
{
alignment = -1;
pos = (631,7);
ref = commaturnedabovecomb;
}
);
width = 1182;
},
{
background = {
shapes = (
{
closed = 1;
nodes = (
(817,1506,l),
(652,1506,l),
(652,1598,o),
(748,1790,o),
(798,1849,q),
(691,1895,l),
(627,1838,o),
(495,1586,o),
(495,1453,qs),
(495,1230,l),
(817,1230,l)
);
},
{
closed = 1;
nodes = (
(396,356,qs),
(396,757,ls),
(396,907,o),
(582,907,qs),
(672,907,o),
(730,882,qs),
(787,856,o),
(787,832,qs),
(787,261,l),
(721,213,o),
(588,213,qs),
(396,213,o)
);
},
{
closed = 1;
nodes = (
(1059,-12,qs),
(1059,1075,l),
(857,1075,l),
(834,997,l),
(781,1040,o),
(618,1097,o),
(533,1097,qs),
(313,1097,o),
(124,896,o),
(124,751,qs),
(124,366,ls),
(124,209,o),
(348,32,o),
(693,32,o),
(787,88,q),
(787,-30,ls),
(787,-141,o),
(681,-242,o),
(426,-242,o),
(275,-200,q),
(219,-385,l),
(337,-441,o),
(574,-441,qs),
(1059,-441,o)
);
}
);
};
layerId = "C6C96970-2BBD-4A47-8C90-C83F37B7F23D";
shapes = (
{
ref = g;
},
{
alignment = -1;
pos = (640,0);
ref = commaturnedabovecomb;
}
);
width = 1211;
}
);
unicode = 291;
},
{
glyphname = ghook;
layers = (
{
background = {
shapes = (
{
closed = 1;
nodes = (
(903,-424,o),
(1010,-239,o),
(1010,9,cs),
(1010,1166,ls),
(1010,1317,o),
(1050,1363,o),
(1150,1363,cs),
(1183,1363,l),
(1170,1505,l),
(1114,1505,ls),
(912,1505,o),
(822,1413,o),
(822,1165,cs),
(822,885,l),
(826,946,l),
(847,1001,o),
(680,1080,o),
(550,1080,cs),
(274,1080,o),
(148,941,o),
(148,728,cs),
(148,363,ls),
(148,143,o),
(279,24,o),
(550,24,cs),
(623,24,o),
(762,44,o),
(822,100,c),
(822,-47,ls),
(822,-204,o),
(746,-281,o),
(564,-281,cs),
(465,-281,o),
(352,-264,o),
(295,-243,c),
(253,-384,l),
(331,-413,o),
(430,-424,o),
(573,-424,cs)
);
},
{
closed = 1;
nodes = (
(441,168,o),
(336,207,o),
(336,334,cs),
(336,748,ls),
(336,878,o),
(430,936,o),
(578,936,cs),
(745,936,o),
(822,882,o),
(822,790,cs),
(822,248,l),
(792,224,o),
(719,168,o),
(579,168,cs)
);
}
);
};
layerId = "F85E8FEC-B3CD-4A54-BF30-AB1986ECE904";
shapes = (
{
closed = 1;
nodes = (
(903,-424,o),
(1010,-239,o),
(1010,9,cs),
(1010,1166,ls),
(1010,1317,o),
(1050,1363,o),
(1150,1363,cs),
(1183,1363,l),
(1170,1505,l),
(1114,1505,ls),
(912,1505,o),
(822,1413,o),
(822,1165,cs),
(822,885,l),
(855,911,l),
(855,1001,o),
(688,1080,o),
(550,1080,cs),
(274,1080,o),
(148,941,o),
(148,728,cs),
(148,363,ls),
(148,143,o),
(279,24,o),
(550,24,cs),
(623,24,o),
(762,44,o),
(822,100,c),
(822,-47,ls),
(822,-204,o),
(746,-281,o),
(564,-281,cs),
(465,-281,o),
(352,-264,o),
(295,-243,c),
(253,-384,l),
(331,-413,o),
(430,-424,o),
(573,-424,cs)
);
},
{
closed = 1;
nodes = (
(441,168,o),
(336,207,o),
(336,334,cs),
(336,748,ls),
(336,878,o),
(430,936,o),
(578,936,cs),
(745,936,o),
(822,882,o),
(822,790,cs),
(822,248,l),
(792,224,o),
(719,168,o),
(579,168,cs)
);
}
);
width = 1182;
},
{
layerId = "C6C96970-2BBD-4A47-8C90-C83F37B7F23D";
shapes = (
{
closed = 1;
nodes = (
(919,-429,o),
(1059,-265,o),
(1059,0,cs),
(1059,1186,ls),
(1059,1283,o),
(1085,1327,o),
(1154,1327,cs),
(1201,1327,l),
(1194,1515,l),
(1110,1515,ls),
(867,1515,o),
(786,1403,o),
(786,1185,cs),
(786,954,l),
(851,981,l),
(789,1043,o),
(662,1097,o),
(533,1097,cs),
(230,1097,o),
(124,935,o),
(124,751,cs),
(124,366,ls),
(124,155,o),
(284,32,o),
(543,32,cs),
(625,32,o),
(723,50,o),
(787,88,c),
(787,-18,ls),
(787,-166,o),
(720,-230,o),
(564,-230,cs),
(481,-230,o),
(376,-216,o),
(275,-188,c),
(219,-373,l),
(294,-409,o),
(441,-429,o),
(574,-429,cs)
);
},
{
closed = 1;
nodes = (
(475,213,o),
(396,248,o),
(396,356,cs),
(396,757,ls),
(396,865,o),
(464,907,o),
(588,907,cs),
(711,907,o),
(787,860,o),
(787,832,cs),
(787,261,l),
(750,234,o),
(680,213,o),
(588,213,cs)
);
}
);
width = 1211;
}
);
unicode = 608;
},
{
glyphname = glottalstop;
layers = (
{
layerId = "F85E8FEC-B3CD-4A54-BF30-AB1986ECE904";
shapes = (
{
closed = 1;
nodes = (
(678,0,l),
(678,486,l),
(648,407,l),
(855,641,ls),
(1004,809,o),
(1096,931,o),
(1096,1114,cs),
(1096,1277,o),
(1005,1468,o),
(657,1468,cs),
(316,1468,o),
(179,1374,o),
(179,1071,cs),
(179,1039,l),
(376,1039,l),
(376,1092,ls),
(376,1225,o),
(441,1306,o),
(657,1306,cs),
(836,1306,o),
(883,1222,o),
(883,1103,cs),
(883,986,o),
(852,895,o),
(760,785,cs),
(490,461,l),
(490,0,l)
);
}
);
width = 1240;
},
{
background = {
shapes = (
{
closed = 1;
nodes = (
(445,431,l),
(674,431,l),
(856,582,ls),
(1038,733,o),
(1118,862,o),
(1118,1067,cs),
(1118,1289,o),
(1047,1501,o),
(619,1501,cs),
(186,1501,o),
(130,1309,o),
(130,1036,cs),
(130,962,l),
(404,962,l),
(404,1047,ls),
(404,1188,o),
(417,1279,o),
(619,1279,cs),
(805,1279,o),
(826,1166,o),
(826,1056,cs),
(826,936,o),
(789,860,o),
(693,740,cs)
);
}
);
};
layerId = "C6C96970-2BBD-4A47-8C90-C83F37B7F23D";
shapes = (
{
closed = 1;
nodes = (
(717,0,l),
(717,494,l),
(683,419,l),
(861,577,ls),
(1032,729,o),
(1118,862,o),
(1118,1067,cs),
(1118,1289,o),
(1047,1501,o),
(619,1501,cs),
(186,1501,o),
(130,1309,o),
(130,1036,cs),
(130,962,l),
(404,962,l),
(404,1047,ls),
(404,1188,o),
(417,1279,o),
(619,1279,cs),
(805,1279,o),
(826,1166,o),
(826,1056,cs),
(826,936,o),
(791,856,o),
(690,740,cs),
(445,461,l),
(445,0,l)
);
}
);
width = 1244;
}
);
unicode = 660;
},
{
glyphname = glottalstopreversed;
layers = (
{
layerId = "F85E8FEC-B3CD-4A54-BF30-AB1986ECE904";
shapes = (
{
closed = 1;
nodes = (
(750,461,l),
(480,785,ls),
(388,895,o),
(357,986,o),
(357,1103,cs),
(357,1222,o),
(404,1306,o),
(583,1306,cs),
(799,1306,o),
(864,1225,o),
(864,1092,cs),
(864,1039,l),
(1061,1039,l),
(1061,1071,ls),
(1061,1374,o),
(924,1468,o),
(583,1468,cs),
(235,1468,o),
(144,1277,o),
(144,1114,cs),
(144,931,o),
(236,809,o),
(385,641,cs),
(592,407,l),
(562,486,l),
(562,0,l),
(750,0,l)
);
}
);
width = 1240;
},
{
layerId = "C6C96970-2BBD-4A47-8C90-C83F37B7F23D";
shapes = (
{
closed = 1;
nodes = (
(799,461,l),
(554,740,ls),
(453,856,o),
(418,936,o),
(418,1056,cs),
(418,1166,o),
(439,1279,o),
(625,1279,cs),
(827,1279,o),
(840,1188,o),
(840,1047,cs),
(840,962,l),
(1114,962,l),
(1114,1036,ls),
(1114,1309,o),
(1058,1501,o),
(625,1501,cs),
(197,1501,o),
(126,1289,o),
(126,1067,cs),
(126,862,o),
(212,729,o),
(383,577,cs),
(561,419,l),
(527,494,l),
(527,0,l),
(799,0,l)
);
}
);
width = 1244;
}
);
unicode = 661;
},
{
glyphname = glottalstopsmall;
layers = (
{
layerId = "F85E8FEC-B3CD-4A54-BF30-AB1986ECE904";
shapes = (
{
closed = 1;
nodes = (
(678,0,l),
(678,178,l),
(648,99,l),
(855,273,ls),
(1027,417,o),
(1096,543,o),
(1096,726,cs),
(1096,889,o),
(1005,1080,o),
(657,1080,cs),
(316,1080,o),
(179,986,o),
(179,683,cs),
(179,651,l),
(376,651,l),
(376,704,ls),
(376,837,o),
(441,918,o),
(657,918,cs),
(836,918,o),
(883,834,o),
(883,715,cs),
(883,598,o),
(862,517,o),
(760,417,cs),
(490,153,l),
(490,0,l)
);
}
);
width = 1200;
},
{
layerId = "C6C96970-2BBD-4A47-8C90-C83F37B7F23D";
shapes = (
{
closed = 1;
nodes = (
(717,0,l),
(717,164,l),
(683,95,l),
(861,198,ls),
(1061,314,o),
(1118,478,o),
(1118,663,cs),
(1118,885,o),
(1047,1097,o),
(619,1097,cs),
(206,1097,o),
(130,905,o),
(130,632,cs),
(130,558,l),
(404,558,l),
(404,643,ls),
(404,784,o),
(417,875,o),
(619,875,cs),
(805,875,o),
(826,782,o),
(826,652,cs),
(826,552,o),
(808,472,o),
(690,376,cs),
(445,177,l),
(445,0,l)
);
}
);
width = 1244;
}
);
unicode = 578;
},
{
glyphname = gstroke;
layers = (
{
layerId = "F85E8FEC-B3CD-4A54-BF30-AB1986ECE904";
shapes = (
{
closed = 1;
nodes = (
(903,-424,o),
(1010,-239,o),
(1010,9,cs),
(1010,1060,l),
(822,1060,l),
(822,975,l),
(792,1025,o),
(658,1080,o),
(550,1080,cs),
(274,1080,o),
(148,941,o),
(148,728,cs),
(148,383,ls),
(148,163,o),
(279,44,o),
(550,44,cs),
(623,44,o),
(762,64,o),
(822,120,c),
(822,-47,ls),
(822,-204,o),
(746,-281,o),
(564,-281,cs),
(465,-281,o),
(352,-264,o),
(295,-243,c),
(253,-384,l),
(331,-413,o),
(430,-424,o),
(573,-424,cs)
);
},
{
closed = 1;
nodes = (
(441,188,o),
(336,227,o),
(336,354,cs),
(336,748,ls),
(336,878,o),
(430,936,o),
(578,936,cs),
(745,936,o),
(822,882,o),
(822,790,cs),
(822,268,l),
(792,244,o),
(719,188,o),
(579,188,cs)
);
},
{
closed = 1;
nodes = (
(531,-182,l),
(1152,-182,l),
(1152,-38,l),
(531,-38,l)
);
}
);
width = 1182;
},
{
layerId = "C6C96970-2BBD-4A47-8C90-C83F37B7F23D";
shapes = (
{
closed = 1;
nodes = (
(919,-429,o),
(1059,-265,o),
(1059,0,cs),
(1059,1075,l),
(857,1075,l),
(834,997,l),
(767,1052,o),
(651,1097,o),
(533,1097,cs),
(230,1097,o),
(124,935,o),
(124,751,cs),
(124,426,ls),
(124,215,o),
(284,92,o),
(543,92,cs),
(625,92,o),
(723,110,o),
(787,148,c),
(787,-18,ls),
(787,-166,o),
(720,-230,o),
(564,-230,cs),
(481,-230,o),
(376,-216,o),
(275,-188,c),
(219,-373,l),
(294,-409,o),
(441,-429,o),
(574,-429,cs)
);
},
{
closed = 1;
nodes = (
(475,273,o),
(396,308,o),
(396,416,cs),
(396,757,ls),
(396,865,o),
(464,907,o),
(588,907,cs),
(711,907,o),
(787,860,o),
(787,832,cs),
(787,321,l),
(750,294,o),
(680,273,o),
(588,273,cs)
);
},
{
closed = 1;
nodes = (
(535,-151,l),
(1181,-151,l),
(1181,39,l),
(535,39,l)
);
}
);
width = 1211;
}
);
unicode = 485;
},
{
glyphname = h;
kernRight = h;
layers = (
{
anchors = (
{
name = bottom;
pos = (612,0);
},
{
name = center;
pos = (612,753);
},
{
name = top;
pos = (652,1446);
}
);
layerId = "F85E8FEC-B3CD-4A54-BF30-AB1986ECE904";
shapes = (
{
closed = 1;
nodes = (
(186,0,l),
(374,0,l),
(374,758,ls),
(374,860,o),
(458,936,o),
(642,936,cs),
(773,936,o),
(862,888,o),
(862,783,cs),
(862,0,l),
(1050,0,l),
(1050,773,ls),
(1050,941,o),
(951,1080,o),
(690,1080,cs),
(536,1080,o),
(436,1032,o),
(374,960,c),
(374,1505,l),
(186,1505,l)
);
}
);
width = 1224;
},
{
anchors = (
{
name = bottom;
pos = (627,0);
},
{
name = center;
pos = (627,758);
},
{
name = top;
pos = (675,1476);
}
);
layerId = "C6C96970-2BBD-4A47-8C90-C83F37B7F23D";
shapes = (
{
closed = 1;
nodes = (
(162,0,l),
(434,0,l),
(434,738,ls),
(434,842,o),
(549,894,o),
(647,894,cs),
(732,894,o),
(830,869,o),
(830,756,cs),
(830,0,l),
(1102,0,l),
(1102,795,ls),
(1102,976,o),
(976,1097,o),
(770,1097,cs),
(621,1097,o),
(480,1045,o),
(434,970,c),
(434,1515,l),
(162,1515,l)
);
}
);
width = 1254;
}
);
unicode = 104;
},
{
glyphname = hbar;
kernRight = h;
layers = (
{
layerId = "F85E8FEC-B3CD-4A54-BF30-AB1986ECE904";
shapes = (
{
closed = 1;
nodes = (
(570,1213,l),
(570,1360,l),
(41,1360,l),
(41,1213,l)
);
},
{
ref = h;
}
);
width = 1224;
},
{
layerId = "C6C96970-2BBD-4A47-8C90-C83F37B7F23D";
shapes = (
{
closed = 1;
nodes = (
(641,1224,l),
(641,1381,l),
(17,1381,l),
(17,1224,l)
);
},
{
ref = h;
}
);
width = 1254;
}
);
unicode = 295;
},
{
glyphname = heng;
kernRight = h;
layers = (
{
layerId = "F85E8FEC-B3CD-4A54-BF30-AB1986ECE904";
shapes = (
{
closed = 1;
nodes = (
(987,-316,o),
(1050,-162,o),
(1050,219,cs),
(1050,773,ls),
(1050,941,o),
(951,1080,o),
(690,1080,cs),
(536,1080,o),
(436,1032,o),
(374,960,c),
(374,1505,l),
(186,1505,l),
(186,0,l),
(374,0,l),
(374,758,ls),
(374,860,o),
(458,936,o),
(642,936,cs),
(773,936,o),
(862,888,o),
(862,783,cs),
(862,212,ls),
(862,-100,o),
(861,-175,o),
(613,-175,c),
(641,-316,l)
);
}
);
width = 1224;
},
{
layerId = "C6C96970-2BBD-4A47-8C90-C83F37B7F23D";
shapes = (
{
closed = 1;
nodes = (
(996,-365,o),
(1102,-202,o),
(1102,179,cs),
(1102,795,ls),
(1102,976,o),
(976,1097,o),
(770,1097,cs),
(621,1097,o),
(480,1045,o),
(434,970,c),
(434,1515,l),
(162,1515,l),
(162,0,l),
(434,0,l),
(434,738,ls),
(434,842,o),
(549,894,o),
(647,894,cs),
(732,894,o),
(830,869,o),
(830,756,cs),
(830,172,ls),
(830,-140,o),
(770,-153,o),
(526,-175,c),
(554,-365,l)
);
}
);
width = 1254;
}
);
unicode = 42791;
},
{
glyphname = hhook;
kernRight = h;
layers = (
{
layerId = "F85E8FEC-B3CD-4A54-BF30-AB1986ECE904";
shapes = (
{
closed = 1;
nodes = (
(374,0,l),
(374,758,ls),
(374,860,o),
(458,936,o),
(642,936,cs),
(773,936,o),
(862,888,o),
(862,783,cs),
(862,0,l),
(1050,0,l),
(1050,773,ls),
(1050,941,o),
(951,1080,o),
(690,1080,cs),
(536,1080,o),
(436,1032,o),
(374,960,c),
(374,1166,ls),
(374,1336,o),
(431,1363,o),
(534,1363,cs),
(567,1363,l),
(554,1505,l),
(498,1505,ls),
(276,1505,o),
(186,1413,o),
(186,1145,cs),
(186,0,l)
);
}
);
width = 1224;
},
{
layerId = "C6C96970-2BBD-4A47-8C90-C83F37B7F23D";
shapes = (
{
closed = 1;
nodes = (
(434,0,l),
(434,738,ls),
(434,842,o),
(549,894,o),
(647,894,cs),
(732,894,o),
(830,869,o),
(830,756,cs),
(830,0,l),
(1102,0,l),
(1102,795,ls),
(1102,976,o),
(976,1097,o),
(770,1097,cs),
(621,1097,o),
(480,1045,o),
(434,970,c),
(434,1186,ls),
(434,1283,o),
(471,1327,o),
(550,1327,cs),
(607,1327,l),
(600,1515,l),
(506,1515,ls),
(243,1515,o),
(162,1403,o),
(162,1155,cs),
(162,0,l)
);
}
);
width = 1254;
}
);
unicode = 614;
},
{
glyphname = hturned;
layers = (
{
layerId = "F85E8FEC-B3CD-4A54-BF30-AB1986ECE904";
shapes = (
{
closed = 1;
nodes = (
(1038,-408,l),
(1038,1060,l),
(850,1060,l),
(850,302,ls),
(850,200,o),
(766,124,o),
(582,124,cs),
(451,124,o),
(362,172,o),
(362,277,cs),
(362,1060,l),
(174,1060,l),
(174,287,ls),
(174,119,o),
(273,-20,o),
(534,-20,cs),
(688,-20,o),
(788,28,o),
(850,100,c),
(850,-408,l)
);
}
);
width = 1224;
},
{
layerId = "C6C96970-2BBD-4A47-8C90-C83F37B7F23D";
shapes = (
{
closed = 1;
nodes = (
(1092,-420,l),
(1092,1074,l),
(820,1074,l),
(820,336,ls),
(820,232,o),
(705,180,o),
(607,180,cs),
(522,180,o),
(424,205,o),
(424,318,cs),
(424,1074,l),
(152,1074,l),
(152,279,ls),
(152,98,o),
(278,-23,o),
(484,-23,cs),
(633,-23,o),
(774,29,o),
(820,104,c),
(820,-420,l)
);
}
);
width = 1254;
}
);
unicode = 613;
},
{
glyphname = i;
layers = (
{
background = {
shapes = (
{
closed = 1;
nodes = (
(414,1060,l),
(226,1060,l),
(226,0,l),
(414,0,l)
);
},
{
closed = 1;
nodes = (
(414,1446,l),
(226,1446,l),
(226,1251,l),
(414,1251,l)
);
}
);
};
layerId = "F85E8FEC-B3CD-4A54-BF30-AB1986ECE904";
shapes = (
{
alignment = -1;
pos = (20,0);
ref = idotless;
},
{
pos = (300,0);
ref = dotaccentcomb;
}
);
width = 596;
},
{
layerId = "C6C96970-2BBD-4A47-8C90-C83F37B7F23D";
shapes = (
{
ref = idotless;
},
{
pos = (259,0);
ref = dotaccentcomb;
}
);
width = 519;
}
);
unicode = 105;
},
{
glyphname = idotless;
layers = (
{
anchors = (
{
name = bottom;
pos = (280,0);
},
{
name = ogonek;
pos = (374,8);
},
{
name = top;
pos = (280,1060);
}
);
layerId = "F85E8FEC-B3CD-4A54-BF30-AB1986ECE904";
shapes = (
{
closed = 1;
nodes = (
(186,0,l),
(374,0,l),
(374,1060,l),
(186,1060,l)
);
}
);
width = 560;
},
{
anchors = (
{
name = bottom;
pos = (259,0);
},
{
name = ogonek;
pos = (385,8);
},
{
name = top;
pos = (259,1074);
}
);
layerId = "C6C96970-2BBD-4A47-8C90-C83F37B7F23D";
shapes = (
{
closed = 1;
nodes = (
(124,0,l),
(395,0,l),
(395,1074,l),
(124,1074,l)
);
}
);
width = 519;
}
);
unicode = 305;
},
{
glyphname = ibreve;
layers = (
{
layerId = "F85E8FEC-B3CD-4A54-BF30-AB1986ECE904";
shapes = (
{
closed = 1;
nodes = (
(19,1318,o),
(139,1225,o),
(290,1225,cs),
(440,1225,o),
(561,1318,o),
(561,1543,c),
(425,1543,l),
(425,1441,o),
(392,1367,o),
(290,1367,cs),
(187,1367,o),
(154,1441,o),
(154,1543,c),
(19,1543,l)
);
},
{
ref = idotless;
}
);
width = 564;
},
{
layerId = "C6C96970-2BBD-4A47-8C90-C83F37B7F23D";
shapes = (
{
closed = 1;
nodes = (
(-50,1343,o),
(100,1240,o),
(259,1240,cs),
(418,1240,o),
(568,1343,o),
(568,1593,c),
(396,1593,l),
(396,1486,o),
(357,1415,o),
(259,1415,cs),
(161,1415,o),
(122,1486,o),
(122,1593,c),
(-50,1593,l)
);
},
{
ref = idotless;
}
);
width = 488;
}
);
unicode = 301;
},
{
glyphname = icaron;
layers = (
{
layerId = "F85E8FEC-B3CD-4A54-BF30-AB1986ECE904";
shapes = (
{
closed = 1;
nodes = (
(378,1235,l),
(593,1575,l),
(455,1575,l),
(239,1325,l),
(343,1325,l),
(126,1575,l),
(-12,1575,l),
(203,1235,l)
);
},
{
ref = idotless;
}
);
width = 564;
},
{
layerId = "C6C96970-2BBD-4A47-8C90-C83F37B7F23D";
shapes = (
{
closed = 1;
nodes = (
(358,1245,l),
(595,1610,l),
(416,1610,l),
(226,1395,l),
(293,1395,l),
(102,1610,l),
(-77,1610,l),
(160,1245,l)
);
},
{
ref = idotless;
}
);
width = 488;
}
);
unicode = 464;
},
{
glyphname = icircumflex;
layers = (
{
layerId = "F85E8FEC-B3CD-4A54-BF30-AB1986ECE904";
shapes = (
{
closed = 1;
nodes = (
(126,1235,l),
(343,1485,l),
(239,1485,l),
(455,1235,l),
(593,1235,l),
(378,1575,l),
(203,1575,l),
(-12,1235,l)
);
},
{
ref = idotless;
}
);
width = 564;
},
{
layerId = "C6C96970-2BBD-4A47-8C90-C83F37B7F23D";
shapes = (
{
closed = 1;
nodes = (
(103,1245,l),
(294,1460,l),
(227,1460,l),
(417,1245,l),
(596,1245,l),
(359,1610,l),
(161,1610,l),
(-76,1245,l)
);
},
{
ref = idotless;
}
);
width = 488;
}
);
unicode = 238;
},
{
glyphname = "iota-latin";
layers = (
{
layerId = "F85E8FEC-B3CD-4A54-BF30-AB1986ECE904";
shapes = (
{
closed = 1;
nodes = (
(196,228,ls),
(196,88,o),
(279,0,o),
(420,0,cs),
(473,0,l),
(495,144,l),
(404,144,o),
(384,164,o),
(384,276,cs),
(384,1060,l),
(196,1060,l)
);
}
);
width = 570;
},
{
layerId = "C6C96970-2BBD-4A47-8C90-C83F37B7F23D";
shapes = (
{
closed = 1;
nodes = (
(134,287,ls),
(134,117,o),
(230,0,o),
(405,0,cs),
(482,0,l),
(493,198,l),
(426,198,o),
(406,218,o),
(406,316,cs),
(406,1074,l),
(134,1074,l)
);
}
);
width = 564;
}
);
unicode = 617;
},
{
glyphname = istroke;
layers = (
{
layerId = "F85E8FEC-B3CD-4A54-BF30-AB1986ECE904";
shapes = (
{
closed = 1;
nodes = (
(36,519,l),
(524,519,l),
(524,666,l),
(36,666,l)
);
},
{
ref = idotless;
},
{
pos = (280,0);
ref = dotaccentcomb;
}
);
width = 560;
},
{
layerId = "C6C96970-2BBD-4A47-8C90-C83F37B7F23D";
shapes = (
{
closed = 1;
nodes = (
(-6,514,l),
(525,514,l),
(525,671,l),
(-6,671,l)
);
},
{
ref = idotless;
},
{
pos = (259,0);
ref = dotaccentcomb;
}
);
width = 519;
}
);
unicode = 616;
},
{
glyphname = jdotless;
layers = (
{
anchors = (
{
name = top;
pos = (326,1060);
}
);
layerId = "F85E8FEC-B3CD-4A54-BF30-AB1986ECE904";
shapes = (
{
closed = 1;
nodes = (
(32,-353,l),
(98,-353,ls),
(304,-353,o),
(420,-305,o),
(420,7,cs),
(420,1060,l),
(232,1060,l),
(232,-4,ls),
(232,-174,o),
(175,-197,o),
(42,-197,cs),
(13,-197,l)
);
}
);
width = 602;
},
{
anchors = (
{
name = top;
pos = (334,1074);
}
);
layerId = "C6C96970-2BBD-4A47-8C90-C83F37B7F23D";
shapes = (
{
closed = 1;
nodes = (
(-4,-362,l),
(97,-362,ls),
(364,-362,o),
(471,-216,o),
(471,-3,cs),
(471,1074,l),
(198,1074,l),
(198,10,ls),
(198,-72,o),
(167,-168,o),
(27,-168,cs),
(-18,-168,l)
);
}
);
width = 650;
}
);
unicode = 567;
},
{
glyphname = jcrossedtail;
layers = (
{
background = {
shapes = (
{
closed = 1;
nodes = (
(147,-353,l),
(213,-353,ls),
(419,-353,o),
(535,-305,o),
(535,7,cs),
(535,1060,l),
(347,1060,l),
(347,-4,ls),
(347,-174,o),
(290,-197,o),
(157,-197,cs),
(128,-197,l)
);
},
{
closed = 1;
nodes = (
(344,1228,l),
(538,1228,l),
(538,1436,l),
(344,1436,l)
);
}
);
};
guides = (
{
angle = 95.1556;
pos = (631,180);
}
);
layerId = "F85E8FEC-B3CD-4A54-BF30-AB1986ECE904";
shapes = (
{
closed = 1;
nodes = (
(450,-353,o),
(535,-237,o),
(535,-21,cs),
(535,1060,l),
(347,1060,l),
(347,-62,ls),
(347,-152,o),
(315,-196,o),
(241,-196,cs),
(166,-196,o),
(134,-171,o),
(134,-83,cs),
(134,4,o),
(166,47,o),
(259,47,cs),
(643,47,l),
(631,180,l),
(263,180,ls),
(71,180,o),
(-15,74,o),
(-15,-85,cs),
(-15,-244,o),
(63,-353,o),
(258,-353,cs)
);
},
{
closed = 1;
nodes = (
(538,1298,l),
(538,1506,l),
(344,1506,l),
(344,1298,l)
);
}
);
width = 717;
},
{
background = {
shapes = (
{
closed = 1;
nodes = (
(207,-329,l),
(316,-329,ls),
(583,-329,o),
(690,-183,o),
(690,30,cs),
(690,1074,l),
(417,1074,l),
(417,43,ls),
(417,-39,o),
(386,-135,o),
(246,-135,cs),
(201,-135,l)
);
},
{
closed = 1;
nodes = (
(426,1216,l),
(680,1216,l),
(680,1481,l),
(426,1481,l)
);
}
);
};
layerId = "C6C96970-2BBD-4A47-8C90-C83F37B7F23D";
shapes = (
{
closed = 1;
nodes = (
(583,-329,o),
(690,-183,o),
(690,-10,cs),
(690,1074,l),
(417,1074,l),
(417,3,ls),
(417,-89,o),
(378,-135,o),
(304,-135,cs),
(224,-135,o),
(183,-103,o),
(183,9,cs),
(183,118,o),
(224,152,o),
(304,152,cs),
(819,152,l),
(812,341,l),
(346,341,ls),
(104,341,o),
(-5,207,o),
(-5,6,cs),
(-5,-195,o),
(94,-329,o),
(340,-329,cs)
);
},
{
closed = 1;
nodes = (
(680,1250,l),
(680,1515,l),
(426,1515,l),
(426,1250,l)
);
}
);
width = 869;
}
);
unicode = 669;
},
{
glyphname = jstroke;
layers = (
{
layerId = "F85E8FEC-B3CD-4A54-BF30-AB1986ECE904";
shapes = (
{
closed = 1;
nodes = (
(82,519,l),
(570,519,l),
(570,666,l),
(82,666,l)
);
},
{
ref = jdotless;
},
{
pos = (326,0);
ref = dotaccentcomb;
}
);
width = 602;
},
{
layerId = "C6C96970-2BBD-4A47-8C90-C83F37B7F23D";
shapes = (
{
closed = 1;
nodes = (
(69,514,l),
(600,514,l),
(600,671,l),
(69,671,l)
);
},
{
ref = jdotless;
},
{
pos = (334,0);
ref = dotaccentcomb;
}
);
width = 650;
}
);
unicode = 585;
},
{
glyphname = k;
layers = (
{
anchors = (
{
name = bottom;
pos = (623,0);
},
{
name = top;
pos = (274,1446);
}
);
layerId = "F85E8FEC-B3CD-4A54-BF30-AB1986ECE904";
shapes = (
{
closed = 1;
nodes = (
(186,0,l),
(374,0,l),
(374,334,l),
(533,492,l),
(913,0,l),
(1130,0,l),
(656,594,l),
(1087,1060,l),
(881,1060,l),
(374,524,l),
(374,1505,l),
(186,1505,l)
);
}
);
width = 1145;
},
{
anchors = (
{
name = bottom;
pos = (640,0);
},
{
name = top;
pos = (298,1476);
}
);
layerId = "C6C96970-2BBD-4A47-8C90-C83F37B7F23D";
shapes = (
{
closed = 1;
nodes = (
(162,0,l),
(434,0,l),
(434,374,l),
(554,497,l),
(890,0,l),
(1187,0,l),
(765,611,l),
(1169,1074,l),
(859,1074,l),
(434,602,l),
(434,1516,l),
(162,1516,l)
);
}
);
width = 1199;
}
);
unicode = 107;
},
{
glyphname = kgreenlandic;
layers = (
{
background = {
shapes = (
{
closed = 1;
nodes = (
(186,0,l),
(374,0,l),
(374,354,l),
(521,498,l),
(905,0,l),
(1122,0,l),
(665,583,l),
(1079,1060,l),
(871,1060,l),
(374,510,l),
(374,1060,l),
(186,1060,l)
);
}
);
};
layerId = "F85E8FEC-B3CD-4A54-BF30-AB1986ECE904";
shapes = (
{
closed = 1;
nodes = (
(186,0,l),
(374,0,l),
(374,334,l),
(533,492,l),
(913,0,l),
(1130,0,l),
(656,594,l),
(1087,1060,l),
(881,1060,l),
(374,524,l),
(374,1060,l),
(186,1060,l)
);
}
);
width = 1153;
},
{
background = {
shapes = (
{
closed = 1;
nodes = (
(180,0,l),
(453,0,l),
(453,385,l),
(549,483,l),
(873,0,l),
(1199,0,l),
(780,605,l),
(1178,1074,l),
(854,1074,l),
(453,602,l),
(453,1074,l),
(180,1074,l)
);
}
);
};
layerId = "C6C96970-2BBD-4A47-8C90-C83F37B7F23D";
shapes = (
{
closed = 1;
nodes = (
(171,0,l),
(443,0,l),
(443,374,l),
(563,497,l),
(899,0,l),
(1196,0,l),
(774,611,l),
(1178,1074,l),
(868,1074,l),
(443,602,l),
(443,1074,l),
(171,1074,l)
);
}
);
width = 1208;
}
);
unicode = 312;
},
{
glyphname = khook;
layers = (
{
layerId = "F85E8FEC-B3CD-4A54-BF30-AB1986ECE904";
shapes = (
{
closed = 1;
nodes = (
(374,0,l),
(374,334,l),
(533,492,l),
(913,0,l),
(1130,0,l),
(656,594,l),
(1087,1060,l),
(881,1060,l),
(374,524,l),
(374,1166,ls),
(374,1336,o),
(431,1363,o),
(534,1363,cs),
(567,1363,l),
(554,1505,l),
(498,1505,ls),
(276,1505,o),
(186,1413,o),
(186,1145,cs),
(186,0,l)
);
}
);
width = 1145;
},
{
layerId = "C6C96970-2BBD-4A47-8C90-C83F37B7F23D";
shapes = (
{
closed = 1;
nodes = (
(434,0,l),
(434,374,l),
(554,497,l),
(890,0,l),
(1187,0,l),
(765,611,l),
(1169,1074,l),
(859,1074,l),
(434,602,l),
(434,1186,ls),
(434,1283,o),
(471,1327,o),
(550,1327,cs),
(607,1327,l),
(600,1515,l),
(506,1515,ls),
(243,1515,o),
(162,1403,o),
(162,1155,cs),
(162,0,l)
);
}
);
width = 1199;
}
);
unicode = 409;
},
{
glyphname = kstroke;
layers = (
{
layerId = "F85E8FEC-B3CD-4A54-BF30-AB1986ECE904";
shapes = (
{
closed = 1;
nodes = (
(30,1205,l),
(701,1205,l),
(701,1349,l),
(30,1349,l)
);
},
{
ref = k;
}
);
width = 1145;
},
{
layerId = "C6C96970-2BBD-4A47-8C90-C83F37B7F23D";
shapes = (
{
closed = 1;
nodes = (
(30,1209,l),
(716,1209,l),
(716,1399,l),
(30,1399,l)
);
},
{
ref = k;
}
);
width = 1199;
}
);
unicode = 42817;
},
{
glyphname = l;
layers = (
{
anchors = (
{
name = bottom;
pos = (400,0);
},
{
name = caron.alt;
pos = (234,1060);
},
{
name = top;
pos = (284,1446);
}
);
layerId = "F85E8FEC-B3CD-4A54-BF30-AB1986ECE904";
shapes = (
{
closed = 1;
nodes = (
(190,49,o),
(298,-8,o),
(530,-8,cs),
(584,-8,l),
(606,150,l),
(573,150,ls),
(416,150,o),
(378,183,o),
(378,356,cs),
(378,1505,l),
(190,1505,l),
(190,358,ls)
);
}
);
width = 696;
},
{
anchors = (
{
name = bottom;
pos = (446,0);
},
{
name = caron.alt;
pos = (319,1074);
},
{
name = top;
pos = (300,1476);
}
);
layerId = "C6C96970-2BBD-4A47-8C90-C83F37B7F23D";
shapes = (
{
closed = 1;
nodes = (
(164,83,o),
(288,-12,o),
(527,-12,cs),
(641,-12,l),
(662,190,l),
(628,190,ls),
(482,190,o),
(436,239,o),
(436,357,cs),
(436,1515,l),
(164,1515,l),
(164,353,ls)
);
}
);
width = 708;
}
);
unicode = 108;
},
{
glyphname = lambdastroke;
layers = (
{
background = {
shapes = (
{
closed = 1;
nodes = (
(358,1319,o),
(461,1249,o),
(513,1056,c),
(76,0,l),
(275,0,l),
(615,886,l),
(585,887,l),
(870,0,l),
(1060,0,l),
(712,1015,ls),
(601,1340,o),
(510,1466,o),
(198,1466,c),
(198,1319,l)
);
}
);
};
layerId = "F85E8FEC-B3CD-4A54-BF30-AB1986ECE904";
shapes = (
{
closed = 1;
nodes = (
(275,0,l),
(615,886,l),
(585,887,l),
(806,196,ls),
(860,28,o),
(948,0,o),
(1074,0,cs),
(1130,0,l),
(1143,142,l),
(1110,142,ls),
(1042,142,o),
(1003,168,o),
(970,264,cs),
(610,1309,ls),
(552,1477,o),
(468,1505,o),
(332,1505,cs),
(276,1505,l),
(263,1363,l),
(296,1363,ls),
(374,1363,o),
(413,1337,o),
(446,1241,cs),
(511,1052,l),
(76,0,l)
);
},
{
closed = 1;
nodes = (
(840,1259,l),
(790,1397,l),
(243,1198,l),
(293,1060,l)
);
}
);
width = 1131;
},
{
background = {
shapes = (
{
closed = 0;
nodes = (
(437,1038,l),
(33,0,l),
(295,0,l),
(590,763,l),
(561,764,l),
(797,0,l),
(1067,0,l),
(741,934,ls)
);
},
{
closed = 0;
nodes = (
(610,1306,ls),
(536,1465,o),
(477,1515,o),
(313,1515,cs),
(219,1515,l),
(212,1327,l),
(249,1327,ls),
(318,1327,o),
(344,1305,o),
(379,1230,cs)
);
}
);
};
layerId = "C6C96970-2BBD-4A47-8C90-C83F37B7F23D";
shapes = (
{
closed = 1;
nodes = (
(295,0,l),
(590,763,l),
(561,764,l),
(721,245,ls),
(778,61,o),
(867,0,o),
(1031,0,cs),
(1125,0,l),
(1132,188,l),
(1095,188,ls),
(1026,188,o),
(994,210,o),
(967,286,cs),
(623,1270,ls),
(559,1453,o),
(477,1515,o),
(313,1515,cs),
(219,1515,l),
(212,1327,l),
(249,1327,ls),
(318,1327,o),
(354,1302,o),
(382,1221,cs),
(442,1050,l),
(33,0,l)
);
},
{
closed = 1;
nodes = (
(856,1241,l),
(803,1389,l),
(192,1166,l),
(245,1018,l)
);
}
);
width = 1120;
}
);
unicode = 411;
},
{
glyphname = lbar;
layers = (
{
layerId = "F85E8FEC-B3CD-4A54-BF30-AB1986ECE904";
shapes = (
{
closed = 1;
nodes = (
(40,719,l),
(564,719,l),
(564,866,l),
(40,866,l)
);
},
{
ref = l;
}
);
width = 692;
},
{
layerId = "C6C96970-2BBD-4A47-8C90-C83F37B7F23D";
shapes = (
{
closed = 1;
nodes = (
(24,714,l),
(605,714,l),
(605,871,l),
(24,871,l)
);
},
{
ref = l;
}
);
width = 708;
}
);
unicode = 410;
},
{
glyphname = lbelt;
layers = (
{
layerId = "F85E8FEC-B3CD-4A54-BF30-AB1986ECE904";
shapes = (
{
closed = 1;
nodes = (
(410,951,o),
(325,1047,o),
(173,1047,cs),
(18,1047,o),
(-70,958,o),
(-70,819,cs),
(-70,680,o),
(6,574,o),
(198,574,cs),
(708,574,l),
(696,707,l),
(194,707,ls),
(101,707,o),
(79,750,o),
(79,814,cs),
(79,882,o),
(111,910,o),
(186,910,cs),
(260,910,o),
(292,866,o),
(292,777,c),
(410,777,l)
);
},
{
pos = (102,0);
ref = l;
}
);
width = 794;
},
{
layerId = "C6C96970-2BBD-4A47-8C90-C83F37B7F23D";
shapes = (
{
closed = 1;
nodes = (
(410,961,o),
(325,1057,o),
(173,1057,cs),
(18,1057,o),
(-70,976,o),
(-70,823,cs),
(-70,658,o),
(26,558,o),
(228,558,cs),
(748,558,l),
(741,747,l),
(204,747,ls),
(131,747,o),
(99,775,o),
(99,835,cs),
(99,897,o),
(131,920,o),
(196,920,cs),
(260,920,o),
(292,876,o),
(292,787,c),
(410,787,l)
);
},
{
pos = (128,0);
ref = l;
}
);
width = 836;
}
);
unicode = 620;
},
{
glyphname = ldot;
layers = (
{
layerId = "F85E8FEC-B3CD-4A54-BF30-AB1986ECE904";
shapes = (
{
closed = 1;
nodes = (
(530,719,l),
(735,719,l),
(735,925,l),
(530,925,l)
);
},
{
ref = l;
}
);
width = 692;
},
{
layerId = "C6C96970-2BBD-4A47-8C90-C83F37B7F23D";
shapes = (
{
closed = 1;
nodes = (
(530,737,l),
(778,737,l),
(778,982,l),
(530,982,l)
);
},
{
ref = l;
}
);
width = 708;
}
);
unicode = 320;
},
{
glyphname = ldoublebar;
layers = (
{
layerId = "F85E8FEC-B3CD-4A54-BF30-AB1986ECE904";
shapes = (
{
closed = 1;
nodes = (
(40,859,l),
(564,859,l),
(564,1006,l),
(40,1006,l)
);
},
{
closed = 1;
nodes = (
(40,579,l),
(564,579,l),
(564,726,l),
(40,726,l)
);
},
{
ref = l;
}
);
width = 692;
},
{
layerId = "C6C96970-2BBD-4A47-8C90-C83F37B7F23D";
shapes = (
{
closed = 1;
nodes = (
(24,859,l),
(605,859,l),
(605,1016,l),
(24,1016,l)
);
},
{
closed = 1;
nodes = (
(24,569,l),
(605,569,l),
(605,726,l),
(24,726,l)
);
},
{
ref = l;
}
);
width = 708;
}
);
unicode = 11361;
},
{
glyphname = lslash;
layers = (
{
layerId = "F85E8FEC-B3CD-4A54-BF30-AB1986ECE904";
shapes = (
{
closed = 1;
nodes = (
(604,858,l),
(604,1011,l),
(52,740,l),
(52,587,l)
);
},
{
ref = l;
}
);
width = 708;
},
{
layerId = "C6C96970-2BBD-4A47-8C90-C83F37B7F23D";
shapes = (
{
closed = 1;
nodes = (
(632,867,l),
(632,1041,l),
(25,793,l),
(25,620,l)
);
},
{
ref = l;
}
);
width = 708;
}
);
unicode = 322;
},
{
glyphname = m;
kernRight = h;
layers = (
{
anchors = (
{
name = bottom;
pos = (942,0);
},
{
name = top;
pos = (962,1060);
}
);
layerId = "F85E8FEC-B3CD-4A54-BF30-AB1986ECE904";
shapes = (
{
closed = 1;
nodes = (
(186,0,l),
(374,0,l),
(374,755,ls),
(374,857,o),
(446,936,o),
(630,936,cs),
(761,936,o),
(844,886,o),
(844,781,cs),
(844,0,l),
(1032,0,l),
(1032,755,ls),
(1032,857,o),
(1104,936,o),
(1288,936,cs),
(1419,936,o),
(1496,886,o),
(1496,781,cs),
(1496,0,l),
(1684,0,l),
(1684,770,ls),
(1684,938,o),
(1597,1080,o),
(1336,1080,cs),
(1182,1080,o),
(1081,1031,o),
(989,941,c),
(939,1024,o),
(842,1080,o),
(678,1080,cs),
(524,1080,o),
(436,1029,o),
(374,957,c),
(374,1060,l),
(186,1060,l)
);
}
);
width = 1860;
},
{
anchors = (
{
name = bottom;
pos = (952,0);
},
{
name = top;
pos = (992,1074);
}
);
layerId = "C6C96970-2BBD-4A47-8C90-C83F37B7F23D";
shapes = (
{
closed = 1;
nodes = (
(160,0,l),
(432,0,l),
(432,739,ls),
(432,844,o),
(559,897,o),
(657,897,cs),
(742,897,o),
(817,875,o),
(817,762,cs),
(817,0,l),
(1089,0,l),
(1089,750,l),
(1097,846,o),
(1220,897,o),
(1317,897,cs),
(1401,897,o),
(1470,875,o),
(1470,762,cs),
(1470,0,l),
(1742,0,l),
(1742,794,ls),
(1742,975,o),
(1607,1097,o),
(1401,1097,cs),
(1231,1097,o),
(1122,1042,o),
(1044,964,c),
(989,1056,o),
(887,1097,o),
(749,1097,cs),
(570,1097,o),
(463,1011,o),
(432,978,c),
(432,1074,l),
(160,1074,l)
);
}
);
width = 1894;
}
);
unicode = 109;
},
{
glyphname = mturned;
layers = (
{
layerId = "F85E8FEC-B3CD-4A54-BF30-AB1986ECE904";
shapes = (
{
closed = 1;
nodes = (
(678,-20,o),
(779,29,o),
(871,119,c),
(921,36,o),
(1018,-20,o),
(1182,-20,cs),
(1336,-20,o),
(1424,31,o),
(1486,103,c),
(1486,0,l),
(1674,0,l),
(1674,1060,l),
(1486,1060,l),
(1486,305,ls),
(1486,203,o),
(1414,124,o),
(1230,124,cs),
(1099,124,o),
(1016,174,o),
(1016,279,cs),
(1016,1060,l),
(828,1060,l),
(828,305,ls),
(828,203,o),
(756,124,o),
(572,124,cs),
(441,124,o),
(364,174,o),
(364,279,cs),
(364,1060,l),
(176,1060,l),
(176,290,ls),
(176,122,o),
(263,-20,o),
(524,-20,cs)
);
}
);
width = 1860;
},
{
layerId = "C6C96970-2BBD-4A47-8C90-C83F37B7F23D";
shapes = (
{
closed = 1;
nodes = (
(663,-23,o),
(772,32,o),
(850,110,c),
(905,18,o),
(1007,-23,o),
(1145,-23,cs),
(1324,-23,o),
(1431,63,o),
(1462,96,c),
(1462,0,l),
(1734,0,l),
(1734,1074,l),
(1462,1074,l),
(1462,335,ls),
(1462,230,o),
(1335,177,o),
(1237,177,cs),
(1152,177,o),
(1077,199,o),
(1077,312,cs),
(1077,1074,l),
(805,1074,l),
(805,324,l),
(797,228,o),
(674,177,o),
(577,177,cs),
(493,177,o),
(424,199,o),
(424,312,cs),
(424,1074,l),
(152,1074,l),
(152,280,ls),
(152,99,o),
(287,-23,o),
(493,-23,cs)
);
}
);
width = 1894;
}
);
unicode = 623;
},
{
glyphname = n;
kernRight = h;
layers = (
{
anchors = (
{
name = bottom;
pos = (614,0);
},
{
name = top;
pos = (646,1060);
}
);
layerId = "F85E8FEC-B3CD-4A54-BF30-AB1986ECE904";
shapes = (
{
closed = 1;
nodes = (
(186,0,l),
(374,0,l),
(374,755,ls),
(374,857,o),
(456,936,o),
(640,936,cs),
(771,936,o),
(862,886,o),
(862,781,cs),
(862,0,l),
(1050,0,l),
(1050,770,ls),
(1050,938,o),
(949,1080,o),
(688,1080,cs),
(534,1080,o),
(436,1029,o),
(374,957,c),
(374,1060,l),
(186,1060,l)
);
}
);
width = 1226;
},
{
anchors = (
{
name = bottom;
pos = (626,0);
},
{
name = top;
pos = (642,1074);
}
);
layerId = "C6C96970-2BBD-4A47-8C90-C83F37B7F23D";
shapes = (
{
closed = 1;
nodes = (
(160,0,l),
(432,0,l),
(432,735,ls),
(432,840,o),
(543,894,o),
(641,894,cs),
(726,894,o),
(830,868,o),
(830,755,cs),
(830,0,l),
(1102,0,l),
(1102,770,ls),
(1102,951,o),
(1003,1098,o),
(761,1098,cs),
(605,1098,o),
(514,1049,o),
(432,979,c),
(432,1074,l),
(160,1074,l)
);
}
);
width = 1254;
}
);
unicode = 110;
},
{
glyphname = nhookleft;
kernRight = h;
layers = (
{
layerId = "F85E8FEC-B3CD-4A54-BF30-AB1986ECE904";
shapes = (
{
closed = 1;
nodes = (
(311,-316,o),
(374,-162,o),
(374,219,cs),
(374,755,ls),
(374,857,o),
(456,936,o),
(640,936,cs),
(771,936,o),
(862,886,o),
(862,781,cs),
(862,0,l),
(1050,0,l),
(1050,770,ls),
(1050,938,o),
(949,1080,o),
(688,1080,cs),
(534,1080,o),
(436,1029,o),
(374,957,c),
(374,1060,l),
(186,1060,l),
(186,212,ls),
(186,-100,o),
(185,-175,o),
(-23,-175,c),
(5,-316,l)
);
}
);
width = 1224;
},
{
layerId = "C6C96970-2BBD-4A47-8C90-C83F37B7F23D";
shapes = (
{
closed = 1;
nodes = (
(316,-365,o),
(432,-202,o),
(432,179,cs),
(432,735,ls),
(432,840,o),
(543,894,o),
(641,894,cs),
(726,894,o),
(830,868,o),
(830,755,cs),
(830,0,l),
(1102,0,l),
(1102,770,ls),
(1102,951,o),
(997,1098,o),
(771,1098,cs),
(552,1098,o),
(465,1013,o),
(432,979,c),
(432,1074,l),
(160,1074,l),
(160,172,ls),
(160,-120,o),
(117,-151,o),
(-54,-175,c),
(-26,-365,l)
);
}
);
width = 1254;
}
);
unicode = 626;
},
{
glyphname = nlegrightlong;
kernRight = h;
layers = (
{
layerId = "F85E8FEC-B3CD-4A54-BF30-AB1986ECE904";
shapes = (
{
closed = 1;
nodes = (
(186,0,l),
(374,0,l),
(374,755,ls),
(374,857,o),
(456,936,o),
(640,936,cs),
(771,936,o),
(862,886,o),
(862,781,cs),
(862,-408,l),
(1050,-408,l),
(1050,770,ls),
(1050,938,o),
(949,1080,o),
(688,1080,cs),
(534,1080,o),
(436,1029,o),
(374,957,c),
(374,1060,l),
(186,1060,l)
);
}
);
width = 1224;
},
{
layerId = "C6C96970-2BBD-4A47-8C90-C83F37B7F23D";
shapes = (
{
closed = 1;
nodes = (
(160,0,l),
(432,0,l),
(432,735,ls),
(432,840,o),
(543,894,o),
(641,894,cs),
(726,894,o),
(830,868,o),
(830,755,cs),
(830,-410,l),
(1102,-410,l),
(1102,770,ls),
(1102,951,o),
(997,1098,o),
(771,1098,cs),
(552,1098,o),
(465,1013,o),
(432,979,c),
(432,1074,l),
(160,1074,l)
);
}
);
width = 1254;
}
);
unicode = 414;
},
{
glyphname = eng;
kernRight = h;
layers = (
{
layerId = "F85E8FEC-B3CD-4A54-BF30-AB1986ECE904";
shapes = (
{
closed = 1;
nodes = (
(641,-316,l),
(987,-316,o),
(1050,-162,o),
(1050,219,cs),
(1050,770,ls),
(1050,938,o),
(949,1080,o),
(688,1080,cs),
(534,1080,o),
(436,1029,o),
(374,957,c),
(374,1060,l),
(186,1060,l),
(186,0,l),
(374,0,l),
(374,755,ls),
(374,857,o),
(456,936,o),
(640,936,cs),
(771,936,o),
(862,886,o),
(862,781,cs),
(862,212,ls),
(862,-100,o),
(861,-175,o),
(613,-175,c)
);
}
);
width = 1226;
},
{
layerId = "C6C96970-2BBD-4A47-8C90-C83F37B7F23D";
shapes = (
{
closed = 1;
nodes = (
(553,-365,l),
(995,-365,o),
(1102,-202,o),
(1102,179,cs),
(1102,794,ls),
(1102,975,o),
(962,1097,o),
(756,1097,cs),
(607,1097,o),
(479,1030,o),
(433,948,c),
(433,1074,l),
(160,1074,l),
(160,0,l),
(433,0,l),
(433,758,ls),
(433,863,o),
(543,907,o),
(642,907,cs),
(726,907,o),
(829,881,o),
(829,768,cs),
(829,172,ls),
(829,-140,o),
(769,-153,o),
(525,-175,c)
);
}
);
width = 1254;
}
);
unicode = 331;
},
{
glyphname = o;
kernLeft = c;
kernRight = b;
layers = (
{
anchors = (
{
name = bottom;
pos = (594,0);
},
{
name = center;
pos = (587,530);
},
{
name = ogonek;
pos = (775,8);
},
{
name = top;
pos = (585,1060);
},
{
name = topright;
pos = (766,1060);
}
);
layerId = "F85E8FEC-B3CD-4A54-BF30-AB1986ECE904";
shapes = (
{
closed = 1;
nodes = (
(903,-22,o),
(1026,119,o),
(1026,315,cs),
(1026,742,ls),
(1026,938,o),
(903,1080,o),
(587,1080,cs),
(268,1080,o),
(148,938,o),
(148,742,cs),
(148,315,ls),
(148,119,o),
(268,-22,o),
(587,-22,cs)
);
},
{
closed = 1;
nodes = (
(437,122,o),
(336,168,o),
(336,299,cs),
(336,758,ls),
(336,889,o),
(437,936,o),
(587,936,cs),
(734,936,o),
(838,889,o),
(838,758,cs),
(838,299,ls),
(838,168,o),
(734,122,o),
(587,122,cs)
);
}
);
width = 1174;
},
{
anchors = (
{
name = bottom;
pos = (590,0);
},
{
name = center;
pos = (590,537);
},
{
name = ogonek;
pos = (804,8);
},
{
name = top;
pos = (592,1074);
},
{
name = topright;
pos = (780,1074);
}
);
layerId = "C6C96970-2BBD-4A47-8C90-C83F37B7F23D";
shapes = (
{
closed = 1;
nodes = (
(939,-23,o),
(1056,112,o),
(1056,325,cs),
(1056,748,ls),
(1056,967,o),
(883,1097,o),
(590,1097,cs),
(295,1097,o),
(124,967,o),
(124,748,cs),
(124,325,ls),
(124,111,o),
(251,-23,o),
(590,-23,cs)
);
},
{
closed = 1;
nodes = (
(465,166,o),
(396,204,o),
(396,313,cs),
(396,760,ls),
(396,869,o),
(472,907,o),
(590,907,cs),
(713,907,o),
(784,869,o),
(784,760,cs),
(784,313,ls),
(784,204,o),
(706,166,o),
(590,166,cs)
);
}
);
width = 1180;
}
);
unicode = 111;
},
{
glyphname = obarred;
kernLeft = c;
kernRight = b;
layers = (
{
layerId = "F85E8FEC-B3CD-4A54-BF30-AB1986ECE904";
shapes = (
{
closed = 1;
nodes = (
(270,467,l),
(941,467,l),
(941,611,l),
(270,611,l)
);
},
{
ref = o;
}
);
width = 1174;
},
{
layerId = "C6C96970-2BBD-4A47-8C90-C83F37B7F23D";
shapes = (
{
closed = 1;
nodes = (
(230,449,l),
(916,449,l),
(916,639,l),
(230,639,l)
);
},
{
ref = o;
}
);
width = 1180;
}
);
unicode = 629;
},
{
glyphname = "omega-latin";
layers = (
{
layerId = "F85E8FEC-B3CD-4A54-BF30-AB1986ECE904";
shapes = (
{
closed = 1;
nodes = (
(576,-22,o),
(653,22,o),
(697,124,c),
(667,124,l),
(711,22,o),
(788,-22,o),
(922,-22,cs),
(1156,-22,o),
(1216,89,o),
(1216,275,cs),
(1216,742,ls),
(1216,938,o),
(1136,1080,o),
(907,1080,c),
(907,936,l),
(987,936,o),
(1028,889,o),
(1028,758,cs),
(1028,239,ls),
(1028,158,o),
(987,122,o),
(902,122,cs),
(820,122,o),
(776,158,o),
(776,249,cs),
(776,542,l),
(588,542,l),
(588,249,ls),
(588,158,o),
(544,122,o),
(462,122,cs),
(377,122,o),
(336,158,o),
(336,239,cs),
(336,758,ls),
(336,889,o),
(377,936,o),
(457,936,c),
(457,1080,l),
(228,1080,o),
(148,938,o),
(148,742,cs),
(148,275,ls),
(148,89,o),
(208,-22,o),
(442,-22,cs)
);
}
);
width = 1364;
},
{
guides = (
{
pos = (2083,1097);
}
);
layerId = "C6C96970-2BBD-4A47-8C90-C83F37B7F23D";
shapes = (
{
closed = 1;
nodes = (
(636,-22,o),
(713,22,o),
(757,144,c),
(727,144,l),
(771,22,o),
(848,-22,o),
(1022,-22,cs),
(1290,-22,o),
(1360,89,o),
(1360,275,cs),
(1360,740,ls),
(1360,936,o),
(1250,1098,o),
(947,1098,c),
(947,908,l),
(1027,908,o),
(1088,861,o),
(1088,750,cs),
(1088,265,ls),
(1088,194,o),
(1057,168,o),
(982,168,cs),
(910,168,o),
(876,194,o),
(876,275,cs),
(876,569,l),
(608,569,l),
(608,275,ls),
(608,194,o),
(574,168,o),
(502,168,cs),
(427,168,o),
(396,194,o),
(396,265,cs),
(396,750,ls),
(396,861,o),
(457,908,o),
(537,908,c),
(537,1098,l),
(234,1098,o),
(124,936,o),
(124,740,cs),
(124,275,ls),
(124,89,o),
(194,-22,o),
(462,-22,cs)
);
}
);
width = 1484;
}
);
unicode = 42935;
},
{
glyphname = oopen;
layers = (
{
layerId = "F85E8FEC-B3CD-4A54-BF30-AB1986ECE904";
shapes = (
{
closed = 1;
nodes = (
(843,-22,o),
(958,148,o),
(958,344,cs),
(958,748,ls),
(958,948,o),
(795,1080,o),
(532,1080,cs),
(278,1080,o),
(114,1009,o),
(114,724,c),
(293,707,l),
(293,901,o),
(351,936,o),
(527,936,cs),
(689,936,o),
(770,884,o),
(770,743,cs),
(770,328,ls),
(770,176,o),
(679,122,o),
(527,122,cs),
(341,122,o),
(304,150,o),
(290,310,c),
(116,310,l),
(137,66,o),
(239,-22,o),
(527,-22,cs)
);
}
);
width = 1106;
},
{
layerId = "C6C96970-2BBD-4A47-8C90-C83F37B7F23D";
shapes = (
{
closed = 1;
nodes = (
(905,-23,o),
(987,140,o),
(987,327,cs),
(987,757,ls),
(987,972,o),
(823,1097,o),
(542,1097,cs),
(253,1097,o),
(102,1007,o),
(102,699,c),
(358,679,l),
(358,874,o),
(392,907,o),
(532,907,cs),
(648,907,o),
(715,867,o),
(715,756,cs),
(715,322,ls),
(715,207,o),
(656,168,o),
(532,168,cs),
(390,168,o),
(357,197,o),
(357,380,c),
(103,380,l),
(103,83,o),
(196,-23,o),
(538,-23,cs)
);
}
);
width = 1111;
}
);
unicode = 596;
},
{
glyphname = oslash;
kernLeft = c;
kernRight = b;
layers = (
{
guides = (
{
angle = 159.5222;
pos = (541,528);
showMeasurement = 1;
}
);
layerId = "F85E8FEC-B3CD-4A54-BF30-AB1986ECE904";
shapes = (
{
closed = 1;
nodes = (
(363,-226,l),
(901,1220,l),
(811,1251,l),
(271,-195,l)
);
},
{
ref = o;
}
);
width = 1174;
},
{
background = {
shapes = (
{
closed = 1;
nodes = (
(367,-214,l),
(896,1260,l),
(824,1281,l),
(295,-194,l)
);
}
);
};
layerId = "C6C96970-2BBD-4A47-8C90-C83F37B7F23D";
shapes = (
{
closed = 1;
nodes = (
(372,-214,l),
(901,1260,l),
(810,1287,l),
(279,-187,l)
);
},
{
ref = o;
}
);
width = 1180;
}
);
unicode = 248;
},
{
glyphname = ou;
layers = (
{
background = {
shapes = (
{
closed = 1;
nodes = (
(939,-23,o),
(1056,112,o),
(1056,325,cs),
(1056,608,ls),
(1056,827,o),
(883,927,o),
(590,927,cs),
(295,927,o),
(124,827,o),
(124,608,cs),
(124,325,ls),
(124,111,o),
(251,-23,o),
(590,-23,cs)
);
},
{
closed = 1;
nodes = (
(465,166,o),
(396,204,o),
(396,313,cs),
(396,620,ls),
(396,729,o),
(472,767,o),
(590,767,cs),
(713,767,o),
(784,729,o),
(784,620,cs),
(784,313,ls),
(784,204,o),
(706,166,o),
(590,166,cs)
);
},
{
closed = 1;
nodes = (
(784,1103,ls),
(784,994,o),
(706,956,o),
(590,956,cs),
(465,956,o),
(396,994,o),
(396,1103,cs),
(396,1515,l),
(124,1515,l),
(124,1115,ls),
(124,901,o),
(251,797,o),
(590,797,cs),
(939,797,o),
(1056,902,o),
(1056,1115,cs),
(1056,1515,l),
(784,1515,l)
);
}
);
};
layerId = "F85E8FEC-B3CD-4A54-BF30-AB1986ECE904";
shapes = (
{
closed = 1;
nodes = (
(903,-22,o),
(1026,119,o),
(1026,315,cs),
(1026,588,ls),
(1026,784,o),
(903,906,o),
(587,906,cs),
(268,906,o),
(148,784,o),
(148,588,cs),
(148,315,ls),
(148,119,o),
(268,-22,o),
(587,-22,cs)
);
},
{
closed = 1;
nodes = (
(437,122,o),
(336,168,o),
(336,299,cs),
(336,604,ls),
(336,735,o),
(437,782,o),
(587,782,cs),
(734,782,o),
(838,735,o),
(838,604,cs),
(838,299,ls),
(838,168,o),
(734,122,o),
(587,122,cs)
);
},
{
closed = 1;
nodes = (
(838,1103,ls),
(838,972,o),
(734,916,o),
(587,916,cs),
(437,916,o),
(336,972,o),
(336,1103,cs),
(336,1505,l),
(148,1505,l),
(148,1119,ls),
(148,923,o),
(268,802,o),
(587,802,cs),
(903,802,o),
(1026,923,o),
(1026,1119,cs),
(1026,1505,l),
(838,1505,l)
);
}
);
width = 1174;
},
{
layerId = "C6C96970-2BBD-4A47-8C90-C83F37B7F23D";
shapes = (
{
closed = 1;
nodes = (
(939,-23,o),
(1056,112,o),
(1056,325,cs),
(1056,608,ls),
(1056,827,o),
(883,927,o),
(590,927,cs),
(295,927,o),
(124,827,o),
(124,608,cs),
(124,325,ls),
(124,111,o),
(251,-23,o),
(590,-23,cs)
);
},
{
closed = 1;
nodes = (
(465,166,o),
(396,204,o),
(396,313,cs),
(396,620,ls),
(396,729,o),
(472,767,o),
(590,767,cs),
(713,767,o),
(784,729,o),
(784,620,cs),
(784,313,ls),
(784,204,o),
(706,166,o),
(590,166,cs)
);
},
{
closed = 1;
nodes = (
(784,1103,ls),
(784,994,o),
(706,956,o),
(590,956,cs),
(465,956,o),
(396,994,o),
(396,1103,cs),
(396,1515,l),
(124,1515,l),
(124,1115,ls),
(124,901,o),
(251,797,o),
(590,797,cs),
(939,797,o),
(1056,902,o),
(1056,1115,cs),
(1056,1515,l),
(784,1515,l)
);
}
);
width = 1180;
}
);
unicode = 547;
},
{
glyphname = oe;
kernLeft = c;
kernRight = e;
layers = (
{
layerId = "F85E8FEC-B3CD-4A54-BF30-AB1986ECE904";
shapes = (
{
closed = 1;
nodes = (
(730,-20,o),
(822,34,o),
(883,122,c),
(947,35,o),
(1054,-20,o),
(1198,-20,cs),
(1488,-20,o),
(1582,73,o),
(1603,331,c),
(1433,331,l),
(1420,148,o),
(1364,121,o),
(1198,121,cs),
(1051,121,o),
(979,186,o),
(979,328,cs),
(979,506,l),
(1604,506,l),
(1604,758,ls),
(1604,959,o),
(1474,1080,o),
(1198,1080,cs),
(1053,1080,o),
(949,1043,o),
(883,950,c),
(813,1043,o),
(707,1080,o),
(569,1080,cs),
(306,1080,o),
(150,947,o),
(150,747,cs),
(150,317,ls),
(150,121,o),
(253,-20,o),
(569,-20,cs)
);
},
{
closed = 1;
nodes = (
(422,121,o),
(338,170,o),
(338,301,cs),
(338,763,ls),
(338,894,o),
(430,938,o),
(569,938,cs),
(714,938,o),
(791,888,o),
(791,763,cs),
(791,301,ls),
(791,171,o),
(708,121,o),
(569,121,cs)
);
},
{
closed = 1;
nodes = (
(979,760,ls),
(979,891,o),
(1048,938,o),
(1198,938,cs),
(1343,938,o),
(1422,906,o),
(1422,778,cs),
(1422,633,l),
(979,633,l)
);
}
);
width = 1734;
},
{
layerId = "C6C96970-2BBD-4A47-8C90-C83F37B7F23D";
shapes = (
{
closed = 1;
nodes = (
(734,-23,o),
(835,22,o),
(905,90,c),
(985,18,o),
(1097,-23,o),
(1222,-23,cs),
(1512,-23,o),
(1670,51,o),
(1670,357,c),
(1416,357,l),
(1416,188,o),
(1349,166,o),
(1227,166,cs),
(1113,166,o),
(1042,203,o),
(1042,321,cs),
(1042,512,l),
(1670,512,l),
(1670,745,ls),
(1670,961,o),
(1546,1097,o),
(1220,1097,cs),
(1089,1097,o),
(981,1061,o),
(903,977,c),
(825,1060,o),
(716,1097,o),
(584,1097,cs),
(307,1097,o),
(124,970,o),
(124,749,cs),
(124,326,ls),
(124,112,o),
(246,-23,o),
(584,-23,cs)
);
},
{
closed = 1;
nodes = (
(461,166,o),
(397,205,o),
(397,314,cs),
(397,762,ls),
(397,870,o),
(470,907,o),
(584,907,cs),
(707,907,o),
(769,869,o),
(769,762,cs),
(769,314,ls),
(769,205,o),
(698,166,o),
(584,166,cs)
);
},
{
closed = 1;
nodes = (
(1042,760,ls),
(1042,874,o),
(1118,907,o),
(1227,907,cs),
(1336,907,o),
(1413,884,o),
(1413,765,cs),
(1413,655,l),
(1042,655,l)
);
}
);
width = 1780;
}
);
unicode = 339;
},
{
glyphname = p;
kernRight = b;
layers = (
{
anchors = (
{
name = top;
pos = (648,1060);
}
);
layerId = "F85E8FEC-B3CD-4A54-BF30-AB1986ECE904";
shapes = (
{
closed = 1;
nodes = (
(374,-408,l),
(374,34,l),
(425,8,o),
(505,-22,o),
(624,-22,cs),
(900,-22,o),
(1050,131,o),
(1050,344,cs),
(1050,729,ls),
(1050,933,o),
(919,1080,o),
(648,1080,cs),
(527,1080,o),
(412,1030,o),
(356,980,c),
(334,1060,l),
(186,1060,l),
(186,-408,l)
);
},
{
closed = 1;
nodes = (
(503,122,o),
(422,152,o),
(374,179,c),
(374,824,l),
(391,850,o),
(486,936,o),
(619,936,cs),
(757,936,o),
(862,871,o),
(862,744,cs),
(862,324,ls),
(862,194,o),
(760,122,o),
(612,122,cs)
);
}
);
width = 1198;
},
{
anchors = (
{
name = top;
pos = (667,1074);
}
);
layerId = "C6C96970-2BBD-4A47-8C90-C83F37B7F23D";
shapes = (
{
closed = 1;
nodes = (
(432,-410,l),
(432,17,l),
(484,-6,o),
(552,-23,o),
(637,-23,cs),
(940,-23,o),
(1078,142,o),
(1078,326,cs),
(1078,751,ls),
(1078,957,o),
(929,1097,o),
(677,1097,cs),
(550,1097,o),
(448,1056,o),
(377,1004,c),
(350,1074,l),
(160,1074,l),
(160,-410,l)
);
},
{
closed = 1;
nodes = (
(526,166,o),
(465,192,o),
(432,213,c),
(432,841,l),
(463,872,o),
(536,907,o),
(623,907,cs),
(737,907,o),
(806,863,o),
(806,755,cs),
(806,320,ls),
(806,211,o),
(738,166,o),
(614,166,cs)
);
}
);
width = 1202;
}
);
unicode = 112;
},
{
glyphname = phook;
kernRight = b;
layers = (
{
layerId = "F85E8FEC-B3CD-4A54-BF30-AB1986ECE904";
shapes = (
{
closed = 1;
nodes = (
(368,-408,l),
(368,34,l),
(419,8,o),
(499,-22,o),
(618,-22,cs),
(894,-22,o),
(1044,131,o),
(1044,344,cs),
(1044,729,ls),
(1044,933,o),
(913,1080,o),
(642,1080,cs),
(509,1080,o),
(384,1020,o),
(336,966,c),
(368,937,l),
(368,1166,ls),
(368,1336,o),
(425,1363,o),
(528,1363,cs),
(561,1363,l),
(548,1505,l),
(492,1505,ls),
(270,1505,o),
(180,1413,o),
(180,1145,cs),
(180,-408,l)
);
},
{
closed = 1;
nodes = (
(497,122,o),
(416,152,o),
(368,179,c),
(368,824,l),
(385,850,o),
(480,936,o),
(613,936,cs),
(751,936,o),
(856,871,o),
(856,744,cs),
(856,324,ls),
(856,194,o),
(754,122,o),
(606,122,cs)
);
}
);
width = 1192;
},
{
layerId = "C6C96970-2BBD-4A47-8C90-C83F37B7F23D";
shapes = (
{
closed = 1;
nodes = (
(432,-410,l),
(432,17,l),
(484,-6,o),
(552,-23,o),
(637,-23,cs),
(940,-23,o),
(1078,142,o),
(1078,326,cs),
(1078,751,ls),
(1078,957,o),
(929,1097,o),
(669,1097,cs),
(541,1097,o),
(428,1048,o),
(357,989,c),
(432,962,l),
(432,1186,ls),
(432,1283,o),
(469,1327,o),
(548,1327,cs),
(605,1327,l),
(598,1515,l),
(504,1515,ls),
(241,1515,o),
(160,1403,o),
(160,1155,cs),
(160,-410,l)
);
},
{
closed = 1;
nodes = (
(526,166,o),
(465,192,o),
(432,213,c),
(432,841,l),
(463,872,o),
(536,907,o),
(623,907,cs),
(737,907,o),
(806,863,o),
(806,755,cs),
(806,320,ls),
(806,211,o),
(738,166,o),
(614,166,cs)
);
}
);
width = 1202;
}
);
unicode = 421;
},
{
glyphname = thorn;
kernRight = b;
layers = (
{
layerId = "F85E8FEC-B3CD-4A54-BF30-AB1986ECE904";
shapes = (
{
closed = 1;
nodes = (
(180,-408,l),
(368,-408,l),
(368,34,l),
(419,8,o),
(499,-24,o),
(618,-24,cs),
(894,-24,o),
(1047,131,o),
(1047,344,cs),
(1047,729,ls),
(1047,933,o),
(913,1076,o),
(642,1076,cs),
(533,1076,o),
(428,1039,o),
(368,994,c),
(368,1506,l),
(180,1506,l)
);
},
{
closed = 1;
nodes = (
(606,117,cs),
(497,117,o),
(416,152,o),
(368,179,c),
(368,824,l),
(385,850,o),
(480,934,o),
(613,934,cs),
(751,934,o),
(859,869,o),
(859,742,cs),
(859,324,ls),
(859,194,o),
(754,117,o)
);
}
);
width = 1195;
},
{
layerId = "C6C96970-2BBD-4A47-8C90-C83F37B7F23D";
shapes = (
{
closed = 1;
nodes = (
(160,-410,l),
(433,-410,l),
(433,17,l),
(486,-6,o),
(553,-24,o),
(638,-24,cs),
(941,-24,o),
(1082,142,o),
(1082,326,cs),
(1082,751,ls),
(1082,957,o),
(930,1095,o),
(670,1095,cs),
(579,1095,o),
(496,1071,o),
(433,1036,c),
(433,1516,l),
(160,1516,l)
);
},
{
closed = 1;
nodes = (
(616,165,cs),
(521,165,o),
(471,186,o),
(433,213,c),
(433,841,l),
(465,872,o),
(537,906,o),
(625,906,cs),
(738,906,o),
(809,862,o),
(809,755,cs),
(809,320,ls),
(809,211,o),
(739,165,o)
);
}
);
width = 1206;
}
);
unicode = 254;
},
{
glyphname = pstroke;
kernRight = b;
layers = (
{
layerId = "F85E8FEC-B3CD-4A54-BF30-AB1986ECE904";
shapes = (
{
closed = 1;
nodes = (
(30,465,l),
(1188,465,l),
(1188,609,l),
(30,609,l)
);
},
{
ref = p;
}
);
width = 1208;
},
{
layerId = "C6C96970-2BBD-4A47-8C90-C83F37B7F23D";
shapes = (
{
closed = 1;
nodes = (
(30,449,l),
(1212,449,l),
(1212,639,l),
(30,639,l)
);
},
{
ref = p;
}
);
width = 1212;
}
);
unicode = 7549;
},
{
glyphname = q;
kernLeft = c;
layers = (
{
layerId = "F85E8FEC-B3CD-4A54-BF30-AB1986ECE904";
shapes = (
{
closed = 1;
nodes = (
(826,-408,l),
(1014,-408,l),
(1014,1060,l),
(826,1060,l),
(826,975,l),
(796,1025,o),
(668,1080,o),
(560,1080,cs),
(284,1080,o),
(148,941,o),
(148,728,cs),
(148,314,ls),
(148,110,o),
(302,-22,o),
(573,-22,cs),
(646,-22,o),
(761,-3,o),
(826,47,c)
);
},
{
closed = 1;
nodes = (
(585,122,cs),
(447,122,o),
(336,157,o),
(336,284,cs),
(336,748,ls),
(336,878,o),
(440,936,o),
(588,936,cs),
(755,936,o),
(826,869,o),
(826,810,cs),
(826,201,l),
(816,180,o),
(725,122,o)
);
}
);
width = 1200;
},
{
layerId = "C6C96970-2BBD-4A47-8C90-C83F37B7F23D";
shapes = (
{
closed = 1;
nodes = (
(770,-410,l),
(1042,-410,l),
(1042,1074,l),
(839,1074,l),
(820,1005,l),
(759,1056,o),
(655,1097,o),
(543,1097,cs),
(282,1097,o),
(124,960,o),
(124,750,cs),
(124,317,ls),
(124,136,o),
(235,-23,o),
(537,-23,cs),
(619,-23,o),
(705,-4,o),
(770,33,c)
);
},
{
closed = 1;
nodes = (
(588,166,cs),
(467,166,o),
(396,200,o),
(396,308,cs),
(396,756,ls),
(396,865,o),
(472,907,o),
(588,907,cs),
(685,907,o),
(745,878,o),
(770,839,c),
(770,220,l),
(767,213,o),
(702,166,o)
);
}
);
width = 1194;
}
);
unicode = 113;
},
{
glyphname = qhooktail;
kernLeft = c;
layers = (
{
layerId = "F85E8FEC-B3CD-4A54-BF30-AB1986ECE904";
shapes = (
{
closed = 1;
nodes = (
(1103,-408,l),
(1125,-264,l),
(1034,-264,o),
(1014,-244,o),
(1014,-132,cs),
(1014,1060,l),
(826,1060,l),
(826,975,l),
(796,1025,o),
(668,1080,o),
(560,1080,cs),
(284,1080,o),
(148,941,o),
(148,728,cs),
(148,314,ls),
(148,110,o),
(302,-22,o),
(573,-22,cs),
(646,-22,o),
(761,-3,o),
(826,47,c),
(826,-180,ls),
(826,-320,o),
(909,-408,o),
(1050,-408,cs)
);
},
{
closed = 1;
nodes = (
(447,122,o),
(336,157,o),
(336,284,cs),
(336,748,ls),
(336,878,o),
(440,936,o),
(588,936,cs),
(755,936,o),
(826,869,o),
(826,810,cs),
(826,201,l),
(816,180,o),
(725,122,o),
(585,122,cs)
);
}
);
width = 1200;
},
{
layerId = "C6C96970-2BBD-4A47-8C90-C83F37B7F23D";
shapes = (
{
closed = 1;
nodes = (
(1118,-410,l),
(1129,-212,l),
(1062,-212,o),
(1042,-192,o),
(1042,-94,cs),
(1042,1074,l),
(839,1074,l),
(820,1005,l),
(759,1056,o),
(655,1097,o),
(543,1097,cs),
(282,1097,o),
(124,960,o),
(124,750,cs),
(124,317,ls),
(124,136,o),
(235,-23,o),
(537,-23,cs),
(619,-23,o),
(705,-4,o),
(770,33,c),
(770,-123,ls),
(770,-293,o),
(866,-410,o),
(1041,-410,cs)
);
},
{
closed = 1;
nodes = (
(467,166,o),
(396,200,o),
(396,308,cs),
(396,756,ls),
(396,865,o),
(472,907,o),
(588,907,cs),
(685,907,o),
(745,878,o),
(770,839,c),
(770,220,l),
(767,213,o),
(702,166,o),
(588,166,cs)
);
}
);
width = 1194;
}
);
unicode = 587;
},
